<svg width="1440" height="719" viewBox="0 0 1440 719" fill="none" xmlns="http://www.w3.org/2000/svg">
<path d="M1423.74 46.295C1423.1 46.8264 1423.02 47.7724 1423.55 48.408C1424.08 49.0435 1425.03 49.128 1425.66 48.5966L1423.74 46.295ZM1444.01 25.6451L1442.76 24.8288L1444.01 25.6451ZM1396.38 86.8064L1397.77 87.3533L1396.38 86.8064ZM1425.66 48.5966C1426.3 48.0652 1426.38 47.1193 1425.85 46.4837C1425.32 45.8481 1424.38 45.7637 1423.74 46.295L1425.66 48.5966ZM1209.39 350.541L1209.02 351.994L1209.39 350.541ZM1314.14 296.848L1315.54 297.395L1314.14 296.848ZM1115.04 370.634C1114.76 371.413 1115.16 372.272 1115.94 372.551C1116.72 372.831 1117.58 372.425 1117.86 371.645L1115.04 370.634ZM1172.82 341.192L1172.45 342.645L1172.82 341.192ZM1036.91 387.236L1038.02 386.221L1036.91 387.236ZM1117.86 371.645C1118.14 370.865 1117.73 370.006 1116.95 369.727C1116.17 369.448 1115.32 369.854 1115.04 370.634L1117.86 371.645ZM934.77 329.846L934.476 328.375L934.77 329.846ZM1005.3 352.833L1006.4 351.818L1005.3 352.833ZM667.501 506.26L666.123 506.851L667.501 506.26ZM739.816 368.837L739.522 367.366L739.816 368.837ZM788.608 569.061L789.178 570.448L788.608 569.061ZM674.403 522.378L673.024 522.968L674.403 522.378ZM836.101 419.631C835.311 419.382 834.468 419.819 834.218 420.609C833.968 421.399 834.406 422.242 835.196 422.492L836.101 419.631ZM840.949 547.539L840.378 546.152L840.949 547.539ZM781.122 427.27L780.36 425.978L781.122 427.27ZM835.196 422.492C835.986 422.741 836.829 422.304 837.078 421.514C837.328 420.724 836.89 419.881 836.101 419.631L835.196 422.492ZM436.547 578.166L437.209 576.82L436.547 578.166ZM531.505 574.559L530.743 573.267L531.505 574.559ZM117.368 489.057L118.699 489.75L117.368 489.057ZM200.182 461.898L200.844 460.552L200.182 461.898ZM129.717 563.129L130.692 561.989L129.717 563.129ZM115.895 491.887L117.226 492.58L115.895 491.887ZM238.293 552.681C238.084 551.879 237.265 551.399 236.463 551.608C235.661 551.817 235.181 552.637 235.39 553.438L238.293 552.681ZM168.173 596.029L167.198 597.169L168.173 596.029ZM164.282 535.306L165.395 536.312L164.282 535.306ZM235.39 553.438C235.599 554.24 236.419 554.72 237.22 554.511C238.022 554.302 238.502 553.483 238.293 552.681L235.39 553.438ZM3.85066 714.978C4.40627 714.363 4.35853 713.415 3.74404 712.859C3.12955 712.304 2.181 712.351 1.6254 712.966L3.85066 714.978ZM7.10146 706.909C6.54586 707.524 6.5936 708.472 7.20809 709.028C7.82258 709.583 8.77113 709.536 9.32673 708.921L7.10146 706.909ZM14.8028 702.865C15.3584 702.25 15.3107 701.302 14.6962 700.746C14.0817 700.191 13.1331 700.238 12.5775 700.853L14.8028 702.865ZM18.0536 694.796C17.498 695.411 17.5457 696.359 18.1602 696.915C18.7747 697.471 19.7232 697.423 20.2789 696.808L18.0536 694.796ZM25.7549 690.752C26.3105 690.137 26.2628 689.189 25.6483 688.633C25.0338 688.078 24.0852 688.125 23.5296 688.74L25.7549 690.752ZM29.0057 682.683C28.4501 683.298 28.4978 684.246 29.1123 684.802C29.7268 685.358 30.6754 685.31 31.231 684.695L29.0057 682.683ZM36.707 678.639C37.2626 678.024 37.2149 677.076 36.6004 676.52C35.9859 675.965 35.0374 676.012 34.4818 676.627L36.707 678.639ZM39.9578 670.57C39.4022 671.185 39.45 672.133 40.0645 672.689C40.6789 673.245 41.6275 673.197 42.1831 672.582L39.9578 670.57ZM47.6592 666.526C48.2148 665.911 48.167 664.963 47.5525 664.407C46.938 663.852 45.9895 663.899 45.4339 664.514L47.6592 666.526ZM50.91 658.458C50.3544 659.072 50.4021 660.021 51.0166 660.576C51.6311 661.132 52.5796 661.084 53.1352 660.469L50.91 658.458ZM58.6113 654.413C59.1669 653.799 59.1191 652.85 58.5047 652.294C57.8902 651.739 56.9416 651.787 56.386 652.401L58.6113 654.413ZM61.8621 646.345C61.3065 646.959 61.3542 647.908 61.9687 648.463C62.5832 649.019 63.5317 648.971 64.0873 648.357L61.8621 646.345ZM69.5634 642.3C70.119 641.686 70.0713 640.737 69.4568 640.181C68.8423 639.626 67.8937 639.674 67.3381 640.288L69.5634 642.3ZM72.8142 634.232C72.2586 634.846 72.3063 635.795 72.9208 636.35C73.5353 636.906 74.4839 636.858 75.0395 636.244L72.8142 634.232ZM80.5155 630.187C81.0711 629.573 81.0234 628.624 80.4089 628.068C79.7944 627.513 78.8459 627.561 78.2903 628.175L80.5155 630.187ZM83.7663 622.119C83.2107 622.733 83.2585 623.682 83.8729 624.237C84.4874 624.793 85.436 624.745 85.9916 624.131L83.7663 622.119ZM91.4676 618.074C92.0232 617.46 91.9755 616.511 91.361 615.956C90.7465 615.4 89.798 615.448 89.2424 616.062L91.4676 618.074ZM94.7184 610.006C94.1628 610.62 94.2106 611.569 94.8251 612.124C95.4396 612.68 96.3881 612.632 96.9437 612.018L94.7184 610.006ZM102.42 605.961C102.975 605.347 102.928 604.398 102.313 603.843C101.699 603.287 100.75 603.335 100.195 603.949L102.42 605.961ZM105.671 597.893C105.115 598.507 105.163 599.456 105.777 600.011C106.392 600.567 107.34 600.519 107.896 599.905L105.671 597.893ZM113.372 593.848C113.927 593.234 113.88 592.285 113.265 591.73C112.651 591.174 111.702 591.222 111.147 591.836L113.372 593.848ZM116.623 585.78C116.067 586.394 116.115 587.343 116.729 587.898C117.344 588.454 118.292 588.406 118.848 587.792L116.623 585.78ZM124.324 581.735C124.88 581.121 124.832 580.172 124.217 579.617C123.603 579.061 122.654 579.109 122.099 579.723L124.324 581.735ZM127.575 573.667C127.019 574.281 127.067 575.23 127.681 575.786C128.296 576.341 129.244 576.293 129.8 575.679L127.575 573.667ZM135.276 569.622C135.832 569.008 135.784 568.059 135.17 567.504C134.555 566.948 133.606 566.996 133.051 567.61L135.276 569.622ZM138.527 561.554C137.971 562.168 138.019 563.117 138.634 563.673C139.248 564.228 140.197 564.18 140.752 563.566L138.527 561.554ZM146.228 557.509C146.784 556.895 146.736 555.946 146.122 555.391C145.507 554.835 144.559 554.883 144.003 555.497L146.228 557.509ZM149.479 549.441C148.923 550.055 148.971 551.004 149.586 551.56C150.2 552.115 151.149 552.068 151.704 551.453L149.479 549.441ZM157.18 545.396C157.736 544.782 157.688 543.833 157.074 543.278C156.459 542.722 155.511 542.77 154.955 543.385L157.18 545.396ZM160.431 537.328C159.876 537.943 159.923 538.891 160.538 539.447C161.152 540.002 162.101 539.955 162.656 539.34L160.431 537.328ZM167.98 533.686C168.586 533.121 168.619 532.172 168.054 531.566C167.489 530.96 166.54 530.926 165.934 531.491L167.98 533.686ZM172.145 526.653C171.448 527.102 171.247 528.03 171.695 528.726C172.144 529.423 173.072 529.624 173.769 529.176L172.145 526.653ZM180.27 525.79C181.037 525.476 181.404 524.601 181.09 523.834C180.777 523.067 179.901 522.699 179.134 523.013L180.27 525.79ZM186.67 520.713C185.859 520.881 185.338 521.676 185.506 522.487C185.674 523.298 186.469 523.819 187.28 523.65L186.67 520.713ZM194.568 522.813C195.397 522.793 196.051 522.105 196.031 521.277C196.011 520.449 195.323 519.794 194.495 519.814L194.568 522.813ZM202.35 520.318C201.531 520.193 200.766 520.754 200.64 521.573C200.514 522.392 201.076 523.158 201.895 523.283L202.35 520.318ZM209.029 525.029C209.813 525.295 210.665 524.876 210.931 524.091C211.198 523.307 210.778 522.455 209.994 522.188L209.029 525.029ZM217.195 525.369C216.469 524.968 215.557 525.231 215.157 525.957C214.756 526.682 215.019 527.594 215.745 527.995L217.195 525.369ZM221.823 532.102C222.465 532.626 223.41 532.531 223.934 531.889C224.458 531.247 224.362 530.302 223.721 529.779L221.823 532.102ZM229.343 535.298C228.807 534.666 227.861 534.587 227.229 535.123C226.597 535.658 226.518 536.605 227.054 537.237L229.343 535.298ZM231.257 543.242C231.668 543.961 232.584 544.211 233.303 543.801C234.023 543.39 234.273 542.473 233.862 541.754L231.257 543.242ZM237.137 548.913C236.861 548.132 236.003 547.724 235.223 548C234.442 548.277 234.033 549.134 234.31 549.915L237.137 548.913ZM236.184 557.08C236.327 557.896 237.104 558.442 237.92 558.299C238.736 558.156 239.282 557.379 239.139 556.563L236.184 557.08ZM239.823 564.494C239.826 563.666 239.157 562.992 238.328 562.989C237.5 562.986 236.826 563.655 236.823 564.483L239.823 564.494ZM236.107 571.86C235.949 572.673 236.481 573.46 237.294 573.617C238.107 573.775 238.894 573.243 239.052 572.43L236.107 571.86ZM236.798 580.077C237.107 579.309 236.734 578.435 235.965 578.127C235.196 577.818 234.323 578.191 234.014 578.96L236.798 580.077ZM230.621 585.544C230.175 586.242 230.379 587.17 231.077 587.616C231.775 588.062 232.703 587.858 233.149 587.16L230.621 585.544ZM228.269 593.451C228.834 592.845 228.8 591.896 228.193 591.331C227.587 590.767 226.638 590.801 226.073 591.408L228.269 593.451ZM220.554 596.379C219.892 596.878 219.76 597.818 220.259 598.48C220.757 599.141 221.698 599.273 222.359 598.775L220.554 596.379ZM215.619 602.992C216.357 602.615 216.649 601.712 216.272 600.974C215.895 600.237 214.992 599.944 214.254 600.321L215.619 602.992ZM207.37 603.111C206.578 603.354 206.132 604.192 206.374 604.985C206.617 605.777 207.456 606.222 208.248 605.98L207.37 603.111ZM200.456 607.617C201.279 607.521 201.868 606.776 201.772 605.954C201.676 605.131 200.931 604.542 200.108 604.638L200.456 607.617ZM192.703 604.81C191.876 604.752 191.159 605.374 191.101 606.201C191.042 607.027 191.665 607.744 192.491 607.803L192.703 604.81ZM184.628 606.486C185.428 606.7 186.25 606.225 186.464 605.425C186.678 604.624 186.203 603.802 185.402 603.588L184.628 606.486ZM178.455 601.007C177.709 600.648 176.813 600.961 176.453 601.708C176.093 602.454 176.407 603.35 177.153 603.71L178.455 601.007ZM170.32 599.627C170.991 600.112 171.929 599.961 172.414 599.29C172.899 598.618 172.748 597.681 172.076 597.195L170.32 599.627ZM165.944 592.148C165.314 591.609 164.367 591.683 163.829 592.312C163.29 592.942 163.364 593.889 163.993 594.427L165.944 592.148ZM157.584 588.944C158.214 589.483 159.161 589.409 159.699 588.779C160.238 588.15 160.164 587.203 159.534 586.664L157.584 588.944ZM153.125 581.181C152.496 580.643 151.549 580.716 151.01 581.346C150.472 581.975 150.545 582.922 151.175 583.461L153.125 581.181ZM144.765 577.977C145.395 578.516 146.342 578.442 146.88 577.813C147.419 577.183 147.345 576.236 146.716 575.698L144.765 577.977ZM140.306 570.214C139.677 569.676 138.73 569.75 138.191 570.379C137.653 571.009 137.727 571.955 138.356 572.494L140.306 570.214ZM131.947 567.011C132.576 567.549 133.523 567.476 134.062 566.846C134.6 566.216 134.527 565.27 133.897 564.731L131.947 567.011ZM127.876 559.412C127.283 558.833 126.334 558.843 125.754 559.436C125.175 560.028 125.185 560.978 125.778 561.557L127.876 559.412ZM120.429 555.571C120.938 556.224 121.88 556.341 122.534 555.832C123.187 555.323 123.304 554.38 122.795 553.727L120.429 555.571ZM118.524 547.411C118.107 546.695 117.189 546.453 116.473 546.87C115.757 547.286 115.515 548.205 115.931 548.921L118.524 547.411ZM112.368 541.726C112.685 542.492 113.563 542.855 114.328 542.538C115.093 542.221 115.457 541.344 115.14 540.578L112.368 541.726ZM112.701 533.353C112.489 532.552 111.668 532.075 110.867 532.286C110.066 532.498 109.589 533.319 109.8 534.12L112.701 533.353ZM108.271 526.24C108.374 527.062 109.124 527.644 109.946 527.541C110.768 527.438 111.351 526.688 111.248 525.867L108.271 526.24ZM110.808 518.253C110.816 517.425 110.151 516.747 109.323 516.739C108.494 516.731 107.816 517.397 107.809 518.225L110.808 518.253ZM108.423 510.22C108.304 511.04 108.873 511.801 109.692 511.92C110.512 512.039 111.273 511.47 111.392 510.65L108.423 510.22ZM112.991 503.196C113.219 502.4 112.758 501.569 111.962 501.341C111.165 501.113 110.335 501.574 110.107 502.371L112.991 503.196ZM112.83 494.819C112.497 495.577 112.842 496.462 113.601 496.795C114.36 497.127 115.245 496.782 115.577 496.023L112.83 494.819ZM117.594 491.872C117.977 491.137 117.691 490.232 116.956 489.849C116.221 489.467 115.315 489.752 114.933 490.487L117.594 491.872ZM115.669 489.072C115.287 489.807 115.573 490.713 116.308 491.095C117.042 491.478 117.948 491.192 118.331 490.457L115.669 489.072ZM120.622 486.324C121.051 485.615 120.823 484.693 120.114 484.265C119.405 483.836 118.483 484.064 118.054 484.773L120.622 486.324ZM122.754 478.017C122.238 478.666 122.345 479.609 122.993 480.125C123.641 480.641 124.585 480.534 125.101 479.886L122.754 478.017ZM130.374 474.08C130.969 473.504 130.986 472.554 130.41 471.959C129.834 471.363 128.884 471.347 128.289 471.923L130.374 474.08ZM134.565 466.598C133.9 467.092 133.761 468.031 134.255 468.696C134.749 469.362 135.689 469.5 136.354 469.006L134.565 466.598ZM142.94 464.747C143.663 464.343 143.921 463.429 143.517 462.706C143.113 461.983 142.199 461.724 141.476 462.128L142.94 464.747ZM148.904 458.583C148.135 458.891 147.761 459.765 148.069 460.534C148.377 461.303 149.251 461.676 150.02 461.368L148.904 458.583ZM157.474 458.923C158.276 458.716 158.758 457.898 158.551 457.096C158.344 456.294 157.526 455.812 156.724 456.019L157.474 458.923ZM164.808 454.476C163.986 454.579 163.403 455.328 163.505 456.151C163.608 456.973 164.358 457.556 165.18 457.453L164.808 454.476ZM173.009 456.985C173.838 456.989 174.513 456.321 174.517 455.492C174.521 454.664 173.852 453.989 173.024 453.985L173.009 456.985ZM181.235 454.559C180.414 454.448 179.658 455.023 179.547 455.844C179.436 456.665 180.011 457.42 180.832 457.532L181.235 454.559ZM188.52 459.087C189.319 459.304 190.143 458.831 190.36 458.032C190.576 457.232 190.104 456.408 189.304 456.192L188.52 459.087ZM197.091 458.852C196.326 458.534 195.449 458.897 195.131 459.662C194.813 460.427 195.176 461.305 195.941 461.623L197.091 458.852ZM203.213 465.061C203.956 465.426 204.855 465.12 205.221 464.377C205.586 463.633 205.28 462.734 204.537 462.369L203.213 465.061ZM211.923 466.002C211.18 465.636 210.281 465.943 209.915 466.686C209.55 467.429 209.856 468.328 210.599 468.694L211.923 466.002ZM217.986 472.327C218.729 472.693 219.628 472.387 219.994 471.643C220.359 470.9 220.053 470.001 219.31 469.635L217.986 472.327ZM226.696 473.269C225.953 472.903 225.054 473.209 224.688 473.953C224.322 474.696 224.629 475.595 225.372 475.961L226.696 473.269ZM232.758 479.594C233.502 479.96 234.401 479.654 234.767 478.91C235.132 478.167 234.826 477.268 234.083 476.902L232.758 479.594ZM241.469 480.536C240.726 480.17 239.827 480.476 239.461 481.219C239.095 481.963 239.402 482.862 240.145 483.227L241.469 480.536ZM247.531 486.861C248.275 487.227 249.174 486.92 249.539 486.177C249.905 485.434 249.599 484.535 248.855 484.169L247.531 486.861ZM256.242 487.802C255.499 487.437 254.6 487.743 254.234 488.486C253.868 489.23 254.174 490.129 254.918 490.494L256.242 487.802ZM262.304 494.128C263.048 494.493 263.947 494.187 264.312 493.444C264.678 492.7 264.372 491.801 263.628 491.436L262.304 494.128ZM271.015 495.069C270.271 494.703 269.372 495.01 269.007 495.753C268.641 496.496 268.947 497.395 269.691 497.761L271.015 495.069ZM277.077 501.394C277.82 501.76 278.719 501.454 279.085 500.71C279.451 499.967 279.145 499.068 278.401 498.702L277.077 501.394ZM285.788 502.336C285.044 501.97 284.145 502.276 283.78 503.02C283.414 503.763 283.72 504.662 284.463 505.028L285.788 502.336ZM291.85 508.661C292.593 509.027 293.492 508.721 293.858 507.977C294.224 507.234 293.917 506.335 293.174 505.969L291.85 508.661ZM300.56 509.603C299.817 509.237 298.918 509.543 298.552 510.286C298.187 511.03 298.493 511.929 299.236 512.294L300.56 509.603ZM306.623 515.928C307.366 516.294 308.265 515.987 308.631 515.244C308.996 514.501 308.69 513.602 307.947 513.236L306.623 515.928ZM315.333 516.869C314.59 516.504 313.691 516.81 313.325 517.553C312.96 518.297 313.266 519.196 314.009 519.561L315.333 516.869ZM321.396 523.195C322.139 523.56 323.038 523.254 323.404 522.511C323.769 521.767 323.463 520.868 322.72 520.503L321.396 523.195ZM330.106 524.136C329.363 523.77 328.464 524.077 328.098 524.82C327.732 525.563 328.039 526.462 328.782 526.828L330.106 524.136ZM336.168 530.461C336.912 530.827 337.811 530.521 338.176 529.778C338.542 529.034 338.236 528.135 337.493 527.769L336.168 530.461ZM344.879 531.403C344.136 531.037 343.237 531.343 342.871 532.087C342.505 532.83 342.811 533.729 343.555 534.095L344.879 531.403ZM350.941 537.728C351.685 538.094 352.584 537.788 352.949 537.044C353.315 536.301 353.009 535.402 352.265 535.036L350.941 537.728ZM359.652 538.67C358.909 538.304 358.009 538.61 357.644 539.354C357.278 540.097 357.584 540.996 358.328 541.362L359.652 538.67ZM365.714 544.995C366.457 545.361 367.357 545.054 367.722 544.311C368.088 543.568 367.782 542.669 367.038 542.303L365.714 544.995ZM374.425 545.936C373.681 545.571 372.782 545.877 372.417 546.62C372.051 547.364 372.357 548.263 373.101 548.628L374.425 545.936ZM380.487 552.262C381.23 552.627 382.129 552.321 382.495 551.578C382.861 550.834 382.554 549.935 381.811 549.57L380.487 552.262ZM389.198 553.203C388.454 552.837 387.555 553.144 387.189 553.887C386.824 554.63 387.13 555.529 387.873 555.895L389.198 553.203ZM395.26 559.528C396.003 559.894 396.902 559.588 397.268 558.845C397.634 558.101 397.327 557.202 396.584 556.836L395.26 559.528ZM403.97 560.47C403.227 560.104 402.328 560.41 401.962 561.154C401.597 561.897 401.903 562.796 402.646 563.162L403.97 560.47ZM410.033 566.795C410.776 567.161 411.675 566.855 412.041 566.111C412.406 565.368 412.1 564.469 411.357 564.103L410.033 566.795ZM418.743 567.737C418 567.371 417.101 567.677 416.735 568.421C416.37 569.164 416.676 570.063 417.419 570.429L418.743 567.737ZM424.806 574.062C425.549 574.428 426.448 574.121 426.814 573.378C427.179 572.635 426.873 571.736 426.13 571.37L424.806 574.062ZM433.516 575.003C432.773 574.638 431.874 574.944 431.508 575.687C431.142 576.431 431.449 577.33 432.192 577.695L433.516 575.003ZM439.681 581.283C440.439 581.618 441.324 581.275 441.659 580.517C441.994 579.759 441.651 578.874 440.893 578.539L439.681 581.283ZM448.454 581.513C447.671 581.242 446.817 581.657 446.546 582.439C446.275 583.222 446.69 584.077 447.472 584.348L448.454 581.513ZM455.492 586.76C456.294 586.965 457.111 586.481 457.317 585.679C457.523 584.876 457.039 584.059 456.236 583.854L455.492 586.76ZM464.184 585.544C463.367 585.405 462.593 585.955 462.454 586.771C462.315 587.588 462.865 588.363 463.681 588.501L464.184 585.544ZM471.987 589.562C472.812 589.633 473.539 589.021 473.61 588.196C473.681 587.37 473.069 586.644 472.244 586.573L471.987 589.562ZM480.362 586.934C479.533 586.931 478.86 587.601 478.857 588.429C478.854 589.258 479.524 589.931 480.352 589.934L480.362 586.934ZM488.719 589.616C489.545 589.551 490.161 588.828 490.096 588.002C490.03 587.176 489.308 586.56 488.482 586.626L488.719 589.616ZM496.549 585.649C495.731 585.783 495.177 586.554 495.31 587.371C495.443 588.189 496.214 588.744 497.032 588.61L496.549 585.649ZM505.233 586.923C506.037 586.723 506.526 585.909 506.326 585.105C506.126 584.301 505.312 583.812 504.508 584.012L505.233 586.923ZM512.304 581.724C511.52 581.99 511.099 582.841 511.365 583.626C511.631 584.41 512.483 584.831 513.267 584.565L512.304 581.724ZM521.08 581.552C521.84 581.222 522.189 580.339 521.859 579.579C521.53 578.819 520.646 578.47 519.886 578.8L521.08 581.552ZM527.2 575.261C526.47 575.652 526.195 576.561 526.586 577.291C526.977 578.021 527.887 578.296 528.617 577.905L527.2 575.261ZM535.734 573.805C536.448 573.384 536.685 572.465 536.264 571.751C535.843 571.038 534.923 570.801 534.21 571.222L535.734 573.805ZM541.143 567.13C540.43 567.551 540.193 568.471 540.614 569.184C541.035 569.898 541.955 570.135 542.668 569.714L541.143 567.13ZM549.602 565.623C550.315 565.202 550.552 564.282 550.131 563.568C549.71 562.855 548.791 562.618 548.077 563.039L549.602 565.623ZM555.011 558.947C554.298 559.368 554.06 560.288 554.482 561.002C554.903 561.715 555.822 561.952 556.536 561.531L555.011 558.947ZM563.469 557.44C564.183 557.019 564.42 556.099 563.999 555.386C563.578 554.672 562.658 554.435 561.945 554.856L563.469 557.44ZM568.879 550.765C568.165 551.186 567.928 552.105 568.349 552.819C568.77 553.532 569.69 553.769 570.403 553.348L568.879 550.765ZM577.337 549.257C578.051 548.836 578.288 547.916 577.867 547.203C577.446 546.489 576.526 546.252 575.812 546.673L577.337 549.257ZM582.746 542.582C582.033 543.003 581.796 543.923 582.217 544.636C582.638 545.35 583.557 545.587 584.271 545.166L582.746 542.582ZM591.205 541.074C591.918 540.653 592.155 539.734 591.734 539.02C591.313 538.307 590.394 538.07 589.68 538.491L591.205 541.074ZM596.614 534.399C595.9 534.82 595.663 535.74 596.084 536.453C596.505 537.167 597.425 537.404 598.138 536.983L596.614 534.399ZM605.072 532.892C605.786 532.471 606.023 531.551 605.602 530.837C605.181 530.124 604.261 529.887 603.548 530.308L605.072 532.892ZM610.482 526.216C609.768 526.637 609.531 527.557 609.952 528.271C610.373 528.984 611.293 529.221 612.006 528.8L610.482 526.216ZM618.94 524.709C619.653 524.288 619.891 523.368 619.469 522.655C619.049 521.941 618.129 521.704 617.415 522.125L618.94 524.709ZM624.349 518.034C623.636 518.455 623.399 519.374 623.82 520.088C624.241 520.801 625.16 521.038 625.874 520.617L624.349 518.034ZM632.807 516.526C633.521 516.105 633.758 515.185 633.337 514.472C632.916 513.758 631.996 513.521 631.283 513.942L632.807 516.526ZM638.217 509.851C637.503 510.272 637.266 511.192 637.687 511.905C638.108 512.619 639.028 512.856 639.741 512.435L638.217 509.851ZM646.675 508.343C647.389 507.922 647.626 507.003 647.205 506.289C646.784 505.576 645.864 505.339 645.151 505.76L646.675 508.343ZM652.084 501.668C651.371 502.089 651.134 503.009 651.555 503.722C651.976 504.436 652.895 504.673 653.609 504.252L652.084 501.668ZM660.543 500.161C661.256 499.74 661.493 498.82 661.072 498.106C660.651 497.393 659.732 497.156 659.018 497.577L660.543 500.161ZM665.952 493.485C665.239 493.906 665.001 494.826 665.422 495.54C665.843 496.253 666.763 496.49 667.477 496.069L665.952 493.485ZM674.41 491.978C675.124 491.557 675.361 490.637 674.94 489.924C674.519 489.21 673.599 488.973 672.886 489.394L674.41 491.978ZM679.82 485.303C679.106 485.724 678.869 486.643 679.29 487.357C679.711 488.07 680.631 488.307 681.344 487.886L679.82 485.303ZM688.278 483.795C688.991 483.374 689.229 482.454 688.808 481.741C688.387 481.027 687.467 480.79 686.753 481.211L688.278 483.795ZM693.687 477.12C692.974 477.541 692.737 478.461 693.158 479.174C693.579 479.888 694.498 480.125 695.212 479.704L693.687 477.12ZM702.146 475.612C702.859 475.191 703.096 474.272 702.675 473.558C702.254 472.845 701.335 472.608 700.621 473.029L702.146 475.612ZM707.555 468.937C706.841 469.358 706.604 470.278 707.025 470.991C707.446 471.705 708.366 471.942 709.079 471.521L707.555 468.937ZM716.013 467.43C716.727 467.009 716.964 466.089 716.543 465.375C716.122 464.662 715.202 464.425 714.489 464.846L716.013 467.43ZM721.422 460.754C720.709 461.175 720.472 462.095 720.893 462.809C721.314 463.522 722.234 463.759 722.947 463.338L721.422 460.754ZM729.881 459.247C730.594 458.826 730.831 457.906 730.41 457.193C729.989 456.479 729.07 456.242 728.356 456.663L729.881 459.247ZM735.29 452.572C734.577 452.993 734.339 453.912 734.76 454.626C735.181 455.339 736.101 455.576 736.815 455.155L735.29 452.572ZM743.748 451.064C744.462 450.643 744.699 449.723 744.278 449.01C743.857 448.296 742.937 448.059 742.224 448.48L743.748 451.064ZM749.158 444.389C748.444 444.81 748.207 445.73 748.628 446.443C749.049 447.157 749.969 447.394 750.682 446.973L749.158 444.389ZM757.616 442.881C758.33 442.46 758.567 441.541 758.146 440.827C757.725 440.114 756.805 439.877 756.091 440.298L757.616 442.881ZM763.025 436.206C762.312 436.627 762.075 437.547 762.496 438.26C762.917 438.974 763.836 439.211 764.55 438.79L763.025 436.206ZM771.484 434.699C772.197 434.278 772.434 433.358 772.013 432.644C771.592 431.931 770.673 431.694 769.959 432.115L771.484 434.699ZM776.893 428.023C776.179 428.444 775.942 429.364 776.363 430.078C776.784 430.791 777.704 431.028 778.417 430.607L776.893 428.023ZM784.904 426.885C785.638 426.502 785.923 425.596 785.54 424.861C785.157 424.127 784.251 423.842 783.517 424.225L784.904 426.885ZM790.084 421.227C789.314 421.531 788.936 422.402 789.24 423.173C789.543 423.943 790.415 424.322 791.185 424.018L790.084 421.227ZM797.733 421.825C798.531 421.603 798.998 420.776 798.777 419.978C798.555 419.18 797.729 418.712 796.93 418.934L797.733 421.825ZM803.978 417.371C803.161 417.508 802.61 418.281 802.747 419.098C802.883 419.915 803.657 420.466 804.474 420.33L803.978 417.371ZM811.334 419.548C812.161 419.498 812.791 418.787 812.74 417.96C812.69 417.133 811.978 416.504 811.152 416.554L811.334 419.548ZM818.371 416.493C817.543 416.456 816.843 417.098 816.806 417.925C816.77 418.753 817.411 419.454 818.239 419.49L818.371 416.493ZM825.112 420.155C825.931 420.278 826.695 419.714 826.818 418.894C826.94 418.075 826.376 417.311 825.557 417.188L825.112 420.155ZM832.63 418.633C831.829 418.425 831.01 418.906 830.802 419.708C830.594 420.51 831.075 421.329 831.877 421.537L832.63 418.633ZM839.031 423.823C839.805 424.116 840.671 423.726 840.965 422.952C841.258 422.177 840.868 421.311 840.094 421.018L839.031 423.823ZM847.773 424.448C847.038 424.066 846.132 424.352 845.75 425.088C845.368 425.823 845.655 426.728 846.39 427.11L847.773 424.448ZM853.303 431.257C853.986 431.726 854.92 431.553 855.389 430.871C855.858 430.188 855.685 429.254 855.003 428.785L853.303 431.257ZM861.634 433.989C861.016 433.437 860.067 433.49 859.516 434.108C858.964 434.726 859.017 435.674 859.635 436.226L861.634 433.989ZM865.283 441.959C865.826 442.585 866.773 442.653 867.399 442.111C868.025 441.568 868.093 440.621 867.551 439.995L865.283 441.959ZM872.657 446.709C872.198 446.019 871.267 445.832 870.577 446.29C869.887 446.749 869.7 447.68 870.158 448.37L872.657 446.709ZM874.187 455.343C874.556 456.084 875.457 456.387 876.199 456.018C876.94 455.649 877.242 454.748 876.873 454.006L874.187 455.343ZM880.157 461.768C879.881 460.986 879.024 460.576 878.243 460.852C877.462 461.128 877.052 461.984 877.327 462.766L880.157 461.768ZM879.548 470.518C879.728 471.326 880.53 471.836 881.338 471.656C882.147 471.476 882.656 470.674 882.476 469.865L879.548 470.518ZM883.817 478.179C883.733 477.355 882.998 476.754 882.173 476.837C881.349 476.921 880.749 477.656 880.832 478.481L883.817 478.179ZM881.17 486.541C881.156 487.369 881.816 488.052 882.644 488.066C883.472 488.08 884.155 487.42 884.169 486.592L881.17 486.541ZM883.529 494.988C883.641 494.168 883.066 493.411 882.245 493.3C881.424 493.188 880.668 493.763 880.557 494.583L883.529 494.988ZM878.992 502.494C878.783 503.296 879.263 504.115 880.065 504.324C880.866 504.534 881.686 504.053 881.895 503.252L878.992 502.494ZM879.273 511.261C879.578 510.491 879.202 509.619 878.432 509.313C877.662 509.007 876.79 509.384 876.484 510.154L879.273 511.261ZM873.053 517.439C872.654 518.165 872.918 519.077 873.644 519.476C874.37 519.876 875.282 519.611 875.681 518.885L873.053 517.439ZM871.155 526.003C871.643 525.334 871.496 524.395 870.827 523.907C870.158 523.419 869.219 523.566 868.731 524.235L871.155 526.003ZM863.583 530.421C863.013 531.022 863.039 531.972 863.641 532.541C864.242 533.111 865.192 533.085 865.761 532.483L863.583 530.421ZM859.589 538.224C860.23 537.699 860.324 536.754 859.799 536.113C859.275 535.472 858.33 535.378 857.689 535.902L859.589 538.224ZM851.146 540.613C850.446 541.055 850.236 541.981 850.678 542.682C851.12 543.383 852.047 543.592 852.747 543.15L851.146 540.613ZM845.382 547.211C846.13 546.854 846.446 545.958 846.088 545.211C845.731 544.463 844.836 544.147 844.088 544.505L845.382 547.211ZM837.107 547.497C836.341 547.812 835.975 548.689 836.29 549.455C836.605 550.221 837.482 550.587 838.248 550.272L837.107 547.497ZM831.705 552.962C832.471 552.647 832.837 551.77 832.522 551.004C832.207 550.238 831.331 549.872 830.564 550.187L831.705 552.962ZM824.022 552.877C823.256 553.193 822.89 554.069 823.205 554.835C823.52 555.601 824.396 555.967 825.163 555.652L824.022 552.877ZM818.62 558.342C819.386 558.027 819.752 557.151 819.437 556.385C819.122 555.618 818.245 555.253 817.479 555.568L818.62 558.342ZM810.937 558.258C810.17 558.573 809.805 559.449 810.12 560.216C810.435 560.982 811.311 561.347 812.077 561.032L810.937 558.258ZM805.535 563.723C806.301 563.408 806.667 562.531 806.352 561.765C806.037 560.999 805.16 560.633 804.394 560.948L805.535 563.723ZM797.851 563.638C797.085 563.953 796.72 564.83 797.035 565.596C797.35 566.362 798.226 566.728 798.992 566.413L797.851 563.638ZM792.45 569.103C793.216 568.788 793.582 567.911 793.267 567.145C792.952 566.379 792.075 566.013 791.309 566.328L792.45 569.103ZM784.55 569.022C783.771 569.304 783.369 570.164 783.651 570.943C783.933 571.722 784.793 572.124 785.572 571.842L784.55 569.022ZM778.2 574.16C779.001 573.946 779.476 573.123 779.262 572.323C779.047 571.523 778.225 571.048 777.425 571.262L778.2 574.16ZM770.136 572.878C769.321 573.022 768.776 573.801 768.92 574.616C769.064 575.432 769.842 575.977 770.658 575.833L770.136 572.878ZM763 576.844C763.825 576.771 764.435 576.043 764.362 575.218C764.29 574.393 763.562 573.783 762.737 573.855L763 576.844ZM755.278 574.185C754.449 574.186 753.778 574.858 753.779 575.686C753.779 576.515 754.451 577.186 755.279 577.185L755.278 574.185ZM747.559 576.855C748.384 576.926 749.111 576.315 749.183 575.489C749.254 574.664 748.643 573.937 747.817 573.866L747.559 576.855ZM740.413 572.901C739.597 572.759 738.82 573.305 738.678 574.121C738.535 574.937 739.081 575.714 739.898 575.857L740.413 572.901ZM732.351 574.201C733.152 574.413 733.973 573.936 734.186 573.136C734.398 572.335 733.921 571.514 733.12 571.301L732.351 574.201ZM725.99 569.08C725.211 568.8 724.352 569.204 724.072 569.984C723.791 570.764 724.196 571.623 724.976 571.903L725.99 569.08ZM717.824 568.98C718.577 569.326 719.468 568.996 719.814 568.244C720.16 567.491 719.83 566.6 719.078 566.254L717.824 568.98ZM712.434 562.846C711.714 562.436 710.798 562.688 710.388 563.408C709.979 564.128 710.231 565.044 710.951 565.453L712.434 562.846ZM704.406 561.349C705.088 561.819 706.022 561.647 706.492 560.964C706.962 560.282 706.79 559.348 706.108 558.878L704.406 561.349ZM700.148 554.38C699.509 553.853 698.564 553.943 698.037 554.582C697.509 555.221 697.6 556.167 698.239 556.694L700.148 554.38ZM692.498 551.522C693.088 552.103 694.038 552.094 694.619 551.504C695.2 550.913 695.191 549.963 694.6 549.382L692.498 551.522ZM689.508 543.922C688.97 543.292 688.023 543.218 687.393 543.756C686.763 544.294 686.689 545.241 687.227 545.87L689.508 543.922ZM682.47 539.784C682.951 540.458 683.888 540.615 684.562 540.133C685.237 539.652 685.393 538.715 684.912 538.041L682.47 539.784ZM680.843 531.782C680.422 531.069 679.502 530.832 678.788 531.253C678.075 531.674 677.838 532.594 678.259 533.307L680.843 531.782ZM674.622 526.489C674.98 527.236 675.876 527.551 676.623 527.193C677.37 526.835 677.685 525.939 677.327 525.192L674.622 526.489ZM674.057 517.758C673.731 516.996 672.849 516.643 672.087 516.969C671.326 517.296 670.973 518.177 671.299 518.939L674.057 517.758ZM667.848 510.88C668.174 511.642 669.056 511.995 669.817 511.669C670.579 511.342 670.932 510.461 670.606 509.699L667.848 510.88ZM667.381 501.97C667.085 501.196 666.218 500.809 665.444 501.104C664.671 501.4 664.283 502.267 664.579 503.041L667.381 501.97ZM661.958 495.277C662.192 496.072 663.025 496.527 663.82 496.294C664.615 496.061 665.07 495.227 664.837 494.432L661.958 495.277ZM662.903 486.704C662.735 485.893 661.941 485.372 661.13 485.541C660.319 485.709 659.798 486.503 659.966 487.314L662.903 486.704ZM658.628 479.225C658.73 480.047 659.479 480.631 660.301 480.529C661.123 480.428 661.707 479.679 661.606 478.857L658.628 479.225ZM660.953 470.922C660.918 470.094 660.22 469.451 659.392 469.485C658.564 469.519 657.921 470.218 657.955 471.046L660.953 470.922ZM657.953 462.843C657.919 463.671 658.563 464.369 659.391 464.403C660.219 464.436 660.917 463.793 660.95 462.965L657.953 462.843ZM661.598 455.031C661.699 454.209 661.114 453.461 660.292 453.36C659.469 453.259 658.721 453.844 658.62 454.666L661.598 455.031ZM659.949 446.571C659.782 447.383 660.304 448.176 661.115 448.343C661.927 448.511 662.72 447.988 662.887 447.177L659.949 446.571ZM664.808 439.452C665.04 438.656 664.583 437.824 663.788 437.591C662.993 437.359 662.16 437.816 661.928 438.611L664.808 439.452ZM664.541 430.836C664.245 431.61 664.634 432.477 665.408 432.772C666.182 433.067 667.048 432.679 667.344 431.905L664.541 430.836ZM670.476 424.586C670.832 423.838 670.514 422.943 669.766 422.587C669.018 422.23 668.123 422.548 667.767 423.296L670.476 424.586ZM671.587 416.038C671.172 416.755 671.417 417.673 672.134 418.087C672.851 418.502 673.769 418.257 674.184 417.54L671.587 416.038ZM678.442 410.813C678.913 410.132 678.742 409.198 678.061 408.727C677.379 408.256 676.445 408.427 675.974 409.108L678.442 410.813ZM680.903 402.552C680.379 403.194 680.474 404.139 681.116 404.663C681.757 405.187 682.702 405.092 683.226 404.45L680.903 402.552ZM688.506 398.492C689.08 397.895 689.061 396.945 688.464 396.371C687.867 395.797 686.917 395.816 686.343 396.414L688.506 398.492ZM692.262 390.734C691.641 391.283 691.583 392.231 692.132 392.852C692.681 393.472 693.629 393.53 694.249 392.981L692.262 390.734ZM700.421 387.955C701.085 387.459 701.22 386.519 700.723 385.856C700.227 385.192 699.287 385.057 698.624 385.554L700.421 387.955ZM705.385 380.91C704.684 381.351 704.472 382.277 704.913 382.979C705.354 383.68 706.28 383.892 706.981 383.451L705.385 380.91ZM713.891 379.496C714.626 379.114 714.912 378.209 714.531 377.474C714.149 376.738 713.243 376.452 712.508 376.834L713.891 379.496ZM719.933 373.355C719.169 373.676 718.81 374.555 719.13 375.319C719.451 376.083 720.33 376.442 721.094 376.121L719.933 373.355ZM728.558 373.339C729.345 373.081 729.774 372.234 729.517 371.447C729.259 370.659 728.412 370.23 727.624 370.488L728.558 373.339ZM735.508 368.251C734.702 368.445 734.207 369.256 734.401 370.061C734.596 370.866 735.406 371.362 736.211 371.167L735.508 368.251ZM744.171 369.495C744.984 369.333 745.511 368.543 745.348 367.73C745.186 366.918 744.395 366.391 743.583 366.554L744.171 369.495ZM751.706 364.929C750.894 365.092 750.367 365.882 750.529 366.694C750.692 367.506 751.482 368.033 752.295 367.871L751.706 364.929ZM760.418 366.246C761.23 366.084 761.757 365.293 761.594 364.481C761.432 363.669 760.642 363.142 759.829 363.304L760.418 366.246ZM767.952 361.68C767.14 361.842 766.613 362.633 766.776 363.445C766.938 364.257 767.728 364.784 768.541 364.622L767.952 361.68ZM776.664 362.997C777.476 362.834 778.003 362.044 777.841 361.232C777.678 360.42 776.888 359.893 776.076 360.055L776.664 362.997ZM784.199 358.431C783.386 358.593 782.859 359.383 783.022 360.196C783.184 361.008 783.975 361.535 784.787 361.372L784.199 358.431ZM792.91 359.748C793.722 359.585 794.249 358.795 794.087 357.983C793.924 357.17 793.134 356.643 792.322 356.806L792.91 359.748ZM800.445 355.181C799.633 355.344 799.106 356.134 799.268 356.946C799.431 357.759 800.221 358.286 801.033 358.123L800.445 355.181ZM809.156 356.498C809.969 356.336 810.495 355.546 810.333 354.733C810.171 353.921 809.38 353.394 808.568 353.557L809.156 356.498ZM816.691 351.932C815.879 352.095 815.352 352.885 815.514 353.697C815.677 354.509 816.467 355.036 817.279 354.874L816.691 351.932ZM825.403 353.249C826.215 353.087 826.742 352.296 826.579 351.484C826.417 350.672 825.627 350.145 824.814 350.307L825.403 353.249ZM832.937 348.683C832.125 348.845 831.598 349.636 831.761 350.448C831.923 351.26 832.713 351.787 833.526 351.625L832.937 348.683ZM841.649 350C842.461 349.837 842.988 349.047 842.825 348.235C842.663 347.423 841.873 346.896 841.06 347.058L841.649 350ZM849.184 345.434C848.371 345.596 847.844 346.386 848.007 347.199C848.169 348.011 848.96 348.538 849.772 348.375L849.184 345.434ZM857.895 346.751C858.707 346.588 859.234 345.798 859.072 344.986C858.909 344.173 858.119 343.646 857.307 343.809L857.895 346.751ZM865.43 342.184C864.617 342.347 864.091 343.137 864.253 343.949C864.416 344.762 865.206 345.289 866.018 345.126L865.43 342.184ZM874.141 343.501C874.954 343.339 875.48 342.549 875.318 341.736C875.155 340.924 874.365 340.397 873.553 340.56L874.141 343.501ZM881.676 338.935C880.864 339.098 880.337 339.888 880.499 340.7C880.662 341.512 881.452 342.039 882.264 341.877L881.676 338.935ZM890.387 340.252C891.2 340.09 891.727 339.299 891.564 338.487C891.402 337.675 890.611 337.148 889.799 337.31L890.387 340.252ZM897.922 335.686C897.11 335.848 896.583 336.639 896.746 337.451C896.908 338.263 897.698 338.79 898.511 338.628L897.922 335.686ZM906.634 337.003C907.446 336.841 907.973 336.05 907.81 335.238C907.648 334.426 906.858 333.899 906.045 334.061L906.634 337.003ZM914.168 332.437C913.356 332.599 912.829 333.389 912.992 334.202C913.154 335.014 913.944 335.541 914.757 335.378L914.168 332.437ZM922.88 333.754C923.692 333.591 924.219 332.801 924.057 331.989C923.894 331.176 923.104 330.65 922.292 330.812L922.88 333.754ZM930.415 329.187C929.602 329.35 929.076 330.14 929.238 330.952C929.4 331.765 930.191 332.292 931.003 332.129L930.415 329.187ZM938.809 330.667C939.629 330.546 940.195 329.784 940.074 328.964C939.954 328.145 939.191 327.578 938.372 327.699L938.809 330.667ZM946.239 326.949C945.411 326.985 944.77 327.686 944.806 328.513C944.842 329.341 945.542 329.983 946.37 329.946L946.239 326.949ZM953.965 330.004C954.792 330.053 955.502 329.422 955.55 328.595C955.599 327.768 954.968 327.058 954.141 327.009L953.965 330.004ZM961.997 327.878C961.179 327.745 960.408 328.3 960.275 329.117C960.142 329.935 960.697 330.706 961.514 330.839L961.997 327.878ZM968.939 332.442C969.739 332.659 970.562 332.185 970.778 331.386C970.994 330.586 970.521 329.762 969.721 329.546L968.939 332.442ZM977.235 331.995C976.462 331.699 975.594 332.085 975.297 332.859C975.001 333.632 975.387 334.5 976.161 334.796L977.235 331.995ZM983.104 337.876C983.843 338.25 984.746 337.955 985.12 337.216C985.494 336.476 985.198 335.574 984.459 335.2L983.104 337.876ZM991.318 339.127C990.621 338.679 989.693 338.88 989.245 339.577C988.797 340.274 988.999 341.202 989.696 341.65L991.318 339.127ZM995.866 346.079C996.513 346.596 997.457 346.49 997.974 345.843C998.491 345.196 998.385 344.252 997.738 343.735L995.866 346.079ZM1003.65 348.977C1003.06 348.396 1002.11 348.405 1001.53 348.996C1000.95 349.587 1000.96 350.536 1001.55 351.117L1003.65 348.977ZM1006.83 356.715C1007.39 357.325 1008.34 357.365 1008.95 356.805C1009.56 356.244 1009.6 355.295 1009.04 354.685L1006.83 356.715ZM1014.3 360.419C1013.74 359.809 1012.8 359.769 1012.19 360.33C1011.58 360.89 1011.54 361.839 1012.1 362.449L1014.3 360.419ZM1017.37 368.183C1017.93 368.793 1018.88 368.833 1019.48 368.272C1020.09 367.712 1020.14 366.763 1019.57 366.153L1017.37 368.183ZM1024.84 371.887C1024.28 371.277 1023.33 371.237 1022.72 371.797C1022.11 372.358 1022.07 373.307 1022.64 373.917L1024.84 371.887ZM1027.9 379.65C1028.47 380.26 1029.41 380.3 1030.02 379.74C1030.63 379.179 1030.67 378.23 1030.11 377.62L1027.9 379.65ZM1035.38 383.354C1034.82 382.744 1033.87 382.704 1033.26 383.265C1032.65 383.825 1032.61 384.774 1033.17 385.384L1035.38 383.354ZM1038.77 391.216C1039.38 391.778 1040.32 391.74 1040.89 391.132C1041.45 390.523 1041.41 389.574 1040.8 389.012L1038.77 391.216ZM1047 393.832C1046.31 393.382 1045.38 393.58 1044.93 394.276C1044.48 394.971 1044.68 395.9 1045.37 396.35L1047 393.832ZM1052.77 400.272C1053.53 400.595 1054.41 400.238 1054.74 399.475C1055.06 398.712 1054.7 397.832 1053.94 397.509L1052.77 400.272ZM1061.41 399.923C1060.6 399.737 1059.79 400.242 1059.61 401.049C1059.42 401.857 1059.93 402.661 1060.74 402.847L1061.41 399.923ZM1069.02 404.009C1069.85 404.054 1070.56 403.419 1070.6 402.592C1070.65 401.765 1070.01 401.058 1069.18 401.014L1069.02 404.009ZM1077.04 400.769C1076.22 400.864 1075.63 401.609 1075.72 402.432C1075.82 403.255 1076.56 403.844 1077.38 403.749L1077.04 400.769ZM1085.58 402.09C1086.38 401.858 1086.83 401.025 1086.6 400.23C1086.37 399.435 1085.54 398.978 1084.74 399.21L1085.58 402.09ZM1092.07 396.381C1091.33 396.744 1091.02 397.641 1091.38 398.386C1091.74 399.131 1092.64 399.441 1093.39 399.078L1092.07 396.381ZM1100.57 394.785C1101.24 394.3 1101.39 393.362 1100.91 392.691C1100.43 392.019 1099.49 391.867 1098.82 392.352L1100.57 394.785ZM1104.76 387.224C1104.18 387.818 1104.19 388.768 1104.79 389.345C1105.38 389.923 1106.33 389.91 1106.91 389.316L1104.76 387.224ZM1112.2 382.826C1112.66 382.14 1112.49 381.207 1111.8 380.742C1111.11 380.277 1110.18 380.455 1109.72 381.14L1112.2 382.826ZM1113.56 374.288C1113.21 375.042 1113.55 375.931 1114.3 376.273C1115.06 376.616 1115.95 376.282 1116.29 375.527L1113.56 374.288ZM1119.47 367.723C1119.82 366.972 1119.49 366.08 1118.74 365.73C1117.99 365.381 1117.1 365.707 1116.75 366.458L1119.47 367.723ZM1121.29 358.666C1120.81 359.34 1120.97 360.277 1121.64 360.758C1122.31 361.24 1123.25 361.084 1123.73 360.41L1121.29 358.666ZM1129.27 354.011C1129.87 353.437 1129.89 352.488 1129.32 351.89C1128.74 351.292 1127.79 351.272 1127.19 351.846L1129.27 354.011ZM1134.25 346.229C1133.56 346.683 1133.36 347.613 1133.82 348.306C1134.27 348.999 1135.2 349.192 1135.9 348.738L1134.25 346.229ZM1143.37 344.766C1144.14 344.446 1144.5 343.567 1144.18 342.803C1143.86 342.039 1142.98 341.679 1142.21 341.999L1143.37 344.766ZM1150.82 339.297C1150.01 339.471 1149.49 340.269 1149.67 341.079C1149.84 341.889 1150.64 342.404 1151.45 342.23L1150.82 339.297ZM1159.85 341.223C1160.68 341.201 1161.33 340.512 1161.31 339.683C1161.29 338.855 1160.6 338.202 1159.77 338.224L1159.85 341.223ZM1168.77 338.821C1167.95 338.69 1167.19 339.247 1167.05 340.065C1166.92 340.883 1167.48 341.653 1168.3 341.784L1168.77 338.821ZM1177.02 343.814C1177.82 344.019 1178.64 343.535 1178.85 342.732C1179.05 341.93 1178.57 341.113 1177.76 340.907L1177.02 343.814ZM1186.91 343.245C1186.1 343.04 1185.29 343.524 1185.08 344.326C1184.88 345.129 1185.36 345.946 1186.16 346.151L1186.91 343.245ZM1195.3 348.489C1196.11 348.694 1196.92 348.209 1197.13 347.407C1197.33 346.604 1196.85 345.787 1196.05 345.582L1195.3 348.489ZM1205.19 347.919C1204.39 347.714 1203.57 348.198 1203.36 349.001C1203.16 349.804 1203.64 350.621 1204.45 350.826L1205.19 347.919ZM1213 352.918C1213.81 353.088 1214.61 352.567 1214.77 351.756C1214.94 350.945 1214.42 350.151 1213.61 349.982L1213 352.918ZM1221.42 351.245C1220.59 351.15 1219.85 351.74 1219.75 352.563C1219.66 353.386 1220.25 354.13 1221.07 354.225L1221.42 351.245ZM1229.23 354.797C1230.05 354.817 1230.74 354.162 1230.76 353.334C1230.78 352.506 1230.13 351.818 1229.3 351.798L1229.23 354.797ZM1237.2 351.632C1236.37 351.687 1235.75 352.402 1235.8 353.229C1235.86 354.055 1236.57 354.681 1237.4 354.626L1237.2 351.632ZM1245.52 353.712C1246.34 353.583 1246.9 352.814 1246.77 351.996C1246.64 351.178 1245.87 350.62 1245.05 350.749L1245.52 353.712ZM1252.79 349.158C1251.99 349.362 1251.5 350.178 1251.71 350.981C1251.91 351.784 1252.73 352.27 1253.53 352.066L1252.79 349.158ZM1261.36 349.703C1262.14 349.428 1262.55 348.572 1262.27 347.79C1262 347.009 1261.14 346.599 1260.36 346.874L1261.36 349.703ZM1267.69 343.916C1266.94 344.26 1266.6 345.15 1266.95 345.904C1267.29 346.657 1268.18 346.989 1268.94 346.645L1267.69 343.916ZM1276.21 342.916C1276.93 342.505 1277.18 341.589 1276.77 340.87C1276.36 340.15 1275.44 339.9 1274.72 340.311L1276.21 342.916ZM1281.4 336.087C1280.72 336.561 1280.56 337.496 1281.03 338.175C1281.5 338.855 1282.44 339.022 1283.12 338.548L1281.4 336.087ZM1289.61 333.574C1290.24 333.041 1290.32 332.095 1289.79 331.461C1289.26 330.827 1288.31 330.745 1287.68 331.278L1289.61 333.574ZM1293.49 325.923C1292.9 326.511 1292.91 327.461 1293.5 328.044C1294.09 328.627 1295.03 328.623 1295.62 328.035L1293.49 325.923ZM1301.1 321.972C1301.63 321.333 1301.54 320.388 1300.9 319.861C1300.26 319.333 1299.32 319.424 1298.79 320.063L1301.1 321.972ZM1303.54 313.745C1303.07 314.43 1303.25 315.363 1303.93 315.83C1304.61 316.297 1305.55 316.121 1306.01 315.437L1303.54 313.745ZM1310.31 308.482C1310.71 307.758 1310.45 306.845 1309.73 306.442C1309.01 306.039 1308.09 306.299 1307.69 307.022L1310.31 308.482ZM1311.22 299.95C1310.88 300.707 1311.23 301.593 1311.98 301.93C1312.74 302.266 1313.63 301.925 1313.96 301.167L1311.22 299.95ZM1317.01 293.644C1317.31 292.872 1316.93 292.002 1316.16 291.7C1315.38 291.398 1314.51 291.779 1314.21 292.55L1317.01 293.644ZM1317.15 285.049C1316.85 285.82 1317.23 286.69 1318 286.992C1318.77 287.294 1319.64 286.914 1319.94 286.142L1317.15 285.049ZM1322.88 278.641C1323.18 277.87 1322.8 276.999 1322.03 276.697C1321.26 276.395 1320.39 276.776 1320.09 277.547L1322.88 278.641ZM1323.02 270.046C1322.72 270.817 1323.1 271.687 1323.87 271.989C1324.64 272.291 1325.51 271.911 1325.82 271.139L1323.02 270.046ZM1328.75 263.638C1329.06 262.867 1328.67 261.996 1327.9 261.694C1327.13 261.392 1326.26 261.773 1325.96 262.544L1328.75 263.638ZM1328.9 255.043C1328.59 255.814 1328.98 256.684 1329.75 256.986C1330.52 257.288 1331.39 256.908 1331.69 256.137L1328.9 255.043ZM1334.63 248.635C1334.93 247.864 1334.55 246.993 1333.78 246.691C1333.01 246.389 1332.14 246.77 1331.83 247.541L1334.63 248.635ZM1334.77 240.04C1334.47 240.811 1334.85 241.681 1335.62 241.983C1336.39 242.285 1337.26 241.905 1337.56 241.134L1334.77 240.04ZM1340.5 233.632C1340.8 232.861 1340.42 231.99 1339.65 231.688C1338.88 231.386 1338.01 231.767 1337.71 232.538L1340.5 233.632ZM1340.64 225.037C1340.34 225.808 1340.72 226.678 1341.49 226.98C1342.27 227.283 1343.14 226.902 1343.44 226.131L1340.64 225.037ZM1346.38 218.629C1346.68 217.858 1346.3 216.988 1345.53 216.686C1344.75 216.383 1343.88 216.764 1343.58 217.535L1346.38 218.629ZM1346.52 210.034C1346.22 210.805 1346.6 211.676 1347.37 211.978C1348.14 212.28 1349.01 211.899 1349.31 211.128L1346.52 210.034ZM1352.25 203.626C1352.55 202.855 1352.17 201.985 1351.4 201.683C1350.63 201.381 1349.76 201.761 1349.46 202.532L1352.25 203.626ZM1352.39 195.031C1352.09 195.802 1352.47 196.673 1353.24 196.975C1354.01 197.277 1354.88 196.896 1355.19 196.125L1352.39 195.031ZM1358.12 188.623C1358.43 187.852 1358.04 186.982 1357.27 186.68C1356.5 186.378 1355.63 186.758 1355.33 187.529L1358.12 188.623ZM1358.27 180.028C1357.96 180.799 1358.34 181.67 1359.12 181.972C1359.89 182.274 1360.76 181.893 1361.06 181.122L1358.27 180.028ZM1364 173.62C1364.3 172.849 1363.92 171.979 1363.15 171.677C1362.38 171.375 1361.51 171.755 1361.2 172.527L1364 173.62ZM1364.14 165.025C1363.84 165.796 1364.22 166.667 1364.99 166.969C1365.76 167.271 1366.63 166.89 1366.93 166.119L1364.14 165.025ZM1369.87 158.617C1370.17 157.846 1369.79 156.976 1369.02 156.674C1368.25 156.372 1367.38 156.752 1367.08 157.524L1369.87 158.617ZM1370.01 150.022C1369.71 150.794 1370.09 151.664 1370.86 151.966C1371.64 152.268 1372.51 151.887 1372.81 151.116L1370.01 150.022ZM1375.74 143.614C1376.05 142.843 1375.67 141.973 1374.89 141.671C1374.12 141.369 1373.25 141.749 1372.95 142.521L1375.74 143.614ZM1375.89 135.019C1375.59 135.791 1375.97 136.661 1376.74 136.963C1377.51 137.265 1378.38 136.884 1378.68 136.113L1375.89 135.019ZM1381.62 128.611C1381.92 127.84 1381.54 126.97 1380.77 126.668C1380 126.366 1379.13 126.746 1378.83 127.518L1381.62 128.611ZM1381.76 120.016C1381.46 120.788 1381.84 121.658 1382.61 121.96C1383.38 122.262 1384.25 121.881 1384.56 121.11L1381.76 120.016ZM1387.49 113.608C1387.79 112.837 1387.41 111.967 1386.64 111.665C1385.87 111.363 1385 111.743 1384.7 112.515L1387.49 113.608ZM1387.64 105.013C1387.33 105.785 1387.71 106.655 1388.49 106.957C1389.26 107.259 1390.13 106.878 1390.43 106.107L1387.64 105.013ZM1393.37 98.6055C1393.67 97.8341 1393.29 96.9639 1392.52 96.6619C1391.75 96.3598 1390.88 96.7403 1390.57 97.5118L1393.37 98.6055ZM1393.51 90.0103C1393.21 90.7817 1393.59 91.6519 1394.36 91.9539C1395.13 92.2559 1396 91.8754 1396.3 91.104L1393.51 90.0103ZM1399.32 83.6405C1399.65 82.8823 1399.31 81.997 1398.55 81.6631C1397.79 81.3291 1396.9 81.6729 1396.57 82.4311L1399.32 83.6405ZM1400.23 74.9904C1399.83 75.718 1400.1 76.629 1400.83 77.025C1401.55 77.4211 1402.47 77.1523 1402.86 76.4247L1400.23 74.9904ZM1407 69.5299C1407.45 68.8379 1407.26 67.9077 1406.57 67.4523C1405.88 66.9969 1404.95 67.1887 1404.49 67.8807L1407 69.5299ZM1409.33 61.1517C1408.82 61.8033 1408.94 62.7463 1409.59 63.2578C1410.24 63.7694 1411.18 63.6559 1411.69 63.0043L1409.33 61.1517ZM1416.92 56.8932C1417.48 56.2866 1417.45 55.3375 1416.84 54.7733C1416.23 54.2091 1415.28 54.2436 1414.72 54.8502L1416.92 56.8932ZM1420.62 49.0204C1420 49.5779 1419.96 50.5265 1420.51 51.1394C1421.07 51.7522 1422.02 51.7971 1422.63 51.2396L1420.62 49.0204ZM1428.47 46.1642C1429.08 45.6094 1429.13 44.6609 1428.58 44.0457C1428.02 43.4304 1427.07 43.3814 1426.46 43.9361L1428.47 46.1642ZM1431.62 38.9221C1431.04 39.5213 1431.07 40.4708 1431.66 41.0429C1432.26 41.615 1433.21 41.5931 1433.79 40.9939L1431.62 38.9221ZM1438.7 35.4407C1439.23 34.8005 1439.14 33.8553 1438.5 33.3296C1437.86 32.8038 1436.91 32.8966 1436.39 33.5368L1438.7 35.4407ZM1440.74 27.8102C1440.27 28.4879 1440.43 29.4235 1441.11 29.9C1441.78 30.3765 1442.72 30.2133 1443.2 29.5357L1440.74 27.8102ZM1447.27 23.3808C1447.72 22.6857 1447.52 21.7569 1446.83 21.306C1446.13 20.8552 1445.2 21.0532 1444.75 21.7482L1447.27 23.3808ZM1448.75 15.5869C1448.3 16.2819 1448.5 17.2108 1449.19 17.6616C1449.89 18.1125 1450.82 17.9145 1451.27 17.2195L1448.75 15.5869ZM1455.26 11.0582C1455.71 10.3632 1455.52 9.4343 1454.82 8.98348C1454.13 8.53265 1453.2 8.73061 1452.75 9.42563L1455.26 11.0582ZM1456.74 3.26435C1456.29 3.95937 1456.49 4.88826 1457.19 5.33908C1457.88 5.7899 1458.81 5.59194 1459.26 4.89693L1456.74 3.26435ZM1.11263 718.006L3.85066 714.978L1.6254 712.966L-1.11263 715.994L1.11263 718.006ZM9.32673 708.921L14.8028 702.865L12.5775 700.853L7.10146 706.909L9.32673 708.921ZM20.2789 696.808L25.7549 690.752L23.5296 688.74L18.0536 694.796L20.2789 696.808ZM31.231 684.695L36.707 678.639L34.4818 676.627L29.0057 682.683L31.231 684.695ZM42.1831 672.582L47.6592 666.526L45.4339 664.514L39.9578 670.57L42.1831 672.582ZM53.1352 660.469L58.6113 654.413L56.386 652.401L50.91 658.458L53.1352 660.469ZM64.0873 648.357L69.5634 642.3L67.3381 640.288L61.8621 646.345L64.0873 648.357ZM75.0395 636.244L80.5155 630.187L78.2903 628.175L72.8142 634.232L75.0395 636.244ZM85.9916 624.131L91.4676 618.074L89.2424 616.062L83.7663 622.119L85.9916 624.131ZM96.9437 612.018L102.42 605.961L100.195 603.949L94.7184 610.006L96.9437 612.018ZM107.896 599.905L113.372 593.848L111.147 591.836L105.671 597.893L107.896 599.905ZM118.848 587.792L124.324 581.735L122.099 579.723L116.623 585.78L118.848 587.792ZM129.8 575.679L135.276 569.622L133.051 567.61L127.575 573.667L129.8 575.679ZM140.752 563.566L146.228 557.509L144.003 555.497L138.527 561.554L140.752 563.566ZM151.704 551.453L157.18 545.396L154.955 543.385L149.479 549.441L151.704 551.453ZM162.656 539.34L165.395 536.312L163.169 534.3L160.431 537.328L162.656 539.34ZM165.395 536.312C166.231 535.386 167.094 534.511 167.98 533.686L165.934 531.491C164.985 532.375 164.063 533.311 163.169 534.3L165.395 536.312ZM173.769 529.176C175.862 527.828 178.039 526.702 180.27 525.79L179.134 523.013C176.735 523.994 174.395 525.205 172.145 526.653L173.769 529.176ZM187.28 523.65C189.69 523.15 192.13 522.873 194.568 522.813L194.495 519.814C191.879 519.879 189.259 520.175 186.67 520.713L187.28 523.65ZM201.895 523.283C204.319 523.655 206.707 524.24 209.029 525.029L209.994 522.188C207.507 521.343 204.947 520.717 202.35 520.318L201.895 523.283ZM215.745 527.995C217.88 529.174 219.917 530.546 221.823 532.102L223.721 529.779C221.672 528.106 219.485 526.633 217.195 525.369L215.745 527.995ZM227.054 537.237C228.612 539.076 230.022 541.08 231.257 543.242L233.862 541.754C232.535 539.431 231.018 537.276 229.343 535.298L227.054 537.237ZM234.31 549.915C234.714 551.057 235.075 552.231 235.39 553.438L238.293 552.681C237.957 551.392 237.571 550.135 237.137 548.913L234.31 549.915ZM235.39 553.438C235.71 554.664 235.974 555.878 236.184 557.08L239.139 556.563C238.914 555.279 238.633 553.985 238.293 552.681L235.39 553.438ZM236.823 564.483C236.814 567.019 236.567 569.483 236.107 571.86L239.052 572.43C239.548 569.869 239.813 567.218 239.823 564.494L236.823 564.483ZM234.014 578.96C233.085 581.272 231.945 583.473 230.621 585.544L233.149 587.16C234.571 584.935 235.798 582.567 236.798 580.077L234.014 578.96ZM226.073 591.408C224.383 593.224 222.533 594.887 220.554 596.379L222.359 598.775C224.477 597.179 226.458 595.398 228.269 593.451L226.073 591.408ZM214.254 600.321C212.047 601.449 209.742 602.385 207.37 603.111L208.248 605.98C210.79 605.202 213.258 604.199 215.619 602.992L214.254 600.321ZM200.108 604.638C197.666 604.923 195.188 604.986 192.703 604.81L192.491 607.803C195.167 607.992 197.833 607.924 200.456 607.617L200.108 604.638ZM185.402 603.588C183.063 602.963 180.74 602.108 178.455 601.007L177.153 603.71C179.608 604.892 182.108 605.813 184.628 606.486L185.402 603.588ZM172.076 597.195C171.088 596.481 170.111 595.713 169.148 594.889L167.198 597.169C168.222 598.045 169.263 598.864 170.32 599.627L172.076 597.195ZM169.148 594.889L165.944 592.148L163.993 594.427L167.198 597.169L169.148 594.889ZM159.534 586.664L153.125 581.181L151.175 583.461L157.584 588.944L159.534 586.664ZM146.716 575.698L140.306 570.214L138.356 572.494L144.765 577.977L146.716 575.698ZM133.897 564.731L130.692 561.989L128.742 564.269L131.947 567.011L133.897 564.731ZM130.692 561.989C129.719 561.157 128.78 560.297 127.876 559.412L125.778 561.557C126.73 562.488 127.718 563.393 128.742 564.269L130.692 561.989ZM122.795 553.727C121.221 551.707 119.796 549.596 118.524 547.411L115.931 548.921C117.271 551.221 118.771 553.444 120.429 555.571L122.795 553.727ZM115.14 540.578C114.164 538.223 113.35 535.809 112.701 533.353L109.8 534.12C110.484 536.705 111.341 539.247 112.368 541.726L115.14 540.578ZM111.248 525.867C110.932 523.346 110.785 520.802 110.808 518.253L107.809 518.225C107.783 520.909 107.939 523.587 108.271 526.24L111.248 525.867ZM111.392 510.65C111.755 508.148 112.287 505.658 112.991 503.196L110.107 502.371C109.365 504.963 108.805 507.586 108.423 510.22L111.392 510.65ZM115.577 496.023C116.085 494.864 116.635 493.716 117.226 492.58L114.565 491.195C113.943 492.39 113.364 493.599 112.83 494.819L115.577 496.023ZM117.226 492.58L117.594 491.872L114.933 490.487L114.565 491.195L117.226 492.58ZM118.331 490.457L118.699 489.75L116.038 488.365L115.669 489.072L118.331 490.457ZM118.699 489.75C119.308 488.579 119.949 487.437 120.622 486.324L118.054 484.773C117.349 485.941 116.676 487.138 116.038 488.365L118.699 489.75ZM125.101 479.886C126.745 477.821 128.507 475.884 130.374 474.08L128.289 471.923C126.329 473.817 124.479 475.85 122.754 478.017L125.101 479.886ZM136.354 469.006C138.462 467.441 140.663 466.019 142.94 464.747L141.476 462.128C139.087 463.463 136.778 464.955 134.565 466.598L136.354 469.006ZM150.02 461.368C152.449 460.395 154.94 459.578 157.474 458.923L156.724 456.019C154.065 456.705 151.453 457.562 148.904 458.583L150.02 461.368ZM165.18 457.453C167.768 457.13 170.383 456.972 173.009 456.985L173.024 453.985C170.268 453.971 167.524 454.137 164.808 454.476L165.18 457.453ZM180.832 457.532C183.405 457.88 185.972 458.397 188.52 459.087L189.304 456.192C186.631 455.467 183.935 454.925 181.235 454.559L180.832 457.532ZM195.941 461.623C197.143 462.121 198.336 462.662 199.52 463.244L200.844 460.552C199.603 459.942 198.352 459.375 197.091 458.852L195.941 461.623ZM199.52 463.244L203.213 465.061L204.537 462.369L200.844 460.552L199.52 463.244ZM210.599 468.694L217.986 472.327L219.31 469.635L211.923 466.002L210.599 468.694ZM225.372 475.961L232.758 479.594L234.083 476.902L226.696 473.269L225.372 475.961ZM240.145 483.227L247.531 486.861L248.855 484.169L241.469 480.536L240.145 483.227ZM254.918 490.494L262.304 494.128L263.628 491.436L256.242 487.802L254.918 490.494ZM269.691 497.761L277.077 501.394L278.401 498.702L271.015 495.069L269.691 497.761ZM284.463 505.028L291.85 508.661L293.174 505.969L285.788 502.336L284.463 505.028ZM299.236 512.294L306.623 515.928L307.947 513.236L300.56 509.603L299.236 512.294ZM314.009 519.561L321.396 523.195L322.72 520.503L315.333 516.869L314.009 519.561ZM328.782 526.828L336.168 530.461L337.493 527.769L330.106 524.136L328.782 526.828ZM343.555 534.095L350.941 537.728L352.265 535.036L344.879 531.403L343.555 534.095ZM358.328 541.362L365.714 544.995L367.038 542.303L359.652 538.67L358.328 541.362ZM373.101 548.628L380.487 552.262L381.811 549.57L374.425 545.936L373.101 548.628ZM387.873 555.895L395.26 559.528L396.584 556.836L389.198 553.203L387.873 555.895ZM402.646 563.162L410.033 566.795L411.357 564.103L403.97 560.47L402.646 563.162ZM417.419 570.429L424.806 574.062L426.13 571.37L418.743 567.737L417.419 570.429ZM432.192 577.695L435.885 579.512L437.209 576.82L433.516 575.003L432.192 577.695ZM435.885 579.512C437.141 580.13 438.407 580.72 439.681 581.283L440.893 578.539C439.657 577.993 438.429 577.42 437.209 576.82L435.885 579.512ZM447.472 584.348C450.12 585.265 452.795 586.069 455.492 586.76L456.236 583.854C453.62 583.183 451.024 582.403 448.454 581.513L447.472 584.348ZM463.681 588.501C466.439 588.97 469.21 589.323 471.987 589.562L472.244 586.573C469.548 586.341 466.859 585.998 464.184 585.544L463.681 588.501ZM480.352 589.934C483.144 589.943 485.936 589.837 488.719 589.616L488.482 586.626C485.781 586.84 483.072 586.943 480.362 586.934L480.352 589.934ZM497.032 588.61C499.783 588.162 502.519 587.599 505.233 586.923L504.508 584.012C501.874 584.668 499.219 585.214 496.549 585.649L497.032 588.61ZM513.267 584.565C515.903 583.672 518.51 582.667 521.08 581.552L519.886 578.8C517.392 579.882 514.862 580.857 512.304 581.724L513.267 584.565ZM528.617 577.905C529.844 577.247 531.062 576.562 532.267 575.851L530.743 573.267C529.573 573.958 528.391 574.622 527.2 575.261L528.617 577.905ZM532.267 575.851L535.734 573.805L534.21 571.222L530.743 573.267L532.267 575.851ZM542.668 569.714L549.602 565.623L548.077 563.039L541.143 567.13L542.668 569.714ZM556.536 561.531L563.469 557.44L561.945 554.856L555.011 558.947L556.536 561.531ZM570.403 553.348L577.337 549.257L575.812 546.673L568.879 550.765L570.403 553.348ZM584.271 545.166L591.205 541.074L589.68 538.491L582.746 542.582L584.271 545.166ZM598.138 536.983L605.072 532.892L603.548 530.308L596.614 534.399L598.138 536.983ZM612.006 528.8L618.94 524.709L617.415 522.125L610.482 526.216L612.006 528.8ZM625.874 520.617L632.807 516.526L631.283 513.942L624.349 518.034L625.874 520.617ZM639.741 512.435L646.675 508.343L645.151 505.76L638.217 509.851L639.741 512.435ZM653.609 504.252L660.543 500.161L659.018 497.577L652.084 501.668L653.609 504.252ZM667.477 496.069L674.41 491.978L672.886 489.394L665.952 493.485L667.477 496.069ZM681.344 487.886L688.278 483.795L686.753 481.211L679.82 485.303L681.344 487.886ZM695.212 479.704L702.146 475.612L700.621 473.029L693.687 477.12L695.212 479.704ZM709.079 471.521L716.013 467.43L714.489 464.846L707.555 468.937L709.079 471.521ZM722.947 463.338L729.881 459.247L728.356 456.663L721.422 460.754L722.947 463.338ZM736.815 455.155L743.748 451.064L742.224 448.48L735.29 452.572L736.815 455.155ZM750.682 446.973L757.616 442.881L756.091 440.298L749.158 444.389L750.682 446.973ZM764.55 438.79L771.484 434.699L769.959 432.115L763.025 436.206L764.55 438.79ZM778.417 430.607L781.884 428.561L780.36 425.978L776.893 428.023L778.417 430.607ZM781.884 428.561C782.879 427.975 783.886 427.416 784.904 426.885L783.517 424.225C782.452 424.78 781.399 425.364 780.36 425.978L781.884 428.561ZM791.185 424.018C793.333 423.17 795.519 422.439 797.733 421.825L796.93 418.934C794.616 419.576 792.331 420.341 790.084 421.227L791.185 424.018ZM804.474 420.33C806.745 419.949 809.035 419.689 811.334 419.548L811.152 416.554C808.748 416.701 806.354 416.973 803.978 417.371L804.474 420.33ZM818.239 419.49C820.534 419.591 822.828 419.812 825.112 420.155L825.557 417.188C823.169 416.83 820.77 416.598 818.371 416.493L818.239 419.49ZM831.877 421.537C832.988 421.825 834.095 422.143 835.196 422.492L836.101 419.631C834.95 419.267 833.793 418.935 832.63 418.633L831.877 421.537ZM835.196 422.492C836.502 422.905 837.78 423.349 839.031 423.823L840.094 421.018C838.791 420.524 837.46 420.061 836.101 419.631L835.196 422.492ZM846.39 427.11C848.821 428.373 851.126 429.76 853.303 431.257L855.003 428.785C852.723 427.218 850.313 425.768 847.773 424.448L846.39 427.11ZM859.635 436.226C861.659 438.034 863.542 439.95 865.283 441.959L867.551 439.995C865.727 437.89 863.754 435.882 861.634 433.989L859.635 436.226ZM870.158 448.37C871.652 450.617 872.995 452.947 874.187 455.343L876.873 454.006C875.627 451.5 874.221 449.062 872.657 446.709L870.158 448.37ZM877.327 462.766C878.223 465.305 878.964 467.895 879.548 470.518L882.476 469.865C881.866 467.127 881.093 464.421 880.157 461.768L877.327 462.766ZM880.832 478.481C881.103 481.158 881.216 483.85 881.17 486.541L884.169 486.592C884.217 483.784 884.099 480.973 883.817 478.179L880.832 478.481ZM880.557 494.583C880.194 497.246 879.673 499.889 878.992 502.494L881.895 503.252C882.606 500.529 883.15 497.769 883.529 494.988L880.557 494.583ZM876.484 510.154C875.497 512.641 874.353 515.075 873.053 517.439L875.681 518.885C877.043 516.41 878.24 513.862 879.273 511.261L876.484 510.154ZM868.731 524.235C867.164 526.383 865.449 528.45 863.583 530.421L865.761 532.483C867.716 530.419 869.514 528.254 871.155 526.003L868.731 524.235ZM857.689 535.902C855.644 537.576 853.464 539.151 851.146 540.613L852.747 543.15C855.168 541.622 857.449 539.976 859.589 538.224L857.689 535.902ZM844.088 544.505C842.882 545.081 841.645 545.631 840.378 546.152L841.519 548.927C842.837 548.384 844.125 547.812 845.382 547.211L844.088 544.505ZM840.378 546.152L837.107 547.497L838.248 550.272L841.519 548.927L840.378 546.152ZM830.564 550.187L824.022 552.877L825.163 555.652L831.705 552.962L830.564 550.187ZM817.479 555.568L810.937 558.258L812.077 561.032L818.62 558.342L817.479 555.568ZM804.394 560.948L797.851 563.638L798.992 566.413L805.535 563.723L804.394 560.948ZM791.309 566.328L788.038 567.674L789.178 570.448L792.45 569.103L791.309 566.328ZM788.038 567.674C786.879 568.15 785.717 568.599 784.55 569.022L785.572 571.842C786.778 571.405 787.981 570.941 789.178 570.448L788.038 567.674ZM777.425 571.262C775.003 571.91 772.571 572.448 770.136 572.878L770.658 575.833C773.178 575.387 775.695 574.831 778.2 574.16L777.425 571.262ZM762.737 573.855C760.246 574.075 757.757 574.184 755.278 574.185L755.279 577.185C757.846 577.184 760.421 577.071 763 576.844L762.737 573.855ZM747.817 573.866C745.331 573.651 742.861 573.328 740.413 572.901L739.898 575.857C742.43 576.298 744.986 576.632 747.559 576.855L747.817 573.866ZM733.12 571.301C730.711 570.663 728.332 569.922 725.99 569.08L724.976 571.903C727.398 572.774 729.859 573.541 732.351 574.201L733.12 571.301ZM719.078 566.254C716.817 565.215 714.6 564.077 712.434 562.846L710.951 565.453C713.192 566.728 715.485 567.904 717.824 568.98L719.078 566.254ZM706.108 558.878C704.062 557.469 702.073 555.968 700.148 554.38L698.239 556.694C700.231 558.338 702.289 559.89 704.406 561.349L706.108 558.878ZM694.6 549.382C692.832 547.644 691.132 545.823 689.508 543.922L687.227 545.87C688.908 547.839 690.667 549.723 692.498 551.522L694.6 549.382ZM684.912 538.041C683.475 536.029 682.117 533.941 680.843 531.782L678.259 533.307C679.577 535.541 680.983 537.701 682.47 539.784L684.912 538.041ZM677.327 525.192C676.79 524.073 676.275 522.938 675.782 521.787L673.024 522.968C673.534 524.159 674.067 525.332 674.622 526.489L677.327 525.192ZM675.782 521.787L674.057 517.758L671.299 518.939L673.024 522.968L675.782 521.787ZM670.606 509.699L668.88 505.67L666.123 506.851L667.848 510.88L670.606 509.699ZM668.88 505.67C668.354 504.44 667.854 503.206 667.381 501.97L664.579 503.041C665.066 504.315 665.58 505.585 666.123 506.851L668.88 505.67ZM664.837 494.432C664.082 491.862 663.439 489.285 662.903 486.704L659.966 487.314C660.518 489.973 661.181 492.63 661.958 495.277L664.837 494.432ZM661.606 478.857C661.278 476.207 661.061 473.56 660.953 470.922L657.955 471.046C658.067 473.765 658.291 476.494 658.628 479.225L661.606 478.857ZM660.95 462.965C661.059 460.304 661.275 457.657 661.598 455.031L658.62 454.666C658.288 457.372 658.064 460.1 657.953 462.843L660.95 462.965ZM662.887 447.177C663.424 444.573 664.065 441.996 664.808 439.452L661.928 438.611C661.163 441.232 660.502 443.888 659.949 446.571L662.887 447.177ZM667.344 431.905C668.29 429.423 669.335 426.981 670.476 424.586L667.767 423.296C666.592 425.764 665.515 428.279 664.541 430.836L667.344 431.905ZM674.184 417.54C675.512 415.243 676.933 412.999 678.442 410.813L675.974 409.108C674.419 411.36 672.955 413.672 671.587 416.038L674.184 417.54ZM683.226 404.45C684.903 402.397 686.664 400.409 688.506 398.492L686.343 396.414C684.444 398.389 682.63 400.438 680.903 402.552L683.226 404.45ZM694.249 392.981C696.231 391.229 698.289 389.551 700.421 387.955L698.624 385.554C696.426 387.199 694.304 388.928 692.262 390.734L694.249 392.981ZM706.981 383.451C709.217 382.046 711.521 380.726 713.891 379.496L712.508 376.834C710.066 378.102 707.691 379.463 705.385 380.91L706.981 383.451ZM721.094 376.121C723.524 375.102 726.013 374.172 728.558 373.339L727.624 370.488C725.002 371.347 722.437 372.304 719.933 373.355L721.094 376.121ZM736.211 371.167C737.498 370.857 738.798 370.57 740.11 370.308L739.522 367.366C738.171 367.636 736.833 367.931 735.508 368.251L736.211 371.167ZM740.11 370.308L744.171 369.495L743.583 366.554L739.522 367.366L740.11 370.308ZM752.295 367.871L760.418 366.246L759.829 363.304L751.706 364.929L752.295 367.871ZM768.541 364.622L776.664 362.997L776.076 360.055L767.952 361.68L768.541 364.622ZM784.787 361.372L792.91 359.748L792.322 356.806L784.199 358.431L784.787 361.372ZM801.033 358.123L809.156 356.498L808.568 353.557L800.445 355.181L801.033 358.123ZM817.279 354.874L825.403 353.249L824.814 350.307L816.691 351.932L817.279 354.874ZM833.526 351.625L841.649 350L841.06 347.058L832.937 348.683L833.526 351.625ZM849.772 348.375L857.895 346.751L857.307 343.809L849.184 345.434L849.772 348.375ZM866.018 345.126L874.141 343.501L873.553 340.56L865.43 342.184L866.018 345.126ZM882.264 341.877L890.387 340.252L889.799 337.31L881.676 338.935L882.264 341.877ZM898.511 338.628L906.634 337.003L906.045 334.061L897.922 335.686L898.511 338.628ZM914.757 335.378L922.88 333.754L922.292 330.812L914.168 332.437L914.757 335.378ZM931.003 332.129L935.065 331.317L934.476 328.375L930.415 329.187L931.003 332.129ZM935.065 331.317C936.311 331.067 937.56 330.851 938.809 330.667L938.372 327.699C937.072 327.89 935.773 328.116 934.476 328.375L935.065 331.317ZM946.37 329.946C948.911 329.835 951.445 329.855 953.965 330.004L954.141 327.009C951.52 326.855 948.882 326.833 946.239 326.949L946.37 329.946ZM961.514 330.839C964.018 331.247 966.496 331.782 968.939 332.442L969.721 329.546C967.18 328.86 964.601 328.302 961.997 327.878L961.514 330.839ZM976.161 334.796C978.523 335.703 980.841 336.73 983.104 337.876L984.459 335.2C982.105 334.007 979.693 332.938 977.235 331.995L976.161 334.796ZM989.696 341.65C991.819 343.015 993.878 344.492 995.866 346.079L997.738 343.735C995.67 342.084 993.527 340.546 991.318 339.127L989.696 341.65ZM1001.55 351.117C1002.45 352.002 1003.33 352.912 1004.19 353.848L1006.4 351.818C1005.51 350.845 1004.59 349.897 1003.65 348.977L1001.55 351.117ZM1004.19 353.848L1006.83 356.715L1009.04 354.685L1006.4 351.818L1004.19 353.848ZM1012.1 362.449L1017.37 368.183L1019.57 366.153L1014.3 360.419L1012.1 362.449ZM1022.64 373.917L1027.9 379.65L1030.11 377.62L1024.84 371.887L1022.64 373.917ZM1033.17 385.384L1035.81 388.251L1038.02 386.221L1035.38 383.354L1033.17 385.384ZM1035.81 388.251C1036.77 389.292 1037.75 390.281 1038.77 391.216L1040.8 389.012C1039.85 388.132 1038.92 387.202 1038.02 386.221L1035.81 388.251ZM1045.37 396.35C1047.75 397.893 1050.23 399.198 1052.77 400.272L1053.94 397.509C1051.56 396.503 1049.24 395.279 1047 393.832L1045.37 396.35ZM1060.74 402.847C1063.47 403.475 1066.25 403.86 1069.02 404.009L1069.18 401.014C1066.58 400.874 1063.97 400.512 1061.41 399.923L1060.74 402.847ZM1077.38 403.749C1080.16 403.427 1082.9 402.872 1085.58 402.09L1084.74 399.21C1082.22 399.944 1079.65 400.466 1077.04 400.769L1077.38 403.749ZM1093.39 399.078C1095.89 397.861 1098.29 396.428 1100.57 394.785L1098.82 392.352C1096.68 393.893 1094.42 395.238 1092.07 396.381L1093.39 399.078ZM1106.91 389.316C1108.83 387.339 1110.6 385.173 1112.2 382.826L1109.72 381.14C1108.22 383.342 1106.56 385.371 1104.76 387.224L1106.91 389.316ZM1116.29 375.527C1116.86 374.271 1117.38 372.976 1117.86 371.645L1115.04 370.634C1114.59 371.888 1114.09 373.106 1113.56 374.288L1116.29 375.527ZM1117.86 371.645C1118.34 370.301 1118.88 368.993 1119.47 367.723L1116.75 366.458C1116.12 367.811 1115.55 369.204 1115.04 370.634L1117.86 371.645ZM1123.73 360.41C1125.39 358.092 1127.25 355.953 1129.27 354.011L1127.19 351.846C1125.04 353.916 1123.06 356.195 1121.29 358.666L1123.73 360.41ZM1135.9 348.738C1138.26 347.188 1140.76 345.858 1143.37 344.766L1142.21 341.999C1139.44 343.161 1136.77 344.578 1134.25 346.229L1135.9 348.738ZM1151.45 342.23C1154.19 341.639 1157 341.298 1159.85 341.223L1159.77 338.224C1156.74 338.304 1153.74 338.668 1150.82 339.297L1151.45 342.23ZM1168.3 341.784C1169.68 342.005 1171.07 342.292 1172.45 342.645L1173.19 339.739C1171.72 339.363 1170.25 339.057 1168.77 338.821L1168.3 341.784ZM1172.45 342.645L1177.02 343.814L1177.76 340.907L1173.19 339.739L1172.45 342.645ZM1186.16 346.151L1195.3 348.489L1196.05 345.582L1186.91 343.245L1186.16 346.151ZM1204.45 350.826L1209.02 351.994L1209.76 349.088L1205.19 347.919L1204.45 350.826ZM1209.02 351.994C1210.34 352.334 1211.67 352.641 1213 352.918L1213.61 349.982C1212.33 349.714 1211.04 349.416 1209.76 349.088L1209.02 351.994ZM1221.07 354.225C1223.8 354.541 1226.52 354.73 1229.23 354.797L1229.3 351.798C1226.68 351.734 1224.05 351.551 1221.42 351.245L1221.07 354.225ZM1237.4 354.626C1240.13 354.444 1242.84 354.138 1245.52 353.712L1245.05 350.749C1242.46 351.161 1239.84 351.457 1237.2 351.632L1237.4 354.626ZM1253.53 352.066C1256.18 351.396 1258.79 350.607 1261.36 349.703L1260.36 346.874C1257.88 347.747 1255.35 348.51 1252.79 349.158L1253.53 352.066ZM1268.94 346.645C1271.42 345.512 1273.84 344.267 1276.21 342.916L1274.72 340.311C1272.43 341.617 1270.09 342.82 1267.69 343.916L1268.94 346.645ZM1283.12 338.548C1285.35 336.991 1287.52 335.332 1289.61 333.574L1287.68 331.278C1285.66 332.978 1283.56 334.582 1281.4 336.087L1283.12 338.548ZM1295.62 328.035C1297.53 326.105 1299.36 324.083 1301.1 321.972L1298.79 320.063C1297.1 322.103 1295.34 324.058 1293.49 325.923L1295.62 328.035ZM1306.01 315.437C1307.54 313.199 1308.98 310.879 1310.31 308.482L1307.69 307.022C1306.4 309.34 1305.01 311.582 1303.54 313.745L1306.01 315.437ZM1313.96 301.167C1314.51 299.927 1315.04 298.669 1315.54 297.395L1312.74 296.301C1312.26 297.534 1311.75 298.751 1311.22 299.95L1313.96 301.167ZM1315.54 297.395L1317.01 293.644L1314.21 292.55L1312.74 296.301L1315.54 297.395ZM1319.94 286.142L1322.88 278.641L1320.09 277.547L1317.15 285.049L1319.94 286.142ZM1325.82 271.139L1328.75 263.638L1325.96 262.544L1323.02 270.046L1325.82 271.139ZM1331.69 256.137L1334.63 248.635L1331.83 247.541L1328.9 255.043L1331.69 256.137ZM1337.56 241.134L1340.5 233.632L1337.71 232.538L1334.77 240.04L1337.56 241.134ZM1343.44 226.131L1346.38 218.629L1343.58 217.535L1340.64 225.037L1343.44 226.131ZM1349.31 211.128L1352.25 203.626L1349.46 202.532L1346.52 210.034L1349.31 211.128ZM1355.19 196.125L1358.12 188.623L1355.33 187.529L1352.39 195.031L1355.19 196.125ZM1361.06 181.122L1364 173.62L1361.2 172.527L1358.27 180.028L1361.06 181.122ZM1366.93 166.119L1369.87 158.617L1367.08 157.524L1364.14 165.025L1366.93 166.119ZM1372.81 151.116L1375.74 143.614L1372.95 142.521L1370.01 150.022L1372.81 151.116ZM1378.68 136.113L1381.62 128.611L1378.83 127.518L1375.89 135.019L1378.68 136.113ZM1384.56 121.11L1387.49 113.608L1384.7 112.515L1381.76 120.016L1384.56 121.11ZM1390.43 106.107L1393.37 98.6055L1390.57 97.5118L1387.64 105.013L1390.43 106.107ZM1396.3 91.104L1397.77 87.3533L1394.98 86.2596L1393.51 90.0103L1396.3 91.104ZM1397.77 87.3533C1398.26 86.1035 1398.78 84.8657 1399.32 83.6405L1396.57 82.4311C1396.01 83.6945 1395.48 84.9709 1394.98 86.2596L1397.77 87.3533ZM1402.86 76.4247C1404.14 74.0678 1405.52 71.7677 1407 69.5299L1404.49 67.8807C1402.97 70.1882 1401.55 72.5601 1400.23 74.9904L1402.86 76.4247ZM1411.69 63.0043C1413.35 60.8972 1415.09 58.8583 1416.92 56.8932L1414.72 54.8502C1412.84 56.8765 1411.04 58.979 1409.33 61.1517L1411.69 63.0043ZM1422.63 51.2396C1423.62 50.3387 1424.63 49.4575 1425.66 48.5966L1423.74 46.295C1422.68 47.1827 1421.64 48.0914 1420.62 49.0204L1422.63 51.2396ZM1425.66 48.5966C1426.61 47.8028 1427.55 46.9919 1428.47 46.1642L1426.46 43.9361C1425.57 44.7388 1424.66 45.5252 1423.74 46.295L1425.66 48.5966ZM1433.79 40.9939C1435.49 39.2048 1437.14 37.3524 1438.7 35.4407L1436.39 33.5368C1434.86 35.3907 1433.27 37.1871 1431.62 38.9221L1433.79 40.9939ZM1443.2 29.5357C1443.91 28.5246 1444.6 27.4996 1445.27 26.4614L1442.76 24.8288C1442.1 25.8357 1441.43 26.8296 1440.74 27.8102L1443.2 29.5357ZM1445.27 26.4614L1447.27 23.3808L1444.75 21.7482L1442.76 24.8288L1445.27 26.4614ZM1451.27 17.2195L1455.26 11.0582L1452.75 9.42563L1448.75 15.5869L1451.27 17.2195ZM1459.26 4.89693L1461.26 1.81629L1458.74 0.183713L1456.74 3.26435L1459.26 4.89693Z" fill="#C6D5DE"/>
</svg>
