
<svg width="42" height="42" viewBox="0 0 42 42" fill="none" xmlns="http://www.w3.org/2000/svg">
<g opacity="0.1">
<path d="M0 15.75C0 7.05152 7.05152 0 15.75 0H26.25C34.9485 0 42 7.05152 42 15.75V26.25C42 34.9485 34.9485 42 26.25 42H15.75C7.05152 42 0 34.9485 0 26.25V15.75Z" fill="#5E74DF"/>
</g>
<path opacity="0.4" d="M17.4735 22.8436L14.6264 25.2281C14.0394 25.8151 14.0441 26.7716 14.6368 27.3643C15.2295 27.9571 16.1861 27.9617 16.7731 27.3747L19.1575 24.5276C19.618 24.0671 19.6144 23.3168 19.1494 22.8518C18.6836 22.386 17.934 22.3831 17.4735 22.8436Z" fill="#5E74DF"/>
<path d="M26.2995 14.1022C26.2173 14.1018 25.8901 14.08 25.6017 14.0787C23.8574 14.0082 20.1883 14.7097 18.591 15.3988C18.345 15.4999 17.7518 15.7846 17.5057 16.009C17.2812 16.2335 17.1189 16.5001 17.0173 16.8073C16.9061 17.2067 16.9299 17.6378 17.0852 18.0184C17.1989 18.2755 17.6431 18.945 17.6533 18.9552C18.1497 19.6753 19.078 20.7255 20.1716 21.819C21.2122 22.8596 22.2218 23.7474 22.932 24.274C22.953 24.2749 23.7565 24.8532 24.1159 24.9673C24.7734 25.1759 25.4803 25.0049 25.9501 24.5351L25.9909 24.4943C26.2871 24.1779 26.6617 23.2659 26.6523 23.2565C27.2805 21.7202 28.002 18.1744 27.9212 16.378C27.9212 16.378 27.9219 15.8944 27.8765 15.6391C27.8235 15.2591 27.6373 14.9094 27.3694 14.6414C27.0703 14.3423 26.7004 14.1561 26.2995 14.1022Z" fill="#5E74DF"/>
</svg>
