
<svg width="42" height="42" viewBox="0 0 42 42" fill="none" xmlns="http://www.w3.org/2000/svg">
<g opacity="0.1">
<path d="M0 15.75C0 7.05152 7.05152 0 15.75 0H26.25C34.9485 0 42 7.05152 42 15.75V26.25C42 34.9485 34.9485 42 26.25 42H15.75C7.05152 42 0 34.9485 0 26.25V15.75Z" fill="#25BCAC"/>
</g>
<path fill-rule="evenodd" clip-rule="evenodd" d="M30.9964 17.3751H26.7618C24.7911 17.3786 23.1947 18.9351 23.1911 20.8566C23.1884 22.7823 24.7867 24.3458 26.7618 24.3484H31V24.6543C31 28.0136 28.9636 30 25.5173 30H16.4836C13.0364 30 11 28.0136 11 24.6543V17.3379C11 13.9786 13.0364 12 16.4836 12H25.5138C28.96 12 30.9964 13.9786 30.9964 17.3379V17.3751ZM15.7396 17.3673H21.3796H21.3831H21.3902C21.8124 17.3656 22.1538 17.0302 22.152 16.6177C22.1502 16.206 21.8053 15.8732 21.3831 15.8749H15.7396C15.32 15.8766 14.9796 16.2086 14.9778 16.6185C14.976 17.0302 15.3173 17.3656 15.7396 17.3673Z" fill="#25BCAC"/>
<path opacity="0.4" d="M25.0374 21.2966C25.2465 22.2478 26.0805 22.917 27.0326 22.8996H30.2825C30.6787 22.8996 31 22.5715 31 22.166V19.6344C30.9991 19.2297 30.6787 18.9008 30.2825 18.8999H26.9561C25.8731 18.9034 24.9983 19.8024 25 20.9102C25 21.0398 25.0128 21.1695 25.0374 21.2966Z" fill="#25BCAC"/>
<circle cx="27" cy="20.8999" r="1" fill="#25BCAC"/>
</svg>
