<svg width="12" height="18" viewBox="0 0 12 18" fill="none" xmlns="http://www.w3.org/2000/svg">
<path opacity="0.4" d="M4.8097 5.20248L4.48254 1.50325C4.48254 0.673083 5.16218 0 6.00044 0C6.8387 0 7.51834 0.673083 7.51834 1.50325L7.19119 5.20248C7.19119 5.85375 6.65805 6.38174 6.00044 6.38174C5.34173 6.38174 4.8097 5.85375 4.8097 5.20248Z" fill="#5E74DF"/>
<path d="M4.86984 17.6247C4.81146 17.5668 4.56471 17.3508 4.35983 17.1479C3.07656 15.9643 0.978153 12.8738 0.335965 11.2571C0.233523 11.0116 0.0154213 10.3909 0 10.0582C0 9.74076 0.0738021 9.43749 0.219203 9.1484C0.422985 8.78731 0.74463 8.49932 1.12355 8.34005C1.38572 8.23859 2.17331 8.07932 2.18763 8.07932C3.04792 7.92114 4.44685 7.83496 5.99339 7.83496C7.46503 7.83496 8.80668 7.92114 9.68129 8.05096C9.69671 8.06514 10.6738 8.22441 11.0086 8.39786C11.6211 8.71531 12 9.33603 12 10.0004V10.0582C11.9857 10.4913 11.6057 11.4011 11.5924 11.4011C10.9502 12.9316 8.95319 15.949 7.62585 17.1621C7.62585 17.1621 7.28438 17.5047 7.07178 17.653C6.76556 17.8843 6.38663 17.9999 6.00771 17.9999C5.58473 17.9999 5.19148 17.8701 4.86984 17.6247Z" fill="#5E74DF"/>
</svg>
