
<svg width="20" height="20" viewBox="0 0 20 20" fill="none" xmlns="http://www.w3.org/2000/svg">
<path fill-rule="evenodd" clip-rule="evenodd" d="M3.54167 10C3.54167 9.65482 3.82149 9.375 4.16667 9.375H15.8333C16.1785 9.375 16.4583 9.65482 16.4583 10C16.4583 10.3452 16.1785 10.625 15.8333 10.625H4.16667C3.82149 10.625 3.54167 10.3452 3.54167 10Z" fill="#3D58D9"/>
<path fill-rule="evenodd" clip-rule="evenodd" d="M9.55806 3.72456C9.80214 3.48048 10.1979 3.48048 10.4419 3.72456L16.2753 9.5579C16.5194 9.80197 16.5194 10.1977 16.2753 10.4418L10.4419 16.2751C10.1979 16.5192 9.80214 16.5192 9.55806 16.2751C9.31398 16.031 9.31398 15.6353 9.55806 15.3912L14.9495 9.99984L9.55806 4.60845C9.31398 4.36437 9.31398 3.96864 9.55806 3.72456Z" fill="#3D58D9"/>
</svg>
