<svg width="20" height="21" viewBox="0 0 20 21" fill="none" xmlns="http://www.w3.org/2000/svg">
<path fill-rule="evenodd" clip-rule="evenodd" d="M9.82461 17.3071C9.48548 17.3071 9.21057 17.0216 9.21057 16.6693L9.21057 4.76376C9.21057 4.41151 9.48548 4.12596 9.82461 4.12596C10.1637 4.12596 10.4386 4.41151 10.4386 4.76376L10.4386 16.6693C10.4386 17.0216 10.1637 17.3071 9.82461 17.3071Z" fill="currentColor"/>
<path fill-rule="evenodd" clip-rule="evenodd" d="M3.65946 11.1677C3.41967 10.9186 3.41967 10.5148 3.65946 10.2657L9.39045 4.31292C9.63025 4.06384 10.019 4.06384 10.2588 4.31292L15.9898 10.2657C16.2296 10.5148 16.2296 10.9186 15.9898 11.1677C15.75 11.4168 15.3612 11.4168 15.1214 11.1677L9.82464 5.66589L4.52784 11.1677C4.28804 11.4168 3.89926 11.4168 3.65946 11.1677Z" fill="currentColor"/>
</svg>
