
<svg width="20" height="20" viewBox="0 0 20 20" fill="none" xmlns="http://www.w3.org/2000/svg">
<path fill-rule="evenodd" clip-rule="evenodd" d="M16.4585 10C16.4585 10.3452 16.1787 10.625 15.8335 10.625L4.16683 10.625C3.82165 10.625 3.54183 10.3452 3.54183 10C3.54183 9.65482 3.82165 9.375 4.16683 9.375L15.8335 9.375C16.1787 9.375 16.4585 9.65482 16.4585 10Z" fill="#1A1A25"/>
<path fill-rule="evenodd" clip-rule="evenodd" d="M10.4419 16.2754C10.1979 16.5195 9.80214 16.5195 9.55806 16.2754L3.72472 10.4421C3.48065 10.198 3.48065 9.8023 3.72472 9.55822L9.55806 3.72489C9.80214 3.48081 10.1979 3.48081 10.4419 3.72489C10.686 3.96896 10.686 4.36469 10.4419 4.60877L5.05055 10.0002L10.4419 15.3916C10.686 15.6356 10.686 16.0314 10.4419 16.2754Z" fill="#1A1A25"/>
</svg>
