<svg width="37" height="37" viewBox="0 0 37 37" fill="none" xmlns="http://www.w3.org/2000/svg">
<circle opacity="0.5" cx="18.5" cy="18.5" r="18.5" fill="#FF6644" fill-opacity="0.5"/>
<path d="M18.5069 19.7135C16.9739 19.7135 15.5764 19.6237 14.6653 19.4885C14.663 19.4864 14.6403 19.4812 14.602 19.4733L14.3409 19.4211C14.0076 19.3533 13.5069 19.2433 13.2827 19.1272C12.6447 18.7965 12.25 18.1499 12.25 17.4579V17.3976C12.2649 16.9465 12.6608 15.9988 12.6745 15.9988C13.3435 14.4045 15.4238 11.2613 16.8064 9.99772L16.8537 9.95099C16.9579 9.84912 17.2113 9.60656 17.3836 9.48636C17.7025 9.24545 18.0973 9.125 18.492 9.125C18.9326 9.125 19.3422 9.26023 19.6773 9.51591C19.7381 9.57613 19.9951 9.80113 20.2085 10.0125C21.5453 11.2454 23.7311 14.4647 24.4 16.1488C24.5067 16.4045 24.7339 17.051 24.75 17.3976C24.75 17.7283 24.6731 18.0442 24.5217 18.3453C24.3094 18.7215 23.9743 19.0215 23.5796 19.1874C23.3065 19.2931 22.4861 19.459 22.4712 19.459C21.5751 19.6237 20.1179 19.7135 18.5069 19.7135ZM18.4995 27.875C17.6264 27.875 16.9184 27.1739 16.9184 26.3091L17.2592 22.4557C17.2592 21.7773 17.8145 21.2274 18.4995 21.2274C19.1857 21.2274 19.7399 21.7773 19.7399 22.4557L20.0807 26.3091C20.0807 27.1739 19.3727 27.875 18.4995 27.875Z" fill="#FF6644"/>
</svg>
