<svg width="37" height="37" viewBox="0 0 37 37" fill="none" xmlns="http://www.w3.org/2000/svg">
<circle opacity="0.5" cx="18.5" cy="18.5" r="18.5" fill="#45E207" fill-opacity="0.25"/>
<path d="M18.4931 17.2865C20.0261 17.2865 21.4236 17.3763 22.3347 17.5115C22.337 17.5136 22.3597 17.5188 22.398 17.5267L22.6591 17.5789C22.9924 17.6467 23.4931 17.7567 23.7173 17.8728C24.3553 18.2035 24.75 18.8501 24.75 19.5421V19.6024C24.7351 20.0535 24.3392 21.0012 24.3255 21.0012C23.6565 22.5955 21.5762 25.7387 20.1936 27.0023L20.1463 27.049C20.0421 27.1509 19.7887 27.3934 19.6164 27.5136C19.2975 27.7545 18.9027 27.875 18.508 27.875C18.0674 27.875 17.6578 27.7398 17.3227 27.4841C17.2619 27.4239 17.0049 27.1989 16.7915 26.9875C15.4547 25.7546 13.2689 22.5353 12.6 20.8512C12.4933 20.5955 12.2661 19.949 12.25 19.6024C12.25 19.2717 12.3269 18.9558 12.4783 18.6547C12.6906 18.2785 13.0257 17.9785 13.4204 17.8126C13.6935 17.7069 14.5139 17.541 14.5288 17.541C15.4249 17.3763 16.8821 17.2865 18.4931 17.2865ZM18.5005 9.125C19.3736 9.125 20.0816 9.82613 20.0816 10.6909L19.7408 14.5443C19.7408 15.2227 19.1855 15.7726 18.5005 15.7726C17.8143 15.7726 17.2601 15.2227 17.2601 14.5443L16.9193 10.6909C16.9193 9.82613 17.6273 9.125 18.5005 9.125Z" fill="#44DC07"/>
</svg>
