
<svg width="22" height="20" viewBox="0 0 22 20" fill="none" xmlns="http://www.w3.org/2000/svg">
<path d="M16.3519 0.25C17.8046 0.25 19.2021 0.824167 20.2302 1.85442C21.2594 2.8825 21.8346 4.26917 21.8346 5.72083V14.2792C21.8346 17.3017 19.3755 19.75 16.3519 19.75H5.64964C2.62605 19.75 0.167969 17.3017 0.167969 14.2792V5.72083C0.167969 2.69833 2.61522 0.25 5.64964 0.25H16.3519ZM17.5771 5.88333C17.3496 5.87142 17.133 5.94833 16.9694 6.1L12.0846 10C11.4563 10.5211 10.5561 10.5211 9.91797 10L5.04297 6.1C4.70605 5.85083 4.24022 5.88333 3.95964 6.17583C3.66714 6.46833 3.63464 6.93417 3.88272 7.25917L4.02464 7.4L8.9538 11.2458C9.56047 11.7225 10.2961 11.9825 11.0663 11.9825C11.8344 11.9825 12.583 11.7225 13.1886 11.2458L18.0755 7.335L18.1621 7.24833C18.4211 6.93417 18.4211 6.47917 18.1502 6.165C17.9996 6.00358 17.7927 5.905 17.5771 5.88333Z" fill="currentColor"/>
</svg>
