<svg width="35" height="22" viewBox="0 0 35 22" fill="none" xmlns="http://www.w3.org/2000/svg">
<path d="M11.8197 0.231628C11.5941 0.482506 11.6021 0.463208 10.4016 5.28777C9.99879 6.89917 9.66846 8.279 9.66846 8.35619C9.66846 8.65531 9.93434 9.08953 10.1922 9.22461C10.6031 9.42724 24.2031 9.42724 24.614 9.22461C24.8718 9.08953 25.1377 8.65531 25.1377 8.35619C25.1377 8.279 24.8074 6.89917 24.4045 5.28777C23.2041 0.463208 23.2121 0.482506 22.9865 0.231628L22.7771 4.95911e-05H17.4031H12.0291L11.8197 0.231628Z" fill="currentColor"/>
<path d="M2.10285 12.9009C1.89337 13.1421 1.74835 13.6149 0.934602 16.9053C0.418959 18.9605 0 20.8132 0 21.0061C0 21.3921 0.169195 21.7105 0.459244 21.8939C0.580098 21.9711 2.66684 22 7.73464 22H14.8408L15.1148 21.6719C15.3081 21.4404 15.3887 21.257 15.3887 21.0351C15.3887 20.7842 14.7441 18.1211 13.6887 13.9623C13.3181 12.5053 13.9304 12.6403 7.63795 12.6403H2.3365L2.10285 12.9009Z" fill="currentColor"/>
<path d="M21.6165 12.8333C21.3265 13.036 21.4393 12.6596 20.1502 17.8219C19.7473 19.4237 19.417 20.8711 19.417 21.0351C19.417 21.257 19.4976 21.4404 19.6909 21.6719L19.9649 22H27.0711C32.1389 22 34.2256 21.9711 34.3464 21.8939C34.6365 21.7105 34.8057 21.3921 34.8057 21.0061C34.8057 20.6877 33.3474 14.6184 32.9848 13.4412C32.9123 13.2096 32.7673 12.9395 32.6545 12.8333C32.4531 12.6403 32.3322 12.6403 27.1597 12.6403C22.0677 12.6403 21.8663 12.65 21.6165 12.8333Z" fill="currentColor"/>
</svg>
