<svg width="31" height="26" viewBox="0 0 31 26" fill="none" xmlns="http://www.w3.org/2000/svg">
<path d="M3.25742 0.12715C2.99707 0.260353 2.78516 0.61758 2.78516 0.926369C2.78516 1.81035 1.99805 2.61563 1.03535 2.70645C0.569141 2.75488 0.272461 2.91836 0.121094 3.20898C0 3.44512 0 3.54805 0 11.0801C0 18.4547 0.00605468 18.7211 0.115039 18.9391C0.260352 19.2236 0.593359 19.4113 1.03535 19.4537C1.99805 19.5445 2.78516 20.3498 2.78516 21.2338C2.78516 21.5426 2.97891 21.8695 3.25742 22.027L3.49961 22.1602H9.83281H16.166V20.3982V18.6424L15.8088 18.0914C15.391 17.4617 15.1246 16.8623 14.9066 16.051C14.7734 15.5363 14.7553 15.3486 14.7553 14.4707C14.7553 13.5867 14.7734 13.4051 14.9127 12.8844C15.5605 10.4625 17.3043 8.7127 19.7262 8.0709C20.2348 7.93164 20.4406 7.91348 21.2822 7.90742C22.3539 7.90742 22.8928 8.0043 23.7768 8.35547C25.4055 9.00937 26.7738 10.3777 27.4277 12.0064C27.7789 12.8904 27.8758 13.4293 27.8758 14.501C27.8697 15.3426 27.8516 15.5484 27.7184 16.051C27.5004 16.8623 27.24 17.4617 26.8162 18.0914L26.459 18.6424V20.3982V22.1602H26.9736C27.3732 22.1602 27.5488 22.1299 27.7305 22.0391C28.009 21.8998 28.2148 21.5486 28.2148 21.2338C28.2148 20.3498 29.002 19.5445 29.9646 19.4537C30.4309 19.4053 30.7275 19.2418 30.8789 18.9512C31 18.715 31 18.6121 31 11.0801C31 3.54805 31 3.44512 30.8789 3.20898C30.7275 2.91836 30.4309 2.75488 29.9646 2.70645C29.002 2.61563 28.2148 1.81035 28.2148 0.926369C28.2148 0.611525 28.009 0.260351 27.7305 0.121094C27.4943 0 27.4035 0 15.4879 0C3.65098 0.00605392 3.47539 0.00605583 3.25742 0.12715ZM17.8613 3.99609C18.1338 4.13535 18.3457 4.48047 18.3457 4.7832C18.3457 5.08594 18.1338 5.43106 17.8613 5.57031C17.6373 5.68535 17.5102 5.69141 15.5 5.69141C13.4898 5.69141 13.3627 5.68535 13.1387 5.57031C12.5211 5.25547 12.509 4.38359 13.1145 4.02031L13.3506 3.875H15.4879C17.5102 3.875 17.6373 3.88105 17.8613 3.99609ZM11.5645 14.9248C11.9217 15.1125 12.1094 15.5182 12.0186 15.9359C11.9641 16.1781 10.7592 17.4375 10.3838 17.6373C10.0326 17.825 9.33633 17.8189 8.96699 17.6252L8.70059 17.4859L8.17988 18.0006C7.51387 18.6545 7.3625 18.7393 6.78125 18.7393C6.16973 18.7393 6.0002 18.6363 5.16465 17.7887C4.63184 17.2438 4.48047 17.0561 4.4502 16.8805C4.34121 16.2871 4.73477 15.8027 5.32812 15.8027C5.66719 15.8027 5.77012 15.8633 6.31504 16.3961L6.78125 16.8623L7.28379 16.3658C7.55625 16.0994 7.90137 15.8148 8.05273 15.7361C8.44023 15.5424 8.96094 15.5424 9.37871 15.7361L9.69355 15.8875L10.1598 15.4273C10.4141 15.1791 10.6805 14.943 10.7471 14.9066C10.9227 14.8098 11.3586 14.8219 11.5645 14.9248Z" fill="currentColor"/>
<path d="M20.4043 9.77839C18.4668 10.1659 16.9895 11.6675 16.6141 13.605C16.3477 15.0096 16.7715 16.5657 17.71 17.6071L17.9824 17.9098V21.143C17.9824 24.7819 17.9703 24.6548 18.4426 24.9272C18.8967 25.1876 18.9996 25.1573 20.3983 24.3096C20.8705 24.0251 21.2822 23.795 21.3125 23.795C21.3428 23.795 21.7545 24.0251 22.2268 24.3096C23.3227 24.9757 23.5104 25.0665 23.7344 25.0665C24.0371 25.0665 24.3822 24.8546 24.5215 24.5821C24.6365 24.352 24.6426 24.2309 24.6426 21.1249V17.9098L24.915 17.6071C25.4539 17.0077 25.8414 16.1964 26.0109 15.3305C26.4348 13.1145 25.1451 10.8137 23.032 10.0145C22.1904 9.69968 21.2338 9.60886 20.4043 9.77839Z" fill="currentColor"/>
</svg>
