<svg width="17" height="14" viewBox="0 0 17 14" fill="none" xmlns="http://www.w3.org/2000/svg">
<path d="M1.78633 0.0697279C1.64355 0.142776 1.52734 0.338674 1.52734 0.50801C1.52734 0.992775 1.0957 1.43438 0.567773 1.48418C0.312109 1.51074 0.149414 1.60039 0.0664062 1.75977C0 1.88926 0 1.9457 0 6.07617C0 10.1203 0.00332031 10.2664 0.0630859 10.3859C0.142773 10.542 0.325391 10.6449 0.567773 10.6682C1.0957 10.718 1.52734 11.1596 1.52734 11.6443C1.52734 11.8137 1.63359 11.993 1.78633 12.0793L1.91914 12.1523H5.39219H8.86523V11.1861V10.2232L8.66934 9.92109C8.44023 9.57578 8.29414 9.24707 8.17461 8.80215C8.10156 8.51992 8.0916 8.41699 8.0916 7.93555C8.0916 7.45078 8.10156 7.35117 8.17793 7.06563C8.5332 5.7375 9.48945 4.77793 10.8176 4.42598C11.0965 4.34961 11.2094 4.33965 11.6709 4.33633C12.2586 4.33633 12.5541 4.38945 13.0389 4.58203C13.932 4.94063 14.6824 5.69102 15.041 6.58418C15.2336 7.06895 15.2867 7.36445 15.2867 7.95215C15.2834 8.41367 15.2734 8.52656 15.2004 8.80215C15.0809 9.24707 14.9381 9.57578 14.7057 9.92109L14.5098 10.2232V11.1861V12.1523H14.792C15.0111 12.1523 15.1074 12.1357 15.207 12.0859C15.3598 12.0096 15.4727 11.817 15.4727 11.6443C15.4727 11.1596 15.9043 10.718 16.4322 10.6682C16.6879 10.6416 16.8506 10.552 16.9336 10.3926C17 10.2631 17 10.2066 17 6.07617C17 1.9457 17 1.88926 16.9336 1.75977C16.8506 1.60039 16.6879 1.51074 16.4322 1.48418C15.9043 1.43438 15.4727 0.992775 15.4727 0.50801C15.4727 0.335354 15.3598 0.142775 15.207 0.0664072C15.0775 9.53674e-07 15.0277 9.53674e-07 8.49336 9.53674e-07C2.00215 0.00332165 1.90586 0.00332165 1.78633 0.0697279ZM9.79492 2.19141C9.94434 2.26777 10.0605 2.45703 10.0605 2.62305C10.0605 2.78906 9.94434 2.97832 9.79492 3.05469C9.67207 3.11777 9.60234 3.12109 8.5 3.12109C7.39766 3.12109 7.32793 3.11777 7.20508 3.05469C6.86641 2.88203 6.85977 2.40391 7.1918 2.20469L7.32129 2.125H8.49336C9.60234 2.125 9.67207 2.12832 9.79492 2.19141ZM6.3418 8.18457C6.5377 8.2875 6.64062 8.50996 6.59082 8.73906C6.56094 8.87188 5.9002 9.5625 5.69434 9.67207C5.50176 9.775 5.11992 9.77168 4.91738 9.66543L4.77129 9.58906L4.48574 9.87129C4.12051 10.2299 4.0375 10.2764 3.71875 10.2764C3.3834 10.2764 3.29043 10.2199 2.83223 9.75508C2.54004 9.45625 2.45703 9.35332 2.44043 9.25703C2.38066 8.93164 2.59648 8.66602 2.92188 8.66602C3.10781 8.66602 3.16426 8.69922 3.46309 8.99141L3.71875 9.24707L3.99434 8.97481C4.14375 8.82871 4.33301 8.67266 4.41602 8.62949C4.62852 8.52324 4.91406 8.52324 5.14316 8.62949L5.31582 8.7125L5.57148 8.46016C5.71094 8.32402 5.85703 8.19453 5.89355 8.17461C5.98984 8.12148 6.22891 8.12813 6.3418 8.18457Z" fill="currentColor"/>
<path d="M11.1896 5.36235C10.1271 5.57485 9.31698 6.39829 9.11112 7.46079C8.96503 8.2311 9.19745 9.08442 9.7121 9.65551L9.86151 9.82153V11.5946C9.86151 13.5901 9.85487 13.5204 10.1139 13.6698C10.3629 13.8125 10.4193 13.7959 11.1863 13.3311C11.4453 13.175 11.6711 13.0489 11.6877 13.0489C11.7043 13.0489 11.9301 13.175 12.1891 13.3311C12.79 13.6963 12.893 13.7461 13.0158 13.7461C13.1818 13.7461 13.3711 13.6299 13.4475 13.4805C13.5105 13.3543 13.5139 13.2879 13.5139 11.5846V9.82153L13.6633 9.65551C13.9588 9.3268 14.1713 8.88188 14.2642 8.40708C14.4967 7.19184 13.7894 5.93012 12.6307 5.49184C12.1691 5.31919 11.6445 5.26938 11.1896 5.36235Z" fill="currentColor"/>
</svg>
