
<svg width="32" height="32" viewBox="0 0 32 32" fill="none" xmlns="http://www.w3.org/2000/svg">
<path opacity="0.2" d="M18 26.9979V4.99789C18 4.73268 17.8946 4.47832 17.7071 4.29079C17.5196 4.10325 17.2652 3.99789 17 3.99789H5C4.73478 3.99789 4.48043 4.10325 4.29289 4.29079C4.10536 4.47832 4 4.73268 4 4.99789V26.9979" fill="#5E74DF"/>
<path d="M2 26.9979H30" stroke="#5E74DF" stroke-width="2" stroke-linecap="round" stroke-linejoin="round"/>
<path d="M18 26.9979V4.99789C18 4.73268 17.8946 4.47832 17.7071 4.29079C17.5196 4.10325 17.2652 3.99789 17 3.99789H5C4.73478 3.99789 4.48043 4.10325 4.29289 4.29079C4.10536 4.47832 4 4.73268 4 4.99789V26.9979" stroke="#5E74DF" stroke-width="2" stroke-linecap="round" stroke-linejoin="round"/>
<path d="M28 26.9979V12.9979C28 12.7327 27.8946 12.4783 27.7071 12.2908C27.5196 12.1033 27.2652 11.9979 27 11.9979H18" stroke="#5E74DF" stroke-width="2" stroke-linecap="round" stroke-linejoin="round"/>
<path d="M8 8.99789H12" stroke="#5E74DF" stroke-width="2" stroke-linecap="round" stroke-linejoin="round"/>
<path d="M10 16.9979H14" stroke="#5E74DF" stroke-width="2" stroke-linecap="round" stroke-linejoin="round"/>
<path d="M8 21.9979H12" stroke="#5E74DF" stroke-width="2" stroke-linecap="round" stroke-linejoin="round"/>
<path d="M22 21.9979H24" stroke="#5E74DF" stroke-width="2" stroke-linecap="round" stroke-linejoin="round"/>
<path d="M22 16.9979H24" stroke="#5E74DF" stroke-width="2" stroke-linecap="round" stroke-linejoin="round"/>
</svg>
