
<svg width="12" height="12" viewBox="0 0 12 12" fill="none" xmlns="http://www.w3.org/2000/svg">
<path fill-rule="evenodd" clip-rule="evenodd" d="M11.1025 1.32183C11.3954 1.02894 11.3954 0.554067 11.1025 0.261174C10.8096 -0.0317194 10.3347 -0.0317194 10.0418 0.261174L5.68206 4.62091L1.32232 0.261174C1.02943 -0.0317194 0.554555 -0.0317194 0.261662 0.261174C-0.0312311 0.554067 -0.0312311 1.02894 0.261662 1.32183L4.6214 5.68157L0.261662 10.0413C-0.0312311 10.3342 -0.0312311 10.8091 0.261662 11.102C0.554555 11.3949 1.02943 11.3949 1.32232 11.102L5.68206 6.74223L10.0418 11.102C10.3347 11.3949 10.8096 11.3949 11.1025 11.102C11.3954 10.8091 11.3954 10.3342 11.1025 10.0413L6.74272 5.68157L11.1025 1.32183Z" fill="#1A1A25"/>
</svg>
