
<svg width="37" height="37" viewBox="0 0 37 37" fill="none" xmlns="http://www.w3.org/2000/svg">
<circle opacity="0.1" cx="18.5" cy="18.5" r="18.5" fill="#FFAB00"/>
<path d="M18.8562 29.083C24.8981 29.083 29.7961 24.1851 29.7961 18.1431C29.7961 12.1012 24.8981 7.20325 18.8562 7.20325C12.8142 7.20325 7.91626 12.1012 7.91626 18.1431C7.91626 24.1851 12.8142 29.083 18.8562 29.083Z" stroke="#FF9314" stroke-width="2.19595" stroke-miterlimit="10"/>
<path d="M18.8562 12.6732V19.0548" stroke="#FF9314" stroke-width="2.19595" stroke-linecap="round" stroke-linejoin="round"/>
<path d="M20.1549 23.1573C20.1549 23.8746 19.5734 24.4561 18.856 24.4561C18.1387 24.4561 17.5571 23.8746 17.5571 23.1573C17.5571 22.4399 18.1387 21.8584 18.856 21.8584C19.5734 21.8584 20.1549 22.4399 20.1549 23.1573Z" fill="#FF9314" stroke="#FF9314" stroke-width="0.137247"/>
</svg>
