
<svg width="9" height="9" viewBox="0 0 9 9" fill="none" xmlns="http://www.w3.org/2000/svg">
<path d="M7.75917 6.63911L5.60955 4.49069L7.75796 2.34228C8.17121 1.93024 8.17121 1.25961 7.75796 0.847569C7.34471 0.431902 6.67651 0.433111 6.26326 0.846361L4.11363 2.99478L1.96401 0.843944C1.55076 0.430694 0.881339 0.433111 0.468089 0.843944C0.0560472 1.25719 0.0560472 1.92782 0.468089 2.33986L2.61892 4.49069L0.472922 6.63549C0.0596722 7.04874 0.0596722 7.71936 0.472922 8.13019C0.679547 8.33803 0.949006 8.44074 1.21967 8.44074C1.49155 8.44074 1.76101 8.33803 1.96763 8.1314L4.11363 5.9854L6.26446 8.13503C6.47109 8.34165 6.74055 8.44436 7.01121 8.44436C7.28188 8.44436 7.55255 8.34044 7.75917 8.13503C8.17242 7.72178 8.17242 7.05236 7.75917 6.63911Z" fill="#213353"/>
</svg>
