
<svg width="29" height="29" viewBox="0 0 29 29" fill="none" xmlns="http://www.w3.org/2000/svg">
<path opacity="0.2" d="M14.7031 17.3374C21.0096 17.3374 26.122 14.9778 26.122 12.0671C26.122 9.15646 21.0096 6.79688 14.7031 6.79688C8.3966 6.79688 3.28418 9.15646 3.28418 12.0671C3.28418 14.9778 8.3966 17.3374 14.7031 17.3374Z" fill="#5E74DF"/>
<path d="M14.7031 17.3374C21.0096 17.3374 26.122 14.9778 26.122 12.0671C26.122 9.15646 21.0096 6.79688 14.7031 6.79688C8.3966 6.79688 3.28418 9.15646 3.28418 12.0671C3.28418 14.9778 8.3966 17.3374 14.7031 17.3374Z" stroke="#5E74DF" stroke-width="1.75676" stroke-linecap="round" stroke-linejoin="round"/>
<path d="M14.7031 17.3374V22.6077" stroke="#5E74DF" stroke-width="1.75676" stroke-linecap="round" stroke-linejoin="round"/>
<path d="M3.28418 12.0674V17.3377C3.28418 19.9728 7.67607 22.6079 14.7031 22.6079C21.7301 22.6079 26.122 19.9728 26.122 17.3377V12.0674" stroke="#5E74DF" stroke-width="1.75676" stroke-linecap="round" stroke-linejoin="round"/>
<path d="M21.7305 16.252V21.5223" stroke="#5E74DF" stroke-width="1.75676" stroke-linecap="round" stroke-linejoin="round"/>
<path d="M7.67676 16.252V21.5223" stroke="#5E74DF" stroke-width="1.75676" stroke-linecap="round" stroke-linejoin="round"/>
</svg>
