
<svg width="42" height="42" viewBox="0 0 42 42" fill="none" xmlns="http://www.w3.org/2000/svg">
<path d="M0 12C0 5.37258 5.37258 0 12 0H30C36.6274 0 42 5.37258 42 12V30C42 36.6274 36.6274 42 30 42H12C5.37258 42 0 36.6274 0 30V12Z" fill="#FCF4E9"/>
<path opacity="0.4" d="M21.1135 35.4375C20.951 35.4375 20.7885 35.4002 20.6418 35.3242L15.9154 32.8776C14.5742 32.1826 13.5251 31.4027 12.7058 30.494C10.9128 28.5069 9.91515 25.956 9.8993 23.3099L9.8438 14.6006C9.83719 13.5954 10.486 12.6932 11.4558 12.3535L20.1344 9.32766C20.6497 9.14362 21.2245 9.14104 21.7491 9.31865L30.4607 12.2415C31.4358 12.5671 32.0952 13.4629 32.1005 14.4667L32.156 23.1825C32.1732 25.8247 31.2099 28.3859 29.4446 30.3949C28.6346 31.3165 27.5947 32.108 26.2668 32.8158L21.5826 35.3178C21.4373 35.3963 21.276 35.4362 21.1135 35.4375Z" fill="#FF9314"/>
<path d="M20.1063 25.3588C19.8526 25.3601 19.5989 25.2687 19.4034 25.0808L16.8875 22.6612C16.4991 22.2854 16.4951 21.6754 16.8796 21.297C17.2641 20.9173 17.8918 20.9134 18.2816 21.288L20.0918 23.028L24.5117 18.6702C24.8975 18.2905 25.5251 18.2866 25.9136 18.6612C26.3034 19.037 26.3074 19.6483 25.9229 20.0254L20.8053 25.0718C20.6124 25.2623 20.36 25.3575 20.1063 25.3588Z" fill="#FF9314"/>
</svg>
