
<svg width="67" height="67" viewBox="0 0 67 67" fill="none" xmlns="http://www.w3.org/2000/svg">
<path fill-rule="evenodd" clip-rule="evenodd" d="M25.736 25.5693C26.564 25.5693 27.236 26.2413 27.236 27.0693C27.236 27.8973 26.564 28.5693 25.736 28.5693H23.87C20.632 28.5693 18 31.2013 18 34.4373V44.1873C18 47.4253 20.632 50.0573 23.87 50.0573H46.13C49.366 50.0573 52 47.4253 52 44.1873V34.4193C52 31.1933 49.376 28.5693 46.152 28.5693H44.266C43.438 28.5693 42.766 27.8973 42.766 27.0693C42.766 26.2413 43.438 25.5693 44.266 25.5693H46.152C51.03 25.5693 55 29.5393 55 34.4193V44.1873C55 49.0793 51.02 53.0573 46.13 53.0573H23.87C18.98 53.0573 15 49.0793 15 44.1873V34.4373C15 29.5473 18.98 25.5693 23.87 25.5693H25.736ZM36.0612 12.4245L41.8932 18.2805C42.4772 18.8685 42.4752 19.8165 41.8892 20.4005C41.3012 20.9845 40.3532 20.9845 39.7692 20.3965L36.498 17.114L36.4992 39.0631H33.4992L33.498 17.114L30.2312 20.3965C29.9392 20.6925 29.5532 20.8385 29.1692 20.8385C28.7872 20.8385 28.4032 20.6925 28.1112 20.4005C27.5252 19.8165 27.5212 18.8685 28.1072 18.2805L33.9372 12.4245C34.4992 11.8585 35.4992 11.8585 36.0612 12.4245Z" fill="#2138A8"/>
<rect width="67" height="67" rx="20" fill="#C6D5DE" fill-opacity="0.3"/>
</svg>
