
<svg width="20" height="20" viewBox="0 0 20 20" fill="none" xmlns="http://www.w3.org/2000/svg">
<path fill-rule="evenodd" clip-rule="evenodd" d="M4.58333 2.70837C3.08756 2.70837 1.875 3.92094 1.875 5.41671V12.0834C1.875 13.5791 3.08756 14.7917 4.58333 14.7917C5.6186 14.7917 6.5182 14.2108 6.97399 13.3572C7.04846 13.4797 7.1287 13.6101 7.21517 13.7506L9.11389 16.836C9.44752 17.3781 10.0385 17.7084 10.6751 17.7084C11.7986 17.7084 12.6578 16.7069 12.4869 15.5965L12.2844 14.28C12.1236 13.2345 12.9324 12.2917 13.9902 12.2917H14.565C17.1438 12.2917 18.821 9.57787 17.6678 7.27133L16.7107 5.35714C15.899 3.7338 14.2398 2.70837 12.4249 2.70837H10C8.7811 2.70837 7.69088 3.2593 6.96477 4.12573C6.50614 3.28149 5.61167 2.70837 4.58333 2.70837ZM6.04167 5.41671C6.04167 4.61129 5.38875 3.95837 4.58333 3.95837C3.77792 3.95837 3.125 4.61129 3.125 5.41671V12.0834C3.125 12.8888 3.77792 13.5417 4.58333 13.5417C5.38875 13.5417 6.04167 12.8888 6.04167 12.0834V5.41671ZM7.38039 11.2751C7.29526 10.902 7.29167 10.5079 7.29167 9.5283V6.66671C7.29167 5.17094 8.50423 3.95837 10 3.95837H12.4249C13.7663 3.95837 14.9927 4.7163 15.5926 5.91616L16.5497 7.83035C17.2874 9.30576 16.2145 11.0417 14.565 11.0417H13.9902C12.1663 11.0417 10.7716 12.6674 11.0489 14.4701L11.2515 15.7866C11.3058 16.1398 11.0325 16.4584 10.6751 16.4584C10.4726 16.4584 10.2846 16.3533 10.1785 16.1809L8.31969 13.1603C7.80627 12.326 7.60279 11.9885 7.47973 11.6261C7.44061 11.5109 7.40746 11.3938 7.38039 11.2751Z" fill="#2D264B"/>
</svg>
