
<svg width="42" height="42" viewBox="0 0 42 42" fill="none" xmlns="http://www.w3.org/2000/svg">
<g opacity="0.1">
<path d="M0 15.75C0 7.05152 7.05152 0 15.75 0H26.25C34.9485 0 42 7.05152 42 15.75V26.25C42 34.9485 34.9485 42 26.25 42H15.75C7.05152 42 0 34.9485 0 26.25V15.75Z" fill="#5E74DF"/>
</g>
<path opacity="0.4" d="M19.8097 17.2025L19.4825 13.5033C19.4825 12.6731 20.1622 12 21.0004 12C21.8387 12 22.5183 12.6731 22.5183 13.5033L22.1912 17.2025C22.1912 17.8537 21.6581 18.3817 21.0004 18.3817C20.3417 18.3817 19.8097 17.8537 19.8097 17.2025Z" fill="#5E74DF"/>
<path d="M19.8698 29.6247C19.8115 29.5668 19.5647 29.3508 19.3598 29.1479C18.0766 27.9643 15.9782 24.8738 15.336 23.2571C15.2335 23.0116 15.0154 22.3909 15 22.0582C15 21.7408 15.0738 21.4375 15.2192 21.1484C15.423 20.7873 15.7446 20.4993 16.1236 20.34C16.3857 20.2386 17.1733 20.0793 17.1876 20.0793C18.0479 19.9211 19.4469 19.835 20.9934 19.835C22.465 19.835 23.8067 19.9211 24.6813 20.051C24.6967 20.0651 25.6738 20.2244 26.0086 20.3979C26.6211 20.7153 27 21.336 27 22.0004V22.0582C26.9857 22.4913 26.6057 23.4011 26.5924 23.4011C25.9502 24.9316 23.9532 27.949 22.6258 29.1621C22.6258 29.1621 22.2844 29.5047 22.0718 29.653C21.7656 29.8843 21.3866 29.9999 21.0077 29.9999C20.5847 29.9999 20.1915 29.8701 19.8698 29.6247Z" fill="#5E74DF"/>
</svg>
