<svg width="25" height="26" viewBox="0 0 25 26" fill="none" xmlns="http://www.w3.org/2000/svg">
<path d="M4.12056 0.0606964C3.6283 0.217573 3.22258 0.58542 2.98456 1.09392C2.78441 1.52668 2.77359 2.14336 2.95751 2.54908C3.15767 2.98725 3.30913 3.14412 4.36399 3.99342L5.37557 4.79944H9.70319H14.0362L14.9504 4.06374C16.1243 3.1279 16.1946 3.05757 16.4002 2.63563C16.5516 2.32729 16.5733 2.23532 16.5733 1.85125C16.5679 1.49963 16.5462 1.35898 16.4272 1.11014C16.2379 0.70443 15.8971 0.347401 15.5238 0.163477L15.2209 0.0120107L9.78433 0.00119165C5.41885 -0.00421787 4.30449 0.00660118 4.12056 0.0606964Z" fill="currentColor"/>
<path d="M4.85099 6.84954C2.43834 9.37038 0.577466 13.3842 0.101429 17.0952C-0.0338095 18.1554 -0.0338095 18.902 0.101429 19.8162C0.220438 20.6276 0.30699 20.9954 0.5396 21.6608C0.896628 22.667 1.3348 23.3865 2.0164 24.1005C2.76291 24.8795 3.76367 25.4367 4.80771 25.6639C5.23506 25.7558 5.61914 25.7612 9.89266 25.7612H14.5178L15.0425 25.6152C16.9142 25.1013 18.2233 23.7922 18.8941 21.7798C19.5433 19.8432 19.5487 17.5496 18.9212 15.0666C18.7318 14.2985 18.3964 13.2328 18.3261 13.1625C18.2991 13.13 18.0773 13.3031 17.7743 13.606C17.0981 14.266 16.7519 14.4337 16.0108 14.4716C15.5781 14.4878 15.432 14.477 15.1453 14.3742C14.0147 13.9955 13.3007 12.8217 13.5116 11.6911C13.6361 10.9986 13.7605 10.8201 14.9127 9.65708L15.9676 8.59141L15.762 8.3047C15.3941 7.79621 14.9614 7.27148 14.5503 6.83872L14.15 6.42219H9.70333H5.2567L4.85099 6.84954ZM11.0828 13.8008C12.4351 14.0334 13.3926 14.4716 13.6577 14.9746C13.7118 15.0882 13.7334 15.3317 13.7334 15.9051V16.6841L14.0309 16.9816L14.3285 17.2791V18.2312V19.1887L14.1391 19.3996L13.9444 19.6106L13.9336 20.5248C13.9228 21.4336 13.9228 21.4444 13.7767 21.6392C13.2736 22.2883 11.7103 22.7427 9.73038 22.7968C7.40428 22.8617 5.40817 22.3424 4.93754 21.5418C4.81312 21.3308 4.80771 21.2659 4.80771 20.5032C4.80771 19.7188 4.81312 19.6809 4.94836 19.4808C5.02409 19.3672 5.12687 19.2428 5.17015 19.2049C5.23506 19.1508 5.25129 18.9939 5.24588 18.3231L5.23506 17.5117L4.94295 17.225L4.64543 16.9383V15.997C4.64543 15.1099 4.65084 15.045 4.76985 14.8773C5.11065 14.3634 6.31156 13.9036 7.78295 13.725C8.40504 13.6547 10.4769 13.698 11.0828 13.8008Z" fill="currentColor"/>
<path d="M7.94517 14.1904C7.86944 14.2012 7.62601 14.2391 7.40422 14.2715C6.17085 14.4446 5.07812 14.9423 5.07812 15.321C5.07812 15.8078 6.34395 16.3272 7.91812 16.484C8.63759 16.5598 10.347 16.5273 10.9204 16.4299C12.1159 16.2298 13.0247 15.8619 13.214 15.5049C13.3168 15.3156 13.3168 15.2994 13.2303 15.1641C13.0139 14.8341 12.1484 14.4717 11.1368 14.2932C10.6499 14.2012 8.30761 14.1309 7.94517 14.1904Z" fill="currentColor"/>
<path d="M13.1652 16.1972C13.1057 16.2404 12.938 16.3378 12.792 16.4027L12.5323 16.5272L12.5215 16.8842C12.5215 17.0789 12.5269 17.2412 12.5431 17.2412C12.5594 17.2412 12.7 17.1655 12.8515 17.0789C13.1869 16.8842 13.3113 16.6786 13.2896 16.3486C13.2734 16.1214 13.268 16.116 13.1652 16.1972Z" fill="currentColor"/>
<path d="M5.07812 16.4137C5.07812 16.7167 5.16468 16.8681 5.44597 17.0466C5.83005 17.2847 5.83546 17.2792 5.83546 16.8735L5.83005 16.5111L5.49466 16.3488C5.31073 16.2623 5.14304 16.1811 5.1214 16.1703C5.09435 16.1595 5.07812 16.2677 5.07812 16.4137Z" fill="currentColor"/>
<path d="M6.32227 17.0789C6.32227 17.3439 6.3439 17.4575 6.39259 17.4575C6.42505 17.463 6.59815 17.4954 6.77126 17.5387L7.08501 17.609L7.06878 17.2249L7.05255 16.8409L6.72798 16.7705C6.54947 16.7327 6.38718 16.7056 6.36554 16.7002C6.33849 16.7002 6.32227 16.8679 6.32227 17.0789Z" fill="currentColor"/>
<path d="M11.7047 16.7543C11.6182 16.7759 11.4829 16.8084 11.4072 16.83C11.2774 16.8571 11.272 16.8787 11.272 17.2358V17.609L11.4343 17.582C11.5262 17.5603 11.6939 17.5225 11.8129 17.49L12.0293 17.4251L12.0455 17.0626C12.0618 16.6623 12.0564 16.6569 11.7047 16.7543Z" fill="currentColor"/>
<path d="M7.56653 17.29C7.56653 17.7174 7.54489 17.6958 8.06962 17.7444L8.32387 17.7715V17.3712V16.9709H8.06962C7.92356 16.9709 7.75587 16.9546 7.69095 16.9384C7.57194 16.906 7.56653 16.9168 7.56653 17.29Z" fill="currentColor"/>
<path d="M10.3414 16.9547L10.0547 16.9764V17.3713V17.7607L10.2602 17.7445C10.3684 17.7337 10.5415 17.7121 10.6389 17.6958L10.812 17.6688V17.2955C10.812 16.9655 10.8012 16.9169 10.7201 16.9277C10.666 16.9331 10.4929 16.9439 10.3414 16.9547Z" fill="currentColor"/>
<path d="M8.81055 17.4036V17.7822H9.18921H9.56788V17.4036V17.0249H9.18921H8.81055V17.4036Z" fill="currentColor"/>
<path d="M13.2738 17.3547C12.814 17.7118 11.9214 18.0039 10.7854 18.1716C10.4825 18.2148 9.83877 18.2419 9.08143 18.2365C7.7561 18.2311 7.04204 18.1391 6.18734 17.8686C5.94932 17.7929 5.74917 17.7442 5.73835 17.755C5.68966 17.8037 6.00882 18.058 6.31717 18.2148C7.52349 18.8207 10.2391 18.9992 12.1162 18.5935C12.8032 18.4474 13.4307 18.1878 13.6849 17.9498C13.95 17.6955 13.9554 17.5386 13.7228 17.3114L13.5443 17.1492L13.2738 17.3547Z" fill="currentColor"/>
<path d="M5.67334 18.6209C5.67334 18.9671 5.79235 19.1618 6.12233 19.3511C6.2738 19.4377 6.41985 19.5134 6.4469 19.5134C6.46854 19.5134 6.48477 19.3566 6.48477 19.1618V18.8156L6.24134 18.7074C6.1061 18.6479 5.92218 18.5451 5.83563 18.4856L5.67334 18.372V18.6209Z" fill="currentColor"/>
<path d="M13.506 18.6263L13.1382 18.8102V19.1618C13.1382 19.3566 13.1598 19.5134 13.1815 19.5134C13.2518 19.5134 13.7008 19.2159 13.8036 19.0969C13.8739 19.0103 13.8955 18.913 13.8847 18.7128L13.8685 18.4423L13.506 18.6263Z" fill="currentColor"/>
<path d="M6.92821 19.3349L6.94444 19.6973L7.16082 19.7622C7.27983 19.7947 7.45293 19.8325 7.53948 19.8542L7.70177 19.8812V19.508C7.70177 19.1509 7.69636 19.1293 7.56653 19.1023C7.4908 19.086 7.34474 19.0482 7.24196 19.0211C6.91198 18.9346 6.91198 18.94 6.92821 19.3349Z" fill="currentColor"/>
<path d="M12.2189 19.0482L11.9214 19.1077L11.9051 19.508C11.8943 19.8163 11.9051 19.8974 11.9592 19.8812C11.9971 19.865 12.1702 19.8217 12.3433 19.7838L12.6517 19.7135V19.3403C12.6517 19.0806 12.63 18.9724 12.5867 18.9778C12.5489 18.9832 12.3812 19.0103 12.2189 19.0482Z" fill="currentColor"/>
<path d="M8.16136 19.5725C8.16136 19.9891 8.13431 19.9674 8.67526 20.0215L8.94574 20.0486L8.92951 19.6699C8.91869 19.4427 8.88623 19.2804 8.84837 19.2696C8.8105 19.2588 8.6428 19.2372 8.47511 19.2263L8.16136 19.1939V19.5725Z" fill="currentColor"/>
<path d="M11.0016 19.2372L10.677 19.2696L10.6608 19.6591L10.6445 20.0486L10.9583 20.0161C11.4235 19.9783 11.4073 19.9945 11.4073 19.5671C11.4073 19.3616 11.391 19.1939 11.3694 19.1993C11.3424 19.2047 11.1801 19.2209 11.0016 19.2372Z" fill="currentColor"/>
<path d="M9.40576 19.6758V20.0544H9.78443H10.1631V19.6758V19.2971H9.78443H9.40576V19.6758Z" fill="currentColor"/>
<path d="M5.40837 19.643C4.92692 20.1515 6.04128 20.7573 7.91839 21.0062C8.72981 21.1144 10.6015 21.0819 11.2939 20.9521C12.4948 20.7249 13.263 20.3895 13.4631 20.0054C13.5227 19.8864 13.5227 19.881 13.4307 19.9188C11.2561 20.8222 7.31793 20.714 5.80326 19.7025L5.52197 19.5185L5.40837 19.643Z" fill="currentColor"/>
<path d="M13.3818 20.741C13.3223 20.7843 13.1437 20.8816 12.9923 20.9574L12.7056 21.0872V21.4388C12.7056 21.6282 12.7164 21.785 12.7326 21.785C12.7867 21.785 13.1654 21.5741 13.3006 21.4659C13.4034 21.3847 13.4359 21.2928 13.4683 21.0169C13.4845 20.833 13.4954 20.6707 13.4954 20.6653C13.4899 20.6599 13.4413 20.6977 13.3818 20.741Z" fill="currentColor"/>
<path d="M5.29443 20.9952C5.29443 21.2333 5.31607 21.2982 5.4459 21.4172C5.59737 21.5632 5.93817 21.785 6.0139 21.785C6.03554 21.785 6.05177 21.6282 6.05177 21.4388V21.0926L5.6731 20.8979L5.29443 20.7085V20.9952Z" fill="currentColor"/>
<path d="M6.53857 21.6177V21.9909L6.82528 22.0558C6.97675 22.0883 7.14985 22.1316 7.20395 22.1478C7.28509 22.1694 7.29591 22.1262 7.29591 21.7908C7.29591 21.4175 7.2905 21.4067 7.14985 21.3742C7.0633 21.358 6.91183 21.3202 6.80905 21.2931C6.70627 21.2661 6.60349 21.2444 6.58185 21.2444C6.5548 21.2444 6.53857 21.4121 6.53857 21.6177Z" fill="currentColor"/>
<path d="M11.9212 21.2982C11.8347 21.3198 11.694 21.3577 11.6129 21.3739C11.4668 21.4064 11.4614 21.4172 11.4614 21.7851V22.1583L11.6399 22.1259C11.7319 22.1096 11.9104 22.0664 12.0294 22.0339L12.2458 21.969L12.262 21.6066C12.2783 21.2062 12.2729 21.2008 11.9212 21.2982Z" fill="currentColor"/>
<path d="M7.75575 21.8448C7.75575 22.2667 7.72329 22.2397 8.25884 22.2938L8.54013 22.3208V21.9475C8.54013 21.5256 8.56718 21.5472 8.02623 21.4931L7.75575 21.4715V21.8448Z" fill="currentColor"/>
<path d="M10.6771 21.4986C10.2065 21.5364 10.2173 21.531 10.2173 21.9475V22.3208L10.504 22.2938C11.0558 22.2397 11.0287 22.2613 11.0287 21.8394C11.0287 21.5689 11.0071 21.4607 10.9638 21.4715C10.926 21.4769 10.7961 21.4877 10.6771 21.4986Z" fill="currentColor"/>
<path d="M9 21.9474V22.326H9.3949H9.78438V21.9474V21.5687H9.3949H9V21.9474Z" fill="currentColor"/>
<path d="M20.9334 6.51973C20.571 6.70365 20.3979 7.10936 20.5277 7.47721C20.571 7.60163 20.7495 7.83965 20.9767 8.06685C21.1877 8.27782 21.3608 8.47256 21.3608 8.4942C21.3608 8.53748 20.598 9.27317 20.4357 9.38677C20.3492 9.44628 20.241 9.39759 19.5648 9.01892C18.7426 8.55912 18.537 8.50502 18.2341 8.6619C18.0123 8.78091 15.2047 11.6209 15.1398 11.794C15.01 12.151 15.1344 12.5135 15.4698 12.7623C15.6429 12.8921 16.0378 12.903 16.2542 12.7894C16.3407 12.7407 16.9196 12.1943 17.5471 11.5668C18.1692 10.9393 18.6993 10.4254 18.7263 10.4254C18.748 10.4254 19.0888 10.6039 19.4837 10.8257C19.8732 11.0475 20.2626 11.2476 20.3438 11.2639C20.6251 11.3342 20.8739 11.1881 21.5772 10.5444C21.9504 10.1982 22.3183 9.8574 22.4048 9.78167L22.5509 9.64643L23.054 10.1441C23.6111 10.7013 23.8059 10.7932 24.1629 10.7013C24.3685 10.6418 24.5957 10.447 24.7093 10.2252C24.7471 10.1495 24.7688 9.60315 24.7688 8.57534C24.7688 6.83889 24.7525 6.77397 24.3576 6.54677C24.1521 6.42776 24.098 6.42235 22.632 6.42235C21.2959 6.42235 21.0957 6.43317 20.9334 6.51973Z" fill="currentColor"/>
</svg>
