<svg width="17" height="17" viewBox="0 0 17 17" fill="none" xmlns="http://www.w3.org/2000/svg">
<path d="M2.71909 0.0398654C2.39424 0.143389 2.12651 0.386134 1.96944 0.721693C1.83735 1.00728 1.83021 1.41423 1.95159 1.68196C2.08367 1.97112 2.18362 2.07464 2.87973 2.6351L3.54728 3.16699H6.4031H9.26249L9.86579 2.6815C10.6404 2.06393 10.6868 2.01752 10.8225 1.73908C10.9224 1.5356 10.9367 1.47492 10.9367 1.22146C10.9332 0.989427 10.9189 0.896612 10.8403 0.732403C10.7154 0.464669 10.4905 0.229064 10.2442 0.107691L10.0443 0.00773737L6.45665 0.000597814C3.57584 -0.00297197 2.84046 0.00416759 2.71909 0.0398654Z" fill="currentColor"/>
<path d="M3.2012 4.52005C1.60908 6.18357 0.381074 8.83235 0.0669333 11.2812C-0.0223111 11.9809 -0.0223111 12.4735 0.0669333 13.0768C0.145468 13.6123 0.202585 13.855 0.356085 14.2941C0.591691 14.9581 0.880843 15.4329 1.33063 15.9041C1.82326 16.4181 2.48367 16.7858 3.17264 16.9357C3.45465 16.9964 3.70811 17 6.52823 17H9.58039L9.92666 16.9036C11.1618 16.5645 12.0257 15.7006 12.4683 14.3726C12.8967 13.0947 12.9003 11.5811 12.4862 9.94255C12.3613 9.43564 12.1399 8.73239 12.0935 8.68599C12.0757 8.66457 11.9293 8.7788 11.7294 8.97871C11.2832 9.41422 11.0547 9.52488 10.5657 9.54987C10.2801 9.56058 10.1837 9.55344 9.99449 9.48562C9.2484 9.23573 8.77719 8.46109 8.91641 7.71501C8.99852 7.25807 9.08062 7.14027 9.84099 6.37277L10.5371 5.66952L10.4014 5.48032C10.1587 5.14476 9.87311 4.7985 9.60181 4.51291L9.33765 4.23804H6.40329H3.46893L3.2012 4.52005ZM7.31358 9.10722C8.20603 9.26072 8.83788 9.54987 9.0128 9.88186C9.0485 9.95683 9.06278 10.1175 9.06278 10.4959V11.0099L9.25911 11.2062L9.45545 11.4026V12.0309V12.6627L9.33051 12.8019L9.202 12.9412L9.19486 13.5445C9.18772 14.1442 9.18772 14.1513 9.09133 14.2798C8.75934 14.7082 7.72768 15.0081 6.42114 15.0438C4.88613 15.0866 3.56889 14.7439 3.25832 14.2156C3.17621 14.0764 3.17264 14.0335 3.17264 13.5302C3.17264 13.0126 3.17621 12.9876 3.26545 12.8555C3.31543 12.7805 3.38326 12.6984 3.41182 12.6734C3.45465 12.6377 3.46536 12.5342 3.46179 12.0916L3.45465 11.5561L3.26189 11.3669L3.06555 11.1777V10.5565C3.06555 9.97111 3.06912 9.92827 3.14765 9.81761C3.37255 9.47848 4.16504 9.17504 5.13602 9.05724C5.54654 9.01084 6.91377 9.03939 7.31358 9.10722Z" fill="currentColor"/>
<path d="M5.24306 9.36432C5.19308 9.37146 5.03244 9.39645 4.88608 9.41787C4.07217 9.5321 3.35107 9.86052 3.35107 10.1104C3.35107 10.4317 4.1864 10.7744 5.22521 10.8779C5.69999 10.9279 6.82804 10.9065 7.20644 10.8422C7.99536 10.7101 8.59508 10.4674 8.72002 10.2318C8.78785 10.1068 8.78785 10.0961 8.73073 10.0069C8.58794 9.78912 8.01678 9.54995 7.34923 9.43214C7.02795 9.37146 5.48223 9.32505 5.24306 9.36432Z" fill="currentColor"/>
<path d="M8.68799 10.6887C8.64872 10.7173 8.53806 10.7815 8.44167 10.8244L8.27032 10.9065L8.26318 11.1421C8.26318 11.2706 8.26675 11.3777 8.27746 11.3777C8.28817 11.3777 8.38099 11.3277 8.48094 11.2706C8.70227 11.1421 8.78437 11.0064 8.77009 10.7887C8.75938 10.6387 8.75581 10.6352 8.68799 10.6887Z" fill="currentColor"/>
<path d="M3.35107 10.8315C3.35107 11.0315 3.40819 11.1314 3.59382 11.2492C3.84727 11.4063 3.85084 11.4027 3.85084 11.135L3.84727 10.8958L3.62595 10.7887C3.50457 10.7316 3.39391 10.678 3.37963 10.6709C3.36178 10.6638 3.35107 10.7352 3.35107 10.8315Z" fill="currentColor"/>
<path d="M4.17236 11.2703C4.17236 11.4452 4.18664 11.5202 4.21877 11.5202C4.24019 11.5237 4.35442 11.5452 4.46865 11.5737L4.6757 11.6201L4.66499 11.3667L4.65428 11.1132L4.4401 11.0668C4.32229 11.0418 4.2152 11.024 4.20092 11.0204C4.18307 11.0204 4.17236 11.1311 4.17236 11.2703Z" fill="currentColor"/>
<path d="M7.72406 11.0561C7.66694 11.0704 7.5777 11.0918 7.52772 11.1061C7.44205 11.1239 7.43848 11.1382 7.43848 11.3738V11.6201L7.54557 11.6023C7.60626 11.588 7.71692 11.563 7.79545 11.5416L7.93825 11.4987L7.94895 11.2596C7.95966 10.9954 7.95609 10.9918 7.72406 11.0561Z" fill="currentColor"/>
<path d="M4.99325 11.4098C4.99325 11.6918 4.97897 11.6776 5.32524 11.7097L5.49302 11.7275V11.4634V11.1992H5.32524C5.22885 11.1992 5.11819 11.1885 5.07535 11.1778C4.99682 11.1564 4.99325 11.1635 4.99325 11.4098Z" fill="currentColor"/>
<path d="M6.82445 11.1886L6.63525 11.2028V11.4634V11.7205L6.77091 11.7097C6.8423 11.7026 6.95653 11.6883 7.02079 11.6776L7.13502 11.6598V11.4135C7.13502 11.1957 7.12788 11.1636 7.07434 11.1707C7.03864 11.1743 6.92441 11.1814 6.82445 11.1886Z" fill="currentColor"/>
<path d="M5.81396 11.4847V11.7346H6.06385H6.31373V11.4847V11.2349H6.06385H5.81396V11.4847Z" fill="currentColor"/>
<path d="M8.75966 11.4525C8.45623 11.6881 7.86721 11.8808 7.11756 11.9915C6.91765 12.0201 6.49285 12.0379 5.99308 12.0343C5.11848 12.0308 4.64727 11.9701 4.08325 11.7916C3.92618 11.7416 3.7941 11.7095 3.78696 11.7166C3.75483 11.7488 3.96545 11.9165 4.16892 12.0201C4.96498 12.4199 6.75701 12.5377 7.99573 12.2699C8.44909 12.1736 8.86318 12.0022 9.03096 11.8451C9.20588 11.6774 9.20945 11.5738 9.05595 11.4239L8.93815 11.3168L8.75966 11.4525Z" fill="currentColor"/>
<path d="M3.74365 12.2879C3.74365 12.5164 3.82219 12.6449 4.03994 12.7699C4.1399 12.827 4.23628 12.877 4.25413 12.877C4.26841 12.877 4.27912 12.7734 4.27912 12.6449V12.4165L4.11848 12.3451C4.02923 12.3058 3.90786 12.238 3.85075 12.1987L3.74365 12.1237V12.2879Z" fill="currentColor"/>
<path d="M8.91267 12.2915L8.66992 12.4129V12.6449C8.66992 12.7734 8.6842 12.877 8.69848 12.877C8.74489 12.877 9.04118 12.6806 9.109 12.6021C9.15541 12.545 9.16969 12.4807 9.16255 12.3486L9.15184 12.1701L8.91267 12.2915Z" fill="currentColor"/>
<path d="M4.57189 12.7593L4.5826 12.9985L4.72539 13.0413C4.80393 13.0628 4.91816 13.0877 4.97528 13.102L5.08237 13.1199V12.8736C5.08237 12.638 5.0788 12.6237 4.99313 12.6058C4.94315 12.5951 4.84677 12.5701 4.77894 12.5523C4.56118 12.4952 4.56118 12.4987 4.57189 12.7593Z" fill="currentColor"/>
<path d="M8.06354 12.5701L7.8672 12.6093L7.85649 12.8735C7.84935 13.077 7.85649 13.1305 7.89219 13.1198C7.91718 13.1091 8.03141 13.0805 8.14564 13.0555L8.34912 13.0091V12.7628C8.34912 12.5915 8.33484 12.5201 8.30628 12.5236C8.2813 12.5272 8.17063 12.5451 8.06354 12.5701Z" fill="currentColor"/>
<path d="M5.38589 12.9163C5.38589 13.1912 5.36804 13.1769 5.72502 13.2126L5.90351 13.2305L5.8928 12.9806C5.88566 12.8307 5.86424 12.7236 5.83925 12.7164C5.81426 12.7093 5.7036 12.695 5.59294 12.6879L5.38589 12.6664V12.9163Z" fill="currentColor"/>
<path d="M7.26002 12.695L7.04583 12.7164L7.03512 12.9734L7.02441 13.2305L7.23146 13.2091C7.53846 13.1841 7.52775 13.1948 7.52775 12.9128C7.52775 12.7771 7.51704 12.6664 7.50276 12.67C7.48492 12.6736 7.37782 12.6843 7.26002 12.695Z" fill="currentColor"/>
<path d="M6.20703 12.984V13.2339H6.45692H6.7068V12.984V12.7341H6.45692H6.20703V12.984Z" fill="currentColor"/>
<path d="M3.56901 12.9625C3.2513 13.298 3.98668 13.6978 5.22539 13.8621C5.76086 13.9334 6.996 13.912 7.45293 13.8264C8.24542 13.6764 8.75233 13.4551 8.88441 13.2016C8.92368 13.1231 8.92368 13.1195 8.863 13.1445C7.42794 13.7407 4.82915 13.6693 3.82961 13.0017L3.64398 12.8804L3.56901 12.9625Z" fill="currentColor"/>
<path d="M8.8305 13.6873C8.79123 13.7158 8.67343 13.7801 8.57348 13.83L8.38428 13.9157V14.1478C8.38428 14.2727 8.39142 14.3762 8.40213 14.3762C8.43782 14.3762 8.68771 14.237 8.77695 14.1656C8.84478 14.1121 8.8662 14.0514 8.88762 13.8693C8.89833 13.7479 8.90547 13.6408 8.90547 13.6373C8.9019 13.6337 8.86977 13.6587 8.8305 13.6873Z" fill="currentColor"/>
<path d="M3.49365 13.855C3.49365 14.0121 3.50793 14.0549 3.59361 14.1335C3.69356 14.2299 3.91846 14.3762 3.96843 14.3762C3.98271 14.3762 3.99342 14.2727 3.99342 14.1478V13.9193L3.74354 13.7908L3.49365 13.6658V13.855Z" fill="currentColor"/>
<path d="M4.31494 14.2655V14.5118L4.50414 14.5546C4.60409 14.5761 4.71833 14.6046 4.75402 14.6153C4.80757 14.6296 4.81471 14.6011 4.81471 14.3797C4.81471 14.1334 4.81114 14.1263 4.71833 14.1049C4.66121 14.0941 4.56126 14.0692 4.49343 14.0513C4.4256 14.0335 4.35778 14.0192 4.3435 14.0192C4.32565 14.0192 4.31494 14.1298 4.31494 14.2655Z" fill="currentColor"/>
<path d="M7.86691 14.0547C7.80979 14.069 7.71698 14.094 7.66343 14.1047C7.56705 14.1261 7.56348 14.1333 7.56348 14.376V14.6223L7.68128 14.6009C7.74197 14.5902 7.85977 14.5616 7.9383 14.5402L8.08109 14.4974L8.0918 14.2582C8.10251 13.994 8.09894 13.9905 7.86691 14.0547Z" fill="currentColor"/>
<path d="M5.11793 14.4156C5.11793 14.694 5.09651 14.6762 5.44992 14.7119L5.63554 14.7297V14.4834C5.63554 14.205 5.65339 14.2193 5.29642 14.1836L5.11793 14.1693V14.4156Z" fill="currentColor"/>
<path d="M7.04563 14.1871C6.73506 14.2121 6.7422 14.2085 6.7422 14.4834V14.7297L6.9314 14.7119C7.29552 14.6762 7.27767 14.6905 7.27767 14.412C7.27767 14.2335 7.26339 14.1621 7.23483 14.1693C7.20984 14.1729 7.12417 14.18 7.04563 14.1871Z" fill="currentColor"/>
<path d="M5.93896 14.4833V14.7332H6.19956H6.45658V14.4833V14.2334H6.19956H5.93896V14.4833Z" fill="currentColor"/>
<path d="M13.8141 4.3024C13.5749 4.42377 13.4606 4.69151 13.5463 4.93425C13.5749 5.01636 13.6927 5.17343 13.8426 5.32336C13.9818 5.46258 14.0961 5.59109 14.0961 5.60537C14.0961 5.63393 13.5927 6.11942 13.4856 6.19438C13.4285 6.23365 13.3571 6.20152 12.9109 5.95164C12.3683 5.64821 12.2326 5.61251 12.0327 5.71603C11.8864 5.79457 10.0337 7.6687 9.99082 7.78294C9.90515 8.01854 9.98725 8.25772 10.2086 8.42193C10.3228 8.5076 10.5834 8.51474 10.7262 8.43978C10.7833 8.40765 11.1653 8.0471 11.5794 7.63301C11.9899 7.21891 12.3397 6.87978 12.3576 6.87978C12.3719 6.87978 12.5968 6.99758 12.8574 7.14395C13.1144 7.29031 13.3714 7.42239 13.425 7.4331C13.6106 7.4795 13.7748 7.38312 14.2389 6.95832C14.4852 6.72985 14.7279 6.50495 14.785 6.45498L14.8814 6.36573L15.2134 6.69415C15.5811 7.06184 15.7096 7.12253 15.9452 7.06184C16.0809 7.02257 16.2308 6.89406 16.3058 6.7477C16.3308 6.69772 16.345 6.33718 16.345 5.65892C16.345 4.51302 16.3343 4.47018 16.0737 4.32025C15.9381 4.24172 15.9024 4.23815 14.935 4.23815C14.0532 4.23815 13.9211 4.24528 13.8141 4.3024Z" fill="currentColor"/>
</svg>
