<svg width="32" height="32" viewBox="0 0 32 32" fill="none" xmlns="http://www.w3.org/2000/svg">
<path fill-rule="evenodd" clip-rule="evenodd" d="M12.2063 9.8125C11.7008 9.8125 11.291 10.2223 11.291 10.7278C11.291 11.2333 11.7008 11.6431 12.2063 11.6431C12.7118 11.6431 13.1216 11.2333 13.1216 10.7278C13.1216 10.2223 12.7118 9.8125 12.2063 9.8125ZM10.166 10.7278C10.166 9.60098 11.0795 8.6875 12.2063 8.6875C13.3332 8.6875 14.2466 9.60098 14.2466 10.7278C14.2466 11.8546 13.3332 12.7681 12.2063 12.7681C11.0795 12.7681 10.166 11.8546 10.166 10.7278Z" fill="black"/>
<path fill-rule="evenodd" clip-rule="evenodd" d="M12.2056 12.14C11.3453 12.0916 10.4989 12.3776 9.8439 12.939C9.17926 13.5087 8.76477 14.3165 8.68961 15.1887C8.66294 15.4982 8.89222 15.7707 9.20173 15.7974C9.51125 15.8241 9.78378 15.5948 9.81046 15.2853C9.86031 14.7068 10.1352 14.1711 10.576 13.7932C11.0169 13.4154 11.5884 13.2256 12.1677 13.2648C12.193 13.2665 12.2183 13.2665 12.2436 13.2648C12.8229 13.2256 13.3944 13.4154 13.8353 13.7932C14.2761 14.1711 14.551 14.7068 14.6008 15.2853C14.6275 15.5948 14.9 15.8241 15.2096 15.7974C15.5191 15.7707 15.7484 15.4982 15.7217 15.1887C15.6465 14.3165 15.232 13.5087 14.5674 12.939C13.9124 12.3776 13.066 12.0916 12.2056 12.14Z" fill="black"/>
<path fill-rule="evenodd" clip-rule="evenodd" d="M12.2063 17.2354C11.7008 17.2354 11.291 17.6451 11.291 18.1507C11.291 18.6562 11.7008 19.066 12.2063 19.066C12.7118 19.066 13.1216 18.6562 13.1216 18.1507C13.1216 17.6451 12.7118 17.2354 12.2063 17.2354ZM10.166 18.1507C10.166 17.0238 11.0795 16.1104 12.2063 16.1104C13.3332 16.1104 14.2466 17.0238 14.2466 18.1507C14.2466 19.2775 13.3332 20.191 12.2063 20.191C11.0795 20.191 10.166 19.2775 10.166 18.1507Z" fill="black"/>
<path fill-rule="evenodd" clip-rule="evenodd" d="M12.2056 19.5629C11.3453 19.5145 10.4989 19.8005 9.8439 20.3619C9.17926 20.9316 8.76477 21.7394 8.68961 22.6115C8.66294 22.9211 8.89222 23.1936 9.20173 23.2203C9.51125 23.2469 9.78378 23.0177 9.81046 22.7081C9.86031 22.1297 10.1352 21.5939 10.576 21.2161C11.0169 20.8382 11.5884 20.6485 12.1677 20.6877C12.193 20.6894 12.2183 20.6894 12.2436 20.6877C12.8229 20.6485 13.3944 20.8382 13.8353 21.2161C14.2761 21.5939 14.551 22.1297 14.6008 22.7081C14.6275 23.0177 14.9 23.2469 15.2096 23.2203C15.5191 23.1936 15.7484 22.9211 15.7217 22.6115C15.6465 21.7394 15.232 20.9316 14.5674 20.3619C13.9124 19.8005 13.066 19.5145 12.2056 19.5629Z" fill="black"/>
<path fill-rule="evenodd" clip-rule="evenodd" d="M19.9075 9.8125C19.402 9.8125 18.9922 10.2223 18.9922 10.7278C18.9922 11.2333 19.402 11.6431 19.9075 11.6431C20.413 11.6431 20.8228 11.2333 20.8228 10.7278C20.8228 10.2223 20.413 9.8125 19.9075 9.8125ZM17.8672 10.7278C17.8672 9.60098 18.7807 8.6875 19.9075 8.6875C21.0343 8.6875 21.9478 9.60098 21.9478 10.7278C21.9478 11.8546 21.0343 12.7681 19.9075 12.7681C18.7807 12.7681 17.8672 11.8546 17.8672 10.7278Z" fill="black"/>
<path fill-rule="evenodd" clip-rule="evenodd" d="M19.9068 12.14C19.0465 12.0916 18.2001 12.3776 17.5451 12.939C16.8804 13.5087 16.4659 14.3165 16.3908 15.1887C16.3641 15.4982 16.5934 15.7707 16.9029 15.7974C17.2124 15.8241 17.485 15.5948 17.5116 15.2853C17.5615 14.7068 17.8364 14.1711 18.2772 13.7932C18.718 13.4154 19.2896 13.2256 19.8688 13.2648C19.8941 13.2665 19.9195 13.2665 19.9448 13.2648C20.5241 13.2256 21.0956 13.4154 21.5364 13.7932C21.9772 14.1711 22.2522 14.7068 22.302 15.2853C22.3287 15.5948 22.6012 15.8241 22.9107 15.7974C23.2202 15.7707 23.4495 15.4982 23.4229 15.1887C23.3477 14.3165 22.9332 13.5087 22.2686 12.939C21.6136 12.3776 20.7672 12.0916 19.9068 12.14ZM19.9068 18.4408C20.2175 18.4408 20.4693 18.6926 20.4693 19.0033V20.1297H21.5957C21.9064 20.1297 22.1582 20.3816 22.1582 20.6922C22.1582 21.0029 21.9064 21.2547 21.5957 21.2547H20.4693V22.3811C20.4693 22.6918 20.2175 22.9436 19.9068 22.9436C19.5962 22.9436 19.3443 22.6918 19.3443 22.3811V21.2547H18.2179C17.9072 21.2547 17.6554 21.0029 17.6554 20.6922C17.6554 20.3816 17.9072 20.1297 18.2179 20.1297H19.3443V19.0033C19.3443 18.6926 19.5962 18.4408 19.9068 18.4408Z" fill="black"/>
</svg>
