
<svg width="32" height="32" viewBox="0 0 32 32" fill="none" xmlns="http://www.w3.org/2000/svg">
<path opacity="0.2" d="M16 19C23.1797 19 29 16.3137 29 13C29 9.68629 23.1797 7 16 7C8.8203 7 3 9.68629 3 13C3 16.3137 8.8203 19 16 19Z" fill="#5E74DF"/>
<path d="M16 19C23.1797 19 29 16.3137 29 13C29 9.68629 23.1797 7 16 7C8.8203 7 3 9.68629 3 13C3 16.3137 8.8203 19 16 19Z" stroke="#5E74DF" stroke-width="2" stroke-linecap="round" stroke-linejoin="round"/>
<path d="M16 19V25" stroke="#5E74DF" stroke-width="2" stroke-linecap="round" stroke-linejoin="round"/>
<path d="M3 13V19C3 22 8 25 16 25C24 25 29 22 29 19V13" stroke="#5E74DF" stroke-width="2" stroke-linecap="round" stroke-linejoin="round"/>
<path d="M24 17.7632V23.7633" stroke="#5E74DF" stroke-width="2" stroke-linecap="round" stroke-linejoin="round"/>
<path d="M8 17.7632V23.7632" stroke="#5E74DF" stroke-width="2" stroke-linecap="round" stroke-linejoin="round"/>
</svg>
