<svg width="21" height="19" viewBox="0 0 21 19" fill="none" xmlns="http://www.w3.org/2000/svg">
<path d="M18.3243 0.0592937C17.6309 0.22752 17.0154 0.781434 16.7774 1.45023C16.6584 1.79079 16.6297 2.31188 16.7159 2.67705C16.9456 3.65768 17.8237 4.3429 18.8372 4.3429C19.9901 4.33879 20.9174 3.46074 20.9954 2.29136C21.0897 0.867598 19.7193 -0.277158 18.3243 0.0592937Z" fill="currentColor"/>
<path d="M10.5654 0.65002C10.2946 0.707463 9.99507 0.834658 9.74888 0.994678C8.80107 1.62655 8.51796 2.99287 9.14163 3.95709C9.87198 5.08133 11.4476 5.29879 12.4282 4.40433C12.9 3.9735 13.138 3.44011 13.138 2.80413C13.138 2.38562 13.0929 2.17636 12.9165 1.81529C12.5759 1.11777 11.8743 0.662329 11.0783 0.629505C10.8854 0.621298 10.6557 0.629505 10.5654 0.65002Z" fill="currentColor"/>
<path d="M16.6914 4.9994C16.3713 5.05684 16.1046 5.15942 15.8502 5.32354C14.6727 6.08671 14.5044 7.71152 15.5056 8.69216C15.9446 9.12298 16.4001 9.30762 17.0319 9.30762C17.6228 9.30762 18.1398 9.09836 18.5501 8.68805C19.5307 7.71152 19.3707 6.10312 18.2136 5.33175C17.7951 5.05274 17.1591 4.91323 16.6914 4.9994Z" fill="currentColor"/>
<path d="M10.9962 7.30116C10.8731 7.32168 10.6515 7.39553 10.5038 7.46939C10.2699 7.58017 10.0607 7.77301 8.73948 9.086L7.23776 10.5795H6.3474H5.45703V14.0056V17.4275L5.59243 17.448C6.24892 17.5547 10.0894 18.1168 10.8567 18.2194C13.1503 18.5272 14.7546 18.3302 16.5845 17.5137C16.8225 17.407 17.2205 17.2019 17.4667 17.0542C18.1437 16.6479 20.3471 15.1462 20.5399 14.9616C20.6343 14.8713 20.7615 14.7031 20.8189 14.5841C21.3195 13.5912 20.7245 12.3972 19.6249 12.1797C19.231 12.1017 19.0054 12.151 18.1109 12.5162C17.0482 12.947 16.6912 13.066 16.1907 13.1603C15.1074 13.3696 13.9955 13.2875 12.9533 12.9224C12.4938 12.7664 11.7963 12.4013 11.4311 12.1346L11.1521 11.9253L11.9932 11.076C12.7687 10.2964 12.8508 10.1979 12.9944 9.8984C13.1462 9.58247 13.1503 9.56195 13.1503 9.12292C13.1462 8.58952 13.0682 8.35155 12.7851 7.99048C12.3789 7.47349 11.6527 7.19448 10.9962 7.30116Z" fill="currentColor"/>
<path d="M0 13.8825V18.6216H2.11308H4.22616V13.8825V9.1435H2.11308H0V13.8825Z" fill="currentColor"/>
</svg>
