
<svg width="20" height="20" viewBox="0 0 20 20" fill="none" xmlns="http://www.w3.org/2000/svg">
<path fill-rule="evenodd" clip-rule="evenodd" d="M10 17.7084C8.7811 17.7084 7.69088 17.1574 6.96477 16.291C6.50614 17.1353 5.61167 17.7084 4.58333 17.7084C3.08756 17.7084 1.875 16.4958 1.875 15V8.33337C1.875 6.8376 3.08756 5.62504 4.58333 5.62504C5.6186 5.62504 6.5182 6.20591 6.97399 7.05952C7.04844 6.93705 7.12867 6.80671 7.21512 6.66627L9.11389 3.58077C9.44752 3.03862 10.0385 2.70837 10.6751 2.70837C11.7986 2.70837 12.6578 3.70982 12.4869 4.82026L12.2844 6.13674C12.1236 7.1822 12.9324 8.12504 13.9902 8.12504H14.565C17.1438 8.12504 18.821 10.8389 17.6678 13.1454L16.7107 15.0596C15.899 16.6829 14.2398 17.7084 12.4249 17.7084H10ZM10.1785 4.23589C10.2846 4.06343 10.4726 3.95837 10.6751 3.95837C11.0325 3.95837 11.3058 4.27694 11.2515 4.63019L11.0489 5.94667C10.7716 7.74933 12.1663 9.37504 13.9902 9.37504H14.565C16.2145 9.37504 17.2874 11.111 16.5497 12.5864L15.5926 14.5006C14.9927 15.7004 13.7663 16.4584 12.4249 16.4584H10C8.50423 16.4584 7.29167 15.2458 7.29167 13.75V10.8884C7.29167 9.90882 7.29526 9.51474 7.38039 9.1416C7.40746 9.02298 7.44061 8.90583 7.47973 8.79062C7.60279 8.42822 7.80627 8.09071 8.31969 7.25641L10.1785 4.23589ZM4.58333 6.87504C5.38875 6.87504 6.04167 7.52796 6.04167 8.33337V15C6.04167 15.8055 5.38875 16.4584 4.58333 16.4584C3.77792 16.4584 3.125 15.8055 3.125 15V8.33337C3.125 7.52796 3.77792 6.87504 4.58333 6.87504Z" fill="white"/>
</svg>
