<svg width="15" height="14" viewBox="0 0 15 14" fill="none" xmlns="http://www.w3.org/2000/svg">
<path d="M6.66247 0.333496C8.31751 0.333496 9.66732 1.66016 9.66732 3.2935V6.48683H5.59755C5.30588 6.48683 5.07526 6.7135 5.07526 7.00016C5.07526 7.28016 5.30588 7.5135 5.59755 7.5135H9.66732V10.7002C9.66732 12.3335 8.31751 13.6668 6.64891 13.6668H3.34561C1.68379 13.6668 0.333984 12.3402 0.333984 10.7068V3.30016C0.333984 1.66016 1.69057 0.333496 3.3524 0.333496H6.66247ZM11.3608 4.7003C11.5608 4.49363 11.8875 4.49363 12.0875 4.69363L14.0341 6.63363C14.1341 6.73363 14.1875 6.8603 14.1875 7.0003C14.1875 7.13363 14.1341 7.26696 14.0341 7.3603L12.0875 9.3003C11.9875 9.4003 11.8541 9.45363 11.7275 9.45363C11.5941 9.45363 11.4608 9.4003 11.3608 9.3003C11.1608 9.1003 11.1608 8.77363 11.3608 8.57363L12.4275 7.51363H9.66745V6.48696H12.4275L11.3608 5.42696C11.1608 5.22696 11.1608 4.9003 11.3608 4.7003Z" fill="#2138A8"/>
</svg>
