
<svg width="14" height="4" viewBox="0 0 14 4" fill="none" xmlns="http://www.w3.org/2000/svg">
<path d="M7.14966 2.86861C7.55132 2.86861 7.87694 2.543 7.87694 2.14134C7.87694 1.73967 7.55132 1.41406 7.14966 1.41406C6.748 1.41406 6.42239 1.73967 6.42239 2.14134C6.42239 2.543 6.748 2.86861 7.14966 2.86861Z" stroke="black" stroke-width="1.2" stroke-linecap="round" stroke-linejoin="round"/>
<path d="M12.2406 2.86861C12.6422 2.86861 12.9678 2.543 12.9678 2.14134C12.9678 1.73967 12.6422 1.41406 12.2406 1.41406C11.8389 1.41406 11.5133 1.73967 11.5133 2.14134C11.5133 2.543 11.8389 2.86861 12.2406 2.86861Z" stroke="black" stroke-width="1.2" stroke-linecap="round" stroke-linejoin="round"/>
<path d="M2.05875 2.86861C2.46042 2.86861 2.78603 2.543 2.78603 2.14134C2.78603 1.73967 2.46042 1.41406 2.05875 1.41406C1.65709 1.41406 1.33148 1.73967 1.33148 2.14134C1.33148 2.543 1.65709 2.86861 2.05875 2.86861Z" stroke="black" stroke-width="1.2" stroke-linecap="round" stroke-linejoin="round"/>
</svg>
