
<svg width="12" height="12" viewBox="0 0 12 12" fill="none" xmlns="http://www.w3.org/2000/svg">
<path fill-rule="evenodd" clip-rule="evenodd" d="M11.102 1.32183C11.3949 1.02894 11.3949 0.554067 11.102 0.261174C10.8091 -0.0317194 10.3342 -0.0317194 10.0413 0.261174L5.68157 4.62091L1.32183 0.261174C1.02894 -0.0317194 0.554067 -0.0317194 0.261174 0.261174C-0.0317194 0.554067 -0.0317194 1.02894 0.261174 1.32183L4.62091 5.68157L0.261174 10.0413C-0.0317194 10.3342 -0.0317194 10.8091 0.261174 11.102C0.554067 11.3949 1.02894 11.3949 1.32183 11.102L5.68157 6.74223L10.0413 11.102C10.3342 11.3949 10.8091 11.3949 11.102 11.102C11.3949 10.8091 11.3949 10.3342 11.102 10.0413L6.74223 5.68157L11.102 1.32183Z" fill="#1A1A25"/>
</svg>
