
<svg width="46" height="46" viewBox="0 0 46 46" fill="none" xmlns="http://www.w3.org/2000/svg">
<path d="M0 19.08C0 12.4726 0 9.16885 1.26546 6.63626C2.42698 4.31169 4.31169 2.42698 6.63626 1.26546C9.16885 0 12.4726 0 19.08 0H26.92C33.5274 0 36.8312 0 39.3637 1.26546C41.6883 2.42698 43.573 4.31169 44.7345 6.63626C46 9.16885 46 12.4726 46 19.08V26.92C46 33.5274 46 36.8312 44.7345 39.3637C43.573 41.6883 41.6883 43.573 39.3637 44.7345C36.8312 46 33.5274 46 26.92 46H19.08C12.4726 46 9.16885 46 6.63626 44.7345C4.31169 43.573 2.42698 41.6883 1.26546 39.3637C0 36.8312 0 33.5274 0 26.92V19.08Z" fill="#F3F4F6"/>
<path d="M30.7695 22.6453C30.039 21.7923 29.7071 21.0531 29.7071 19.7972V19.3701C29.7071 17.7335 29.3304 16.6791 28.5115 15.6246C27.2493 13.987 25.1244 13 23.0442 13H22.9558C20.9194 13 18.8611 13.9417 17.577 15.5128C16.7133 16.5884 16.2929 17.6882 16.2929 19.3701V19.7972C16.2929 21.0531 15.9828 21.7923 15.2305 22.6453C14.6769 23.2738 14.5 24.0815 14.5 24.9557C14.5 25.8309 14.7872 26.6598 15.3637 27.3336C16.116 28.1413 17.1785 28.6569 18.2638 28.7466C19.835 28.9258 21.4063 28.9933 23.0005 28.9933C24.5937 28.9933 26.165 28.8805 27.7372 28.7466C28.8215 28.6569 29.884 28.1413 30.6363 27.3336C31.2118 26.6598 31.5 25.8309 31.5 24.9557C31.5 24.0815 31.3231 23.2738 30.7695 22.6453Z" fill="#213353"/>
<path opacity="0.4" d="M25.0087 30.2283C24.5088 30.1215 21.4626 30.1215 20.9627 30.2283C20.5353 30.327 20.0732 30.5566 20.0732 31.0602C20.098 31.5406 20.3793 31.9646 20.7689 32.2335L20.7679 32.2345C21.2718 32.6273 21.8631 32.877 22.4823 32.9667C22.8123 33.012 23.1482 33.01 23.4901 32.9667C24.1083 32.877 24.6996 32.6273 25.2035 32.2345L25.2025 32.2335C25.5921 31.9646 25.8734 31.5406 25.8982 31.0602C25.8982 30.5566 25.4361 30.327 25.0087 30.2283Z" fill="#213353"/>
</svg>
