
<svg width="32" height="32" viewBox="0 0 32 32" fill="none" xmlns="http://www.w3.org/2000/svg">
<path opacity="0.2" d="M4 15H11.1012C11.3316 15 11.5549 15.0796 11.7333 15.2254C11.9117 15.3711 12.0342 15.5741 12.08 15.7999C12.2646 16.7033 12.7555 17.5153 13.4698 18.0984C14.1841 18.6815 15.0779 19 16 19C16.9221 19 17.8159 18.6815 18.5302 18.0984C19.2445 17.5153 19.7354 16.7033 19.92 15.7999C19.9658 15.5741 20.0883 15.3711 20.2667 15.2254C20.4451 15.0796 20.6684 15 20.8988 15H28V9C28 8.46957 27.7893 7.96086 27.4142 7.58579C27.0391 7.21071 26.5304 7 26 7H6C5.46957 7 4.96086 7.21071 4.58579 7.58579C4.21071 7.96086 4 8.46957 4 9V15Z" fill="#5E74DF"/>
<path d="M26 7H6C4.89543 7 4 7.89543 4 9V23C4 24.1046 4.89543 25 6 25H26C27.1046 25 28 24.1046 28 23V9C28 7.89543 27.1046 7 26 7Z" stroke="#5E74DF" stroke-width="2" stroke-linecap="round" stroke-linejoin="round"/>
<path d="M4 15H11.1012C11.3316 15 11.5549 15.0796 11.7333 15.2254C11.9117 15.3711 12.0342 15.5741 12.08 15.7999C12.2646 16.7033 12.7555 17.5153 13.4698 18.0984C14.1841 18.6815 15.0779 19 16 19C16.9221 19 17.8159 18.6815 18.5302 18.0984C19.2445 17.5153 19.7354 16.7033 19.92 15.7999C19.9658 15.5741 20.0883 15.3711 20.2667 15.2254C20.4451 15.0796 20.6684 15 20.8988 15H28" stroke="#5E74DF" stroke-width="2" stroke-linecap="round" stroke-linejoin="round"/>
<path d="M4 11H28" stroke="#5E74DF" stroke-width="2" stroke-linecap="round" stroke-linejoin="round"/>
</svg>
