<svg width="18" height="20" viewBox="0 0 18 20" fill="none" xmlns="http://www.w3.org/2000/svg">
<path d="M15.8088 7.021C15.3573 7.021 14.7592 7.011 14.0146 7.011C12.1987 7.011 10.7055 5.508 10.7055 3.675V0.459C10.7055 0.206 10.5036 0 10.253 0H4.96363C2.49517 0 0.5 2.026 0.5 4.509V15.284C0.5 17.889 2.59022 20 5.16958 20H13.0463C15.5058 20 17.5 17.987 17.5 15.502V7.471C17.5 7.217 17.299 7.012 17.0475 7.013C16.6247 7.016 16.1177 7.021 15.8088 7.021Z" fill="currentColor"/>
<path d="M13.084 0.565417C12.785 0.254417 12.263 0.468417 12.263 0.899417V3.53642C12.263 4.64242 13.174 5.55242 14.28 5.55242C14.977 5.56042 15.945 5.56242 16.767 5.56042C17.188 5.55942 17.402 5.05642 17.11 4.75242C16.055 3.65542 14.166 1.68942 13.084 0.565417Z" fill="currentColor"/>
<path fill-rule="evenodd" clip-rule="evenodd" d="M5.97392 9.38744H9.35892C9.76992 9.38744 10.1039 9.05444 10.1039 8.64344C10.1039 8.23244 9.76992 7.89844 9.35892 7.89844H5.97392C5.56292 7.89844 5.22992 8.23244 5.22992 8.64344C5.22992 9.05444 5.56292 9.38744 5.97392 9.38744ZM5.97402 14.3816H11.418C11.829 14.3816 12.163 14.0486 12.163 13.6376C12.163 13.2266 11.829 12.8926 11.418 12.8926H5.97402C5.56302 12.8926 5.23002 13.2266 5.23002 13.6376C5.23002 14.0486 5.56302 14.3816 5.97402 14.3816Z" fill="currentColor"/>
</svg>
