
<svg width="32" height="32" viewBox="0 0 32 32" fill="none" xmlns="http://www.w3.org/2000/svg">
<path d="M0 12C0 5.37258 5.37258 0 12 0H20C26.6274 0 32 5.37258 32 12V20C32 26.6274 26.6274 32 20 32H12C5.37258 32 0 26.6274 0 20V12Z" fill="#F3F2F8"/>
<path fill-rule="evenodd" clip-rule="evenodd" d="M12.2056 9.8125C11.7001 9.8125 11.2903 10.2223 11.2903 10.7278C11.2903 11.2333 11.7001 11.6431 12.2056 11.6431C12.7111 11.6431 13.1209 11.2333 13.1209 10.7278C13.1209 10.2223 12.7111 9.8125 12.2056 9.8125ZM10.1653 10.7278C10.1653 9.60098 11.0788 8.6875 12.2056 8.6875C13.3324 8.6875 14.2459 9.60098 14.2459 10.7278C14.2459 11.8546 13.3324 12.7681 12.2056 12.7681C11.0788 12.7681 10.1653 11.8546 10.1653 10.7278Z" fill="#6361D9"/>
<path fill-rule="evenodd" clip-rule="evenodd" d="M12.2056 12.14C11.3453 12.0916 10.4989 12.3776 9.8439 12.939C9.17926 13.5087 8.76477 14.3165 8.68961 15.1887C8.66294 15.4982 8.89222 15.7707 9.20173 15.7974C9.51125 15.8241 9.78378 15.5948 9.81046 15.2853C9.86031 14.7068 10.1352 14.1711 10.576 13.7932C11.0169 13.4154 11.5884 13.2256 12.1677 13.2648C12.193 13.2665 12.2183 13.2665 12.2436 13.2648C12.8229 13.2256 13.3944 13.4154 13.8353 13.7932C14.2761 14.1711 14.551 14.7068 14.6008 15.2853C14.6275 15.5948 14.9 15.8241 15.2096 15.7974C15.5191 15.7707 15.7484 15.4982 15.7217 15.1887C15.6465 14.3165 15.232 13.5087 14.5674 12.939C13.9124 12.3776 13.066 12.0916 12.2056 12.14Z" fill="#6361D9"/>
<path fill-rule="evenodd" clip-rule="evenodd" d="M12.2056 17.2354C11.7001 17.2354 11.2903 17.6451 11.2903 18.1507C11.2903 18.6562 11.7001 19.066 12.2056 19.066C12.7111 19.066 13.1209 18.6562 13.1209 18.1507C13.1209 17.6451 12.7111 17.2354 12.2056 17.2354ZM10.1653 18.1507C10.1653 17.0238 11.0788 16.1104 12.2056 16.1104C13.3324 16.1104 14.2459 17.0238 14.2459 18.1507C14.2459 19.2775 13.3324 20.191 12.2056 20.191C11.0788 20.191 10.1653 19.2775 10.1653 18.1507Z" fill="#6361D9"/>
<path fill-rule="evenodd" clip-rule="evenodd" d="M12.2056 19.5629C11.3453 19.5145 10.4989 19.8005 9.8439 20.3619C9.17926 20.9316 8.76477 21.7394 8.68961 22.6115C8.66294 22.9211 8.89222 23.1936 9.20173 23.2203C9.51125 23.2469 9.78378 23.0177 9.81046 22.7081C9.86031 22.1297 10.1352 21.5939 10.576 21.2161C11.0169 20.8382 11.5884 20.6485 12.1677 20.6877C12.193 20.6894 12.2183 20.6894 12.2436 20.6877C12.8229 20.6485 13.3944 20.8382 13.8353 21.2161C14.2761 21.5939 14.551 22.1297 14.6008 22.7081C14.6275 23.0177 14.9 23.2469 15.2096 23.2203C15.5191 23.1936 15.7484 22.9211 15.7217 22.6115C15.6465 21.7394 15.232 20.9316 14.5674 20.3619C13.9124 19.8005 13.066 19.5145 12.2056 19.5629Z" fill="#6361D9"/>
<path fill-rule="evenodd" clip-rule="evenodd" d="M19.907 9.8125C19.4015 9.8125 18.9917 10.2223 18.9917 10.7278C18.9917 11.2333 19.4015 11.6431 19.907 11.6431C20.4125 11.6431 20.8223 11.2333 20.8223 10.7278C20.8223 10.2223 20.4125 9.8125 19.907 9.8125ZM17.8667 10.7278C17.8667 9.60098 18.7802 8.6875 19.907 8.6875C21.0338 8.6875 21.9473 9.60098 21.9473 10.7278C21.9473 11.8546 21.0338 12.7681 19.907 12.7681C18.7802 12.7681 17.8667 11.8546 17.8667 10.7278Z" fill="#6361D9"/>
<path fill-rule="evenodd" clip-rule="evenodd" d="M19.9071 12.14C19.0467 12.0916 18.2003 12.3776 17.5453 12.939C16.8807 13.5087 16.4662 14.3165 16.391 15.1887C16.3644 15.4982 16.5936 15.7707 16.9032 15.7974C17.2127 15.8241 17.4852 15.5948 17.5119 15.2853C17.5617 14.7068 17.8366 14.1711 18.2775 13.7932C18.7183 13.4154 19.2898 13.2256 19.8691 13.2648C19.8944 13.2665 19.9198 13.2665 19.945 13.2648C20.5243 13.2256 21.0958 13.4154 21.5367 13.7932C21.9775 14.1711 22.2524 14.7068 22.3023 15.2853C22.3289 15.5948 22.6015 15.8241 22.911 15.7974C23.2205 15.7707 23.4498 15.4982 23.4231 15.1887C23.3479 14.3165 22.9334 13.5087 22.2688 12.939C21.6138 12.3776 20.7674 12.0916 19.9071 12.14ZM19.9071 18.4408C20.2177 18.4408 20.4696 18.6926 20.4696 19.0033V20.1297H21.596C21.9066 20.1297 22.1585 20.3816 22.1585 20.6922C22.1585 21.0029 21.9066 21.2547 21.596 21.2547H20.4696V22.3811C20.4696 22.6918 20.2177 22.9436 19.9071 22.9436C19.5964 22.9436 19.3446 22.6918 19.3446 22.3811V21.2547H18.2181C17.9075 21.2547 17.6556 21.0029 17.6556 20.6922C17.6556 20.3816 17.9075 20.1297 18.2181 20.1297H19.3446V19.0033C19.3446 18.6926 19.5964 18.4408 19.9071 18.4408Z" fill="#6361D9"/>
</svg>
