
<svg width="24" height="24" viewBox="0 0 24 24" fill="none" xmlns="http://www.w3.org/2000/svg">
<path opacity="0.4" d="M21.25 13.4764C20.429 13.4764 19.761 12.8145 19.761 12.001C19.761 11.1865 20.429 10.5246 21.25 10.5246C21.449 10.5246 21.64 10.4463 21.78 10.3076C21.921 10.1679 22 9.97864 22 9.78146L21.999 7.10415C21.999 4.84102 20.14 3 17.856 3H6.144C3.86 3 2.001 4.84102 2.001 7.10415L2 9.86766C2 10.0648 2.079 10.2541 2.22 10.3938C2.36 10.5325 2.551 10.6108 2.75 10.6108C3.599 10.6108 4.239 11.2083 4.239 12.001C4.239 12.8145 3.571 13.4764 2.75 13.4764C2.336 13.4764 2 13.8093 2 14.2195V16.8949C2 19.158 3.858 21 6.143 21H17.857C20.142 21 22 19.158 22 16.8949V14.2195C22 13.8093 21.664 13.4764 21.25 13.4764Z" fill="currentColor"/>
<path d="M15.4305 11.5892L14.2515 12.7372L14.5305 14.3602C14.5785 14.6412 14.4655 14.9182 14.2345 15.0842C14.0055 15.2522 13.7065 15.2732 13.4545 15.1392L11.9995 14.3742L10.5415 15.1402C10.4335 15.1972 10.3155 15.2272 10.1985 15.2272C10.0455 15.2272 9.89452 15.1792 9.76452 15.0852C9.53452 14.9182 9.42152 14.6412 9.46952 14.3602L9.74752 12.7372L8.56852 11.5892C8.36452 11.3912 8.29352 11.1002 8.38152 10.8292C8.47052 10.5592 8.70052 10.3672 8.98152 10.3272L10.6075 10.0902L11.3365 8.61317C11.4635 8.35917 11.7175 8.20117 11.9995 8.20117H12.0015C12.2845 8.20217 12.5385 8.36017 12.6635 8.61417L13.3925 10.0902L15.0215 10.3282C15.2995 10.3672 15.5295 10.5592 15.6175 10.8292C15.7065 11.1002 15.6355 11.3912 15.4305 11.5892Z" fill="currentColor"/>
</svg>
