<svg width="37" height="37" viewBox="0 0 37 37" fill="none" xmlns="http://www.w3.org/2000/svg">
<circle opacity="0.05" cx="18.5" cy="18.5" r="18.5" fill="#FFAB00"/>
<path d="M25.875 15.25H12.125C11.7798 15.25 11.5 15.5298 11.5 15.875V18.375C11.5 18.7202 11.7798 19 12.125 19H25.875C26.2202 19 26.5 18.7202 26.5 18.375V15.875C26.5 15.5298 26.2202 15.25 25.875 15.25Z" stroke="#FFAB00" stroke-width="1.2" stroke-linecap="round" stroke-linejoin="round"/>
<path d="M25.25 19V24.625C25.25 24.7908 25.1842 24.9497 25.0669 25.0669C24.9497 25.1842 24.7908 25.25 24.625 25.25H13.375C13.2092 25.25 13.0503 25.1842 12.9331 25.0669C12.8158 24.9497 12.75 24.7908 12.75 24.625V19" stroke="#FFAB00" stroke-width="1.2" stroke-linecap="round" stroke-linejoin="round"/>
<path d="M19 15.25V25.25" stroke="#FFAB00" stroke-width="1.2" stroke-linecap="round" stroke-linejoin="round"/>
<path d="M22.5355 14.3661C21.6517 15.25 19 15.25 19 15.25C19 15.25 19 12.5983 19.8839 11.7144C20.2356 11.3631 20.7124 11.1659 21.2095 11.166C21.7066 11.1662 22.1833 11.3637 22.5348 11.7152C22.8863 12.0667 23.0838 12.5434 23.084 13.0405C23.0841 13.5376 22.8868 14.0144 22.5355 14.3661V14.3661Z" stroke="#FFAB00" stroke-width="1.2" stroke-linecap="round" stroke-linejoin="round"/>
<path d="M15.4644 14.3661C16.3483 15.25 19 15.25 19 15.25C19 15.25 19 12.5983 18.1161 11.7144C17.7644 11.3631 17.2876 11.1659 16.7905 11.166C16.2934 11.1662 15.8167 11.3637 15.4652 11.7152C15.1137 12.0667 14.9162 12.5434 14.916 13.0405C14.9159 13.5376 15.1131 14.0144 15.4644 14.3661V14.3661Z" stroke="#FFAB00" stroke-width="1.2" stroke-linecap="round" stroke-linejoin="round"/>
<path opacity="0.2" d="M25.25 19V24.625C25.25 24.7908 25.1842 24.9497 25.0669 25.0669C24.9497 25.1842 24.7908 25.25 24.625 25.25H13.375C13.2092 25.25 13.0503 25.1842 12.9331 25.0669C12.8158 24.9497 12.75 24.7908 12.75 24.625V19H25.25Z" fill="#FFAB00"/>
</svg>
