
<svg width="37" height="37" viewBox="0 0 37 37" fill="none" xmlns="http://www.w3.org/2000/svg">
<circle opacity="0.1" cx="18.5" cy="18.5" r="18.5" fill="#FF6644"/>
<path opacity="0.2" d="M12.125 24C12.125 24.3315 12.2567 24.6495 12.4911 24.8839C12.7255 25.1183 13.0435 25.25 13.375 25.25H25.875C26.0408 25.25 26.1997 25.1842 26.3169 25.0669C26.4342 24.9497 26.5 24.7908 26.5 24.625V15.875C26.5 15.7092 26.4342 15.5503 26.3169 15.4331C26.1997 15.3158 26.0408 15.25 25.875 15.25H13.375C13.0435 15.25 12.7255 15.1183 12.4911 14.8839C12.2567 14.6495 12.125 14.3315 12.125 14V24Z" fill="#FF6644"/>
<path d="M12.125 14V24C12.125 24.3315 12.2567 24.6495 12.4911 24.8839C12.7255 25.1183 13.0435 25.25 13.375 25.25H25.875C26.0408 25.25 26.1997 25.1842 26.3169 25.0669C26.4342 24.9497 26.5 24.7908 26.5 24.625V15.875C26.5 15.7092 26.4342 15.5503 26.3169 15.4331C26.1997 15.3158 26.0408 15.25 25.875 15.25H13.375C13.0435 15.25 12.7255 15.1183 12.4911 14.8839C12.2567 14.6495 12.125 14.3315 12.125 14ZM12.125 14C12.125 13.6685 12.2567 13.3505 12.4911 13.1161C12.7255 12.8817 13.0435 12.75 13.375 12.75H24" stroke="#FF6644" stroke-width="1.1875" stroke-linecap="round" stroke-linejoin="round"/>
<path d="M23.0625 21.1875C23.5803 21.1875 24 20.7678 24 20.25C24 19.7322 23.5803 19.3125 23.0625 19.3125C22.5447 19.3125 22.125 19.7322 22.125 20.25C22.125 20.7678 22.5447 21.1875 23.0625 21.1875Z" fill="#FF6644"/>
</svg>
