<?xml version="1.0" encoding="UTF-8"?>
<!DOCTYPE svg PUBLIC "-//W3C//DTD SVG 1.1//EN" "http://www.w3.org/Graphics/SVG/1.1/DTD/svg11.dtd">
<!-- Creator: CorelDRAW 2021 (64-Bit) -->
<svg xmlns="http://www.w3.org/2000/svg" xml:space="preserve" width="8.8687mm" height="6.2654mm" version="1.1" style="shape-rendering:geometricPrecision; text-rendering:geometricPrecision; image-rendering:optimizeQuality; fill-rule:evenodd; clip-rule:evenodd"
viewBox="0 0 189.87 134.13"
 xmlns:xlink="http://www.w3.org/1999/xlink"
 xmlns:xodm="http://www.corel.com/coreldraw/odm/2003">
 <defs>
  <style type="text/css">
   <![CDATA[
    .str0 {stroke:#5E74DF;stroke-width:4.53;stroke-miterlimit:2.61313}
    .str2 {stroke:#5E74DF;stroke-width:4.53;stroke-linecap:round;stroke-linejoin:round;stroke-miterlimit:22.9256}
    .str1 {stroke:#5E74DF;stroke-width:5.44;stroke-linecap:round;stroke-linejoin:round;stroke-miterlimit:22.9256}
    .fil1 {fill:none}
    .fil3 {fill:none;fill-rule:nonzero}
    .fil4 {fill:#5E74DF}
    .fil0 {fill:#DFE4F9}
    .fil2 {fill:#5E74DF;fill-rule:nonzero}
   ]]>
  </style>
 </defs>
 <g id="Layer_x0020_1">
  <metadata id="CorelCorpID_0Corel-Layer"/>
  <path class="fil0" d="M40.68 64.71l0 -35.08c-14.78,-8.18 -27.9,-10.7 -31.71,-5.35 -3.99,5.61 3.52,18.06 17.28,29.87 2.53,2.18 5.28,4.33 8.2,6.41 2.08,1.48 4.16,2.86 6.23,4.15z"/>
  <path class="fil0" d="M149.5 79.66c-16.99,6.64 -28.87,16.89 -26.52,22.89 2.22,5.68 16.42,5.51 32.36,-0.18 0.88,-0.31 1.77,-0.65 2.65,-0.99 16.99,-6.65 28.87,-16.89 26.52,-22.89 -2.34,-6 -18.02,-5.47 -35.02,1.17z"/>
  <path class="fil1 str0" d="M40.54 75.81c-3.83,-2.07 -7.78,-4.53 -11.72,-7.34 -18.81,-13.4 -30.22,-29.64 -25.49,-36.28l5.07 -7.11"/>
  <g>
   <path class="fil2" d="M10.81 25.59l-3.69 -2.63 0 0 0.56 -0.7 0.64 -0.62 0.7 -0.55 0.76 -0.47 0.8 -0.39 0.84 -0.33 0.88 -0.26 0.91 -0.2 0.94 -0.14 0.97 -0.09 1 -0.03 1.03 0.01 1.06 0.06 1.09 0.11 1.12 0.15 1.15 0.2 1.17 0.24 1.21 0.28 1.23 0.33 1.25 0.36 1.28 0.4 1.3 0.44 1.32 0.49 1.34 0.52 1.36 0.56 1.38 0.6 1.39 0.64 1.41 0.67 1.42 0.71 1.43 0.75 1.45 0.78 1.46 0.82 -2.24 3.93 -1.4 -0.78 -1.38 -0.75 -1.37 -0.71 -1.36 -0.67 -1.34 -0.64 -1.33 -0.6 -1.3 -0.57 -1.28 -0.53 -1.26 -0.49 -1.23 -0.45 -1.2 -0.41 -1.18 -0.37 -1.15 -0.33 -1.11 -0.3 -1.08 -0.25 -1.04 -0.21 -1 -0.17 -0.96 -0.13 -0.92 -0.09 -0.87 -0.05 -0.82 -0.01 -0.77 0.03 -0.71 0.06 -0.66 0.1 -0.6 0.13 -0.54 0.16 -0.48 0.18 -0.42 0.21 -0.36 0.22 -0.31 0.24 -0.27 0.26 -0.23 0.28 0 0zm0 0c-0.73,1.02 -2.14,1.26 -3.16,0.53 -1.02,-0.73 -1.26,-2.14 -0.53,-3.16l3.69 2.63zm24.95 33.12l-2.63 3.69 0 0 -1.77 -1.29 -1.73 -1.3 -1.68 -1.32 -1.63 -1.33 -1.58 -1.34 -1.53 -1.34 -1.48 -1.35 -1.42 -1.35 -1.37 -1.35 -1.31 -1.35 -1.25 -1.34 -1.19 -1.34 -1.13 -1.33 -1.07 -1.32 -1 -1.31 -0.94 -1.29 -0.87 -1.28 -0.8 -1.27 -0.73 -1.25 -0.66 -1.23 -0.58 -1.21 -0.51 -1.19 -0.43 -1.17 -0.34 -1.16 -0.26 -1.14 -0.16 -1.12 -0.06 -1.1 0.04 -1.09 0.16 -1.07 0.29 -1.04 0.43 -0.99 0.56 -0.92 3.69 2.63 -0.23 0.38 -0.18 0.42 -0.13 0.47 -0.08 0.54 -0.03 0.61 0.04 0.69 0.11 0.76 0.18 0.82 0.26 0.88 0.34 0.93 0.42 0.98 0.5 1.03 0.57 1.07 0.64 1.1 0.72 1.13 0.79 1.16 0.86 1.19 0.93 1.21 1 1.23 1.06 1.25 1.12 1.26 1.19 1.27 1.24 1.28 1.31 1.28 1.36 1.29 1.42 1.29 1.47 1.29 1.52 1.28 1.57 1.27 1.62 1.27 1.66 1.25 1.71 1.24 0 0zm0 0c1.02,0.73 1.26,2.14 0.53,3.16 -0.73,1.02 -2.14,1.26 -3.16,0.53l2.63 -3.69zm6.11 4.07l-2.39 3.85 -0.2 -0.12 -0.2 -0.13 -0.19 -0.12 -0.19 -0.12 -0.2 -0.13 -0.2 -0.12 -0.19 -0.12 -0.21 -0.13 -0.19 -0.13 -0.19 -0.12 -0.21 -0.13 -0.19 -0.13 -0.2 -0.13 -0.2 -0.13 -0.2 -0.13 -0.19 -0.13 -0.19 -0.13 -0.2 -0.13 -0.2 -0.13 -0.2 -0.14 -0.19 -0.13 -0.19 -0.13 -0.2 -0.13 -0.2 -0.13 -0.21 -0.14 -0.2 -0.14 -0.19 -0.13 -0.2 -0.14 -0.19 -0.14 -0.19 -0.14 -0.2 -0.14 -0.2 -0.14 2.63 -3.69 0.19 0.13 0.19 0.13 0.19 0.14 0.19 0.14 0.19 0.13 0.19 0.13 0.19 0.13 0.18 0.12 0.2 0.13 0.19 0.13 0.19 0.13 0.19 0.13 0.19 0.13 0.19 0.13 0.19 0.13 0.19 0.13 0.19 0.13 0.19 0.13 0.18 0.12 0.19 0.12 0.19 0.13 0.18 0.12 0.2 0.13 0.19 0.13 0.18 0.12 0.19 0.12 0.19 0.12 0.18 0.12 0.19 0.12 0.19 0.12 0.19 0.12 0.19 0.12z"/>
  </g>
  <g>
   <line class="fil1 str0" x1="13.41" y1="40.75" x2="7.78" y2= "48.65" />
   <line class="fil1 str0" x1="26.27" y1="54.12" x2="20.54" y2= "62.16" />
  </g>
  <path class="fil3 str1" d="M129.12 90.12l-7.94 -12c16.5,-6.89 24.83,-20.66 24.83,-34.8 -0.18,-27.37 -22.48,-40.6 -54.92,-40.6l-44.77 0c-2.54,0 -3.99,1.09 -3.99,2.9l0 0.73c0,4.53 6.89,6.16 6.89,13.77l0 93.89c0,7.61 -6.89,9.24 -6.89,13.78l0 0.54c0,1.99 1.45,3.08 3.99,3.08l34.08 0c2.54,0 4.35,-1.09 4.35,-3.08l0 -0.54c0,-4.53 -7.79,-6.16 -7.79,-13.78l0 -31.18 19.94 -0.36 19.03 31.54c4.53,8.16 -3.99,9.24 -3.99,13.78l0 0.54c0,1.99 1.45,3.08 3.99,3.08l37.88 0c2.54,0 4.17,-1.09 4.17,-3.08l0 -0.54c0,-4.53 -7.43,-5.08 -13.05,-13.78m-57.82 -42.23c-6.71,0 -10.15,-3.26 -10.15,-12.15l0 -37.7c0,-4.89 2.18,-8.16 6.16,-8.16l6.16 0c13.96,0 28.46,11.6 28.46,32.63 0,17.22 -9.79,25.38 -22.84,25.38l-7.79 0z"/>
  <g>
   <path class="fil4" d="M22.23 77.35l4.07 0c0,7.76 6.35,14.11 14.11,14.11l0 4.07c-7.76,0 -14.11,6.35 -14.11,14.11l-4.07 0c0,-7.76 -6.35,-14.11 -14.11,-14.11l0 -4.07c7.76,0 14.11,-6.35 14.11,-14.11zm5.65 12.51c-1.49,-1.49 -2.72,-3.25 -3.61,-5.2 -0.89,1.95 -2.12,3.71 -3.62,5.21 -1.5,1.5 -3.26,2.73 -5.21,3.62 1.85,0.85 3.53,2 4.98,3.4 0.08,0.07 0.16,0.14 0.23,0.21 1.5,1.5 2.73,3.26 3.62,5.21 0.89,-1.94 2.12,-3.7 3.61,-5.2 0,-0 0.01,-0.01 0.01,-0.01 1.49,-1.49 3.25,-2.72 5.2,-3.61 -1.95,-0.89 -3.71,-2.12 -5.21,-3.62l0.01 -0.01c-0,-0 -0.01,-0 -0.01,-0.01z"/>
  </g>
  <g>
   <path class="fil4" d="M161.58 42.14l3.22 0c0,6.14 5.02,11.16 11.16,11.16l0 3.22c-6.14,0 -11.16,5.02 -11.16,11.16l-3.22 0c0,-6.14 -5.02,-11.16 -11.16,-11.16l0 -3.22c6.14,0 11.16,-5.02 11.16,-11.16zm3.93 10.43c-0.89,-0.89 -1.67,-1.9 -2.32,-3 -0.64,1.1 -1.43,2.12 -2.33,3.02l-0.01 -0.01c-0,0 -0,0.01 -0.01,0.01 -0.89,0.89 -1.9,1.67 -3,2.32 1.1,0.64 2.12,1.43 3.02,2.33 0.9,0.9 1.68,1.91 2.33,3.02 0.59,-1.01 1.3,-1.94 2.1,-2.78 0.07,-0.08 0.14,-0.16 0.22,-0.24 0.9,-0.9 1.91,-1.68 3.02,-2.33 -1.1,-0.64 -2.11,-1.43 -3,-2.32 -0,-0 -0.01,-0.01 -0.01,-0.01z"/>
  </g>
  <g>
   <path class="fil1 str0" d="M184.7 78.96l2.61 6.67c2.34,6 -9.53,16.25 -26.52,22.89 -16.99,6.65 -32.67,7.17 -35.02,1.17l-2.51 -6.43"/>
   <path class="fil1 str2" d="M158 101.38c16.99,-6.65 28.87,-16.89 26.52,-22.89 -2.34,-6 -18.02,-5.47 -35.02,1.17 -16.99,6.64 -28.87,16.89 -26.52,22.89 2.35,6 18.02,5.47 35.02,-1.17z"/>
   <g>
    <line class="fil1 str0" x1="136.58" y1="106.81" x2="139.38" y2= "113.97" />
    <line class="fil1 str0" x1="155.29" y1="102.25" x2="158.13" y2= "109.51" />
    <line class="fil1 str0" x1="174.72" y1="93.07" x2="177.51" y2= "100.21" />
   </g>
  </g>
 </g>
</svg>
