<svg width="63" height="63" viewBox="0 0 63 63" fill="none" xmlns="http://www.w3.org/2000/svg">
<path d="M1.75 29.75L15.75 17.5L43.75 19.25L45.5 47.25L33.25 61.25C33.25 61.25 33.2517 50.7518 22.75 40.25C12.2483 29.7483 1.75 29.75 1.75 29.75Z" fill="#A0041E"/>
<path d="M1.70316 61.2499C1.70316 61.2499 1.64016 47.2866 6.92691 41.9999C12.2137 36.7131 26.2504 37.0771 26.2504 37.0771C26.2504 37.0771 26.2487 50.7499 20.9987 55.9999C15.7487 61.2499 1.70316 61.2499 1.70316 61.2499Z" fill="#FFAC33"/>
<path d="M15.748 54.25C19.614 54.25 22.748 51.116 22.748 47.25C22.748 43.384 19.614 40.25 15.748 40.25C11.8821 40.25 8.74805 43.384 8.74805 47.25C8.74805 51.116 11.8821 54.25 15.748 54.25Z" fill="#FFCC4D"/>
<path d="M62.9976 0C62.9976 0 45.4976 0 24.4976 17.5C13.9976 26.25 13.9976 42 17.4976 45.5C20.9976 49 36.7476 49 45.4976 38.5C62.9976 17.5 62.9976 0 62.9976 0Z" fill="#55ACEE"/>
<path d="M47.2487 8.75C44.4085 8.75 41.976 10.4493 40.877 12.88C41.7555 12.4828 42.7232 12.25 43.7487 12.25C47.6145 12.25 50.7487 15.3842 50.7487 19.25C50.7487 20.2755 50.516 21.2433 50.1205 22.12C52.5512 21.0228 54.2487 18.5903 54.2487 15.75C54.2487 11.8842 51.1145 8.75 47.2487 8.75Z" fill="black"/>
<path d="M14 49C14 49 14 42 15.75 40.25C17.5 38.5 38.5017 21.0018 40.25 22.75C41.9982 24.4983 24.4982 45.5 22.7482 47.25C20.9982 49 14 49 14 49Z" fill="#A0041E"/>
</svg>
