<svg width="24" height="24" viewBox="0 0 24 24" fill="none" xmlns="http://www.w3.org/2000/svg">
<path d="M20.2509 12.2425C21.0822 11.586 21.7114 10.729 22.0962 9.77308C22.3612 10.5524 22.5 11.4259 22.5 12.4012C22.5 14.7295 21.678 16.3607 20.835 17.4115C20.4167 17.933 19.9968 18.3076 19.677 18.5545C19.614 18.6031 19.5548 18.6467 19.5 18.6859V20.2505C19.5 21.4931 18.4926 22.5005 17.25 22.5005H16.5C15.6715 22.5005 15 21.8288 15 21.0005H12C12 21.8288 11.3285 22.5005 10.5 22.5005H9.75C8.50737 22.5005 7.5 21.4931 7.5 20.2505V19.9306C7.37049 19.8893 7.22545 19.8383 7.06893 19.775C6.46902 19.5329 5.68734 19.1083 4.96608 18.3772C4.07793 17.4769 3.58041 16.3502 3.33108 15.6433C3.24947 15.4118 3.08595 15.2662 2.92683 15.2212C2.08277 14.9826 1.5 14.2123 1.5 13.3351V12.1442C1.5 11.2804 2.07257 10.5212 2.90312 10.2837C3.05816 10.2394 3.22635 10.0879 3.30912 9.83764C3.51112 9.22684 3.90072 8.32428 4.61472 7.6005C5.1988 7.00842 5.82918 6.57081 6.3077 6.28266C6.4527 6.19533 6.58518 6.12088 6.70001 6.05928V3.24292C6.70001 2.71269 7.04763 2.33842 7.42121 2.1868C7.79169 2.03646 8.28842 2.0616 8.65992 2.41258C9.03906 2.77077 9.53751 3.19921 10.0706 3.54813C10.6173 3.90594 11.1303 4.13313 11.5486 4.17555L11.5566 4.17636C10.7646 5.35206 10.3998 6.79162 10.5694 8.23326C10.7509 9.77557 11.9445 10.7031 12.9466 11.118L16.5301 12.602C17.5323 13.017 19.0322 13.2049 20.2509 12.2425ZM7.125 11.2498C7.74632 11.2498 8.25 10.7461 8.25 10.1248C8.25 9.50344 7.74632 8.99976 7.125 8.99976C6.50368 8.99976 6 9.50344 6 10.1248C6 10.7461 6.50368 11.2498 7.125 11.2498Z" fill="currentColor"/>
<path d="M12.3461 5.87866C12.7787 4.78575 13.6364 3.86251 14.808 3.37707C17.104 2.4258 19.7365 3.51594 20.6878 5.81196C21.4762 7.71487 20.8624 9.84889 19.3219 11.0654C18.6975 11.5585 17.8399 11.5207 17.1048 11.2162L13.5212 9.73225C12.7861 9.42783 12.1529 8.84826 12.0599 8.05806C12.0145 7.67209 12.0202 7.28637 12.0733 6.90979L12.3461 5.87866ZM12.3461 5.87866L12.1421 6.53676C12.1737 6.3982 12.2118 6.26134 12.2563 6.12667C12.2838 6.04312 12.3138 5.96041 12.3461 5.87866Z" fill="currentColor"/>
</svg>
