
<svg width="57" height="37" viewBox="0 0 57 37" fill="none" xmlns="http://www.w3.org/2000/svg">
<rect width="57" height="37" rx="18.5" fill="#ECF1F4"/>
<path d="M29 22.75C31.0711 22.75 32.75 21.0711 32.75 19C32.75 16.9289 31.0711 15.25 29 15.25C26.9289 15.25 25.25 16.9289 25.25 19C25.25 21.0711 26.9289 22.75 29 22.75Z" stroke="#213353" stroke-width="1.375" stroke-linecap="round" stroke-linejoin="round"/>
<path d="M28.5997 12.4499L27.1256 11.3446C27.0465 11.2851 26.9544 11.2453 26.8568 11.2283C26.7593 11.2114 26.6592 11.2179 26.5647 11.2473C26.1081 11.3903 25.6651 11.5735 25.241 11.795C25.1532 11.841 25.0776 11.9073 25.0205 11.9883C24.9634 12.0693 24.9263 12.1628 24.9124 12.2609L24.6518 14.0852C24.5525 14.1733 24.4552 14.2648 24.3601 14.36C24.2649 14.4551 24.1733 14.5524 24.0853 14.6518L24.0852 14.6518L22.2612 14.9127C22.1632 14.9265 22.0699 14.9635 21.989 15.0204C21.9081 15.0774 21.8419 15.1529 21.7958 15.2405C21.5741 15.6644 21.3904 16.1072 21.2471 16.5637C21.2176 16.6583 21.211 16.7586 21.2279 16.8563C21.2448 16.954 21.2847 17.0463 21.3442 17.1255L22.4499 18.5997C22.4419 18.7323 22.4379 18.8658 22.4379 19.0003C22.4379 19.1349 22.4419 19.2684 22.4499 19.401L22.4499 19.4011L21.3446 20.8752C21.2851 20.9543 21.2453 21.0464 21.2283 21.144C21.2114 21.2415 21.2179 21.3416 21.2473 21.4361C21.3903 21.8927 21.5735 22.3357 21.795 22.7598C21.841 22.8476 21.9073 22.9232 21.9883 22.9803C22.0693 23.0374 22.1628 23.0745 22.2609 23.0884L24.0852 23.349C24.1733 23.4483 24.2648 23.5456 24.36 23.6407C24.4551 23.7359 24.5524 23.8275 24.6518 23.9156L24.6518 23.9156L24.9127 25.7396C24.9265 25.8376 24.9635 25.9309 25.0204 26.0118C25.0774 26.0927 25.1528 26.1589 25.2405 26.205C25.6644 26.4267 26.1072 26.6104 26.5637 26.7537C26.6583 26.7832 26.7586 26.7898 26.8563 26.7729C26.954 26.756 27.0463 26.7161 27.1255 26.6566L28.5997 25.5509C28.7322 25.5589 28.8658 25.5629 29.0003 25.5629C29.1349 25.5629 29.2684 25.5589 29.401 25.5509L29.4011 25.5509L30.8752 26.6562C30.9543 26.7157 31.0464 26.7555 31.144 26.7725C31.2415 26.7894 31.3416 26.7829 31.4361 26.7535C31.8927 26.6105 32.3357 26.4273 32.7598 26.2059C32.8476 26.1598 32.9232 26.0935 32.9803 26.0125C33.0374 25.9315 33.0745 25.838 33.0884 25.7399L33.349 23.9156C33.4483 23.8275 33.5456 23.736 33.6407 23.6408C33.7359 23.5457 33.8275 23.4484 33.9156 23.349L33.9156 23.349L35.7396 23.0881C35.8376 23.0743 35.9309 23.0373 36.0118 22.9804C36.0927 22.9234 36.1589 22.848 36.205 22.7603C36.4267 22.3364 36.6104 21.8936 36.7537 21.4371C36.7832 21.3425 36.7898 21.2422 36.7729 21.1445C36.756 21.0468 36.7161 20.9545 36.6566 20.8753L35.5509 19.4011C35.5589 19.2686 35.5629 19.135 35.5629 19.0005C35.5629 18.8659 35.5589 18.7324 35.5509 18.5998L35.5509 18.5998L36.6562 17.1256C36.7157 17.0465 36.7555 16.9544 36.7725 16.8568C36.7894 16.7593 36.7829 16.6592 36.7535 16.5647C36.6105 16.1081 36.4273 15.6651 36.2059 15.241C36.1598 15.1532 36.0935 15.0776 36.0125 15.0205C35.9315 14.9634 35.838 14.9263 35.7399 14.9124L33.9156 14.6518C33.8275 14.5525 33.736 14.4552 33.6408 14.3601C33.5457 14.2649 33.4484 14.1733 33.349 14.0853L33.349 14.0852L33.0881 12.2612C33.0743 12.1632 33.0373 12.0699 32.9804 11.989C32.9234 11.9081 32.848 11.8419 32.7603 11.7958C32.3364 11.5741 31.8936 11.3904 31.4371 11.2471C31.3425 11.2176 31.2422 11.211 31.1445 11.2279C31.0468 11.2448 30.9545 11.2847 30.8753 11.3442L29.4011 12.4499C29.2685 12.4419 29.135 12.4379 29.0005 12.4379C28.8659 12.4379 28.7324 12.4419 28.5998 12.4499L28.5997 12.4499Z" stroke="#213353" stroke-width="1.375" stroke-linecap="round" stroke-linejoin="round"/>
</svg>
