<svg width="421" height="135" viewBox="0 0 421 135" fill="none" xmlns="http://www.w3.org/2000/svg">
<g opacity="0.5">
<rect x="384.243" y="11.4019" width="29.2542" height="29.2542" transform="rotate(-16.7199 384.243 11.4019)" stroke="#5E74DF" stroke-width="0.5" stroke-dasharray="5 5"/>
<rect x="-0.311354" y="0.167508" width="29.2542" height="29.2542" transform="matrix(-0.957723 -0.287693 -0.287693 0.957723 36.4953 8.47708)" stroke="#002BFF" stroke-width="0.5" stroke-dasharray="5 5"/>
<circle cx="350" cy="75" r="11.75" stroke="#B9954D" stroke-width="0.5" stroke-linecap="round" stroke-dasharray="5 5"/>
<circle r="11.75" transform="matrix(-1 0 0 1 70.9883 72.3252)" stroke="#B9954D" stroke-width="0.5" stroke-linecap="round" stroke-dasharray="5 5"/>
<path d="M397.13 114.373C397.25 114.442 397.403 114.401 397.472 114.281L398.5 112.5L399.528 114.281C399.597 114.401 399.75 114.442 399.87 114.373L402.11 118.252C401.99 118.321 401.949 118.474 402.018 118.594L404.508 122.906C404.577 123.026 404.73 123.067 404.85 122.998L407.089 126.877C406.97 126.946 406.929 127.099 406.998 127.219L408.026 129H405.969C405.831 129 405.719 129.112 405.719 129.25H401.24C401.24 129.112 401.128 129 400.99 129H396.01C395.872 129 395.76 129.112 395.76 129.25H391.281C391.281 129.112 391.169 129 391.031 129H388.974L390.002 127.219C390.071 127.099 390.03 126.946 389.911 126.877L392.15 122.998C392.27 123.067 392.423 123.026 392.492 122.906L394.982 118.594C395.051 118.474 395.01 118.321 394.89 118.252L397.13 114.373Z" stroke="#FFAB00" stroke-width="0.5" stroke-linecap="round" stroke-dasharray="5 5"/>
<path d="M23.8582 111.698C23.7386 111.767 23.5857 111.726 23.5167 111.606L22.4883 109.825L21.4599 111.606C21.3908 111.726 21.2379 111.767 21.1184 111.698L18.8785 115.577C18.9981 115.646 19.0391 115.799 18.9701 115.919L16.4802 120.231C16.4112 120.351 16.2583 120.392 16.1387 120.323L13.8989 124.202C14.0185 124.271 14.0594 124.424 13.9904 124.544L12.962 126.325H15.0188C15.1569 126.325 15.2688 126.437 15.2688 126.575H19.7485C19.7485 126.437 19.8604 126.325 19.9985 126.325H24.9781C25.1162 126.325 25.2281 126.437 25.2281 126.575H29.7078C29.7078 126.437 29.8197 126.325 29.9578 126.325H32.0146L30.9862 124.544C30.9171 124.424 30.9581 124.271 31.0777 124.202L28.8378 120.323C28.7183 120.392 28.5654 120.351 28.4963 120.231L26.0065 115.919C25.9375 115.799 25.9784 115.646 26.098 115.577L23.8582 111.698Z" stroke="#513114" stroke-width="0.5" stroke-linecap="round" stroke-dasharray="5 5"/>
</g>
</svg>
