
<svg width="46" height="46" viewBox="0 0 46 46" fill="none" xmlns="http://www.w3.org/2000/svg">
<path d="M0 19.08C0 12.4726 0 9.16885 1.26546 6.63626C2.42698 4.31169 4.31169 2.42698 6.63626 1.26546C9.16885 0 12.4726 0 19.08 0H26.92C33.5274 0 36.8312 0 39.3637 1.26546C41.6883 2.42698 43.573 4.31169 44.7345 6.63626C46 9.16885 46 12.4726 46 19.08V26.92C46 33.5274 46 36.8312 44.7345 39.3637C43.573 41.6883 41.6883 43.573 39.3637 44.7345C36.8312 46 33.5274 46 26.92 46H19.08C12.4726 46 9.16885 46 6.63626 44.7345C4.31169 43.573 2.42698 41.6883 1.26546 39.3637C0 36.8312 0 33.5274 0 26.92V19.08Z" fill="#F3F4F6"/>
<path opacity="0.4" d="M23.02 13C17.21 13 13 17.74 13 23C13 24.68 13.49 26.41 14.35 27.99C14.51 28.25 14.53 28.58 14.42 28.89L13.75 31.13C13.6 31.67 14.06 32.07 14.57 31.91L16.59 31.31C17.14 31.13 17.57 31.36 18.081 31.67C19.541 32.53 21.36 32.97 23 32.97C27.96 32.97 33 29.14 33 22.97C33 17.65 28.7 13 23.02 13Z" fill="#091E42"/>
<path fill-rule="evenodd" clip-rule="evenodd" d="M22.9805 24.2901C22.2705 24.2801 21.7005 23.7101 21.7005 23.0001C21.7005 22.3001 22.2805 21.7201 22.9805 21.7301C23.6905 21.7301 24.2605 22.3001 24.2605 23.0101C24.2605 23.7101 23.6905 24.2901 22.9805 24.2901ZM18.3701 24.2901C17.6701 24.2901 17.0901 23.7101 17.0901 23.0101C17.0901 22.3001 17.6601 21.7301 18.3701 21.7301C19.0801 21.7301 19.6501 22.3001 19.6501 23.0101C19.6501 23.7101 19.0801 24.2801 18.3701 24.2901ZM26.3103 23.0101C26.3103 23.7101 26.8803 24.2901 27.5903 24.2901C28.3003 24.2901 28.8703 23.7101 28.8703 23.0101C28.8703 22.3001 28.3003 21.7301 27.5903 21.7301C26.8803 21.7301 26.3103 22.3001 26.3103 23.0101Z" fill="#091E42"/>
</svg>
