<svg width="10" height="10" viewBox="0 0 10 10" fill="none" xmlns="http://www.w3.org/2000/svg">
<path fill-rule="evenodd" clip-rule="evenodd" d="M7.167 0C8.8615 0 10 1.189 10 2.958V7.042C10 8.811 8.8615 10 7.1665 10H2.8325C1.138 10 0 8.811 0 7.042V2.958C0 1.189 1.138 0 2.8325 0H7.167ZM7.167 0.75H2.8325C1.5675 0.75 0.75 1.6165 0.75 2.958V7.042C0.75 8.3835 1.5675 9.25 2.8325 9.25H7.1665C8.432 9.25 9.25 8.3835 9.25 7.042V2.958C9.25 1.6165 8.432 0.75 7.167 0.75ZM7.04475 3.5485C7.19125 3.695 7.19125 3.932 7.04475 4.0785L4.67175 6.4515C4.59875 6.525 4.50275 6.5615 4.40675 6.5615C4.31125 6.5615 4.21475 6.525 4.14175 6.4515L2.95475 5.265C2.80825 5.1185 2.80825 4.8815 2.95475 4.735C3.10125 4.5885 3.33825 4.5885 3.48475 4.735L4.40675 5.656L6.51475 3.5485C6.66125 3.402 6.89825 3.402 7.04475 3.5485Z" fill="#6CC224"/>
</svg>
