
<svg width="20" height="20" viewBox="0 0 20 20" fill="none" xmlns="http://www.w3.org/2000/svg">
<path fill-rule="evenodd" clip-rule="evenodd" d="M10 16.4585C9.65482 16.4585 9.375 16.1787 9.375 15.8335L9.375 4.16683C9.375 3.82165 9.65482 3.54183 10 3.54183C10.3452 3.54183 10.625 3.82165 10.625 4.16683L10.625 15.8335C10.625 16.1787 10.3452 16.4585 10 16.4585Z" fill="currentColor"/>
<path fill-rule="evenodd" clip-rule="evenodd" d="M3.72475 10.4419C3.48067 10.1979 3.48067 9.80214 3.72475 9.55806L9.55808 3.72472C9.80216 3.48065 10.1979 3.48065 10.442 3.72472L16.2753 9.55806C16.5194 9.80214 16.5194 10.1979 16.2753 10.4419C16.0312 10.686 15.6355 10.686 15.3914 10.4419L10 5.05055L4.60863 10.4419C4.36455 10.686 3.96882 10.686 3.72475 10.4419Z" fill="currentColor"/>
</svg>
