<svg width="37" height="37" viewBox="0 0 37 37" fill="none" xmlns="http://www.w3.org/2000/svg">
<g opacity="0.1">
<rect y="0.0292969" width="36.8261" height="36.8261" rx="13.8098" fill="#5E74DF"/>
</g>
<path opacity="0.4" d="M15.3209 20.0593L12.8246 22.15C12.3099 22.6647 12.314 23.5034 12.8337 24.0231C13.3534 24.5428 14.1921 24.5469 14.7068 24.0322L16.7975 21.5359C17.2013 21.1321 17.1981 20.4742 16.7904 20.0665C16.382 19.6581 15.7247 19.6555 15.3209 20.0593" fill="#5E74DF"/>
<path d="M23.0596 12.394C22.9876 12.3937 22.7007 12.3746 22.4478 12.3734C20.9184 12.3116 17.7012 12.9267 16.3007 13.5309C16.085 13.6196 15.565 13.8692 15.3491 14.0659C15.1523 14.2627 15.01 14.4965 14.9209 14.7659C14.8234 15.1161 14.8443 15.4941 14.9805 15.8278C15.0801 16.0532 15.4697 16.6403 15.4785 16.6492C15.9138 17.2806 16.7277 18.2014 17.6866 19.1602C18.599 20.0726 19.4843 20.851 20.107 21.3128C20.1254 21.3136 20.8299 21.8206 21.145 21.9207C21.7216 22.1036 22.3414 21.9537 22.7533 21.5418L22.7891 21.5059C23.0487 21.2285 23.3772 20.4288 23.369 20.4206C23.9198 19.0736 24.5524 15.9646 24.4816 14.3895C24.4816 14.3895 24.4822 13.9654 24.4424 13.7416C24.3959 13.4084 24.2327 13.1018 23.9978 12.8668C23.7355 12.6046 23.4112 12.4413 23.0596 12.394" fill="#5E74DF"/>
</svg>
