<svg width="20" height="18" viewBox="0 0 20 18" fill="none" xmlns="http://www.w3.org/2000/svg">
  <path
    opacity="0.4"
    d="M4.70555 9.89062C4.18944 9.89062 3.77163 10.3146 3.77163 10.8384L3.51416 15.4172C3.51416 16.0847 4.04783 16.6251 4.70555 16.6251C5.36328 16.6251 5.89577 16.0847 5.89577 15.4172L5.63947 10.8384C5.63947 10.3146 5.22167 9.89062 4.70555 9.89062Z"
    fill="currentColor"
  />
  <path
    d="M5.98037 0.673447C5.98037 0.673447 5.71236 0.397892 5.54618 0.277931C5.30509 0.0926435 5.00783 0 4.71173 0C4.37936 0 4.07039 0.104521 3.81877 0.301685C3.77313 0.348007 3.57886 0.522605 3.41852 0.685325C2.41204 1.6367 0.765393 4.12026 0.262153 5.42083C0.182571 5.618 0.0105329 6.11685 0 6.38409C0 6.63827 0.0561757 6.88294 0.170868 7.11455C0.331202 7.40436 0.582823 7.63715 0.880085 7.76424C1.08606 7.84619 1.70282 7.97328 1.71453 7.97328C2.38981 8.10156 3.48757 8.17045 4.70003 8.17045C5.85514 8.17045 6.90727 8.10156 7.59308 7.99704C7.60478 7.98516 8.37017 7.85807 8.6335 7.71792C9.11333 7.46255 9.41177 6.96371 9.41177 6.43041V6.38409C9.40006 6.03608 9.10163 5.30444 9.09109 5.30444C8.58785 4.07394 7.02079 1.64858 5.98037 0.673447Z"
    fill="currentColor"
  />
  <path
    opacity="0.4"
    d="M15.2947 8.10962C15.8108 8.10962 16.2286 7.68559 16.2286 7.16178L16.4849 2.58296C16.4849 1.91543 15.9524 1.375 15.2947 1.375C14.637 1.375 14.1033 1.91543 14.1033 2.58296L14.3608 7.16178C14.3608 7.68559 14.7786 8.10962 15.2947 8.10962Z"
    fill="currentColor"
  />
  <path
    d="M19.8292 10.8853C19.6688 10.5955 19.4172 10.3638 19.1199 10.2356C18.914 10.1536 18.296 10.0265 18.2855 10.0265C17.6102 9.89824 16.5124 9.82935 15.3 9.82935C14.1449 9.82935 13.0928 9.89824 12.4069 10.0028C12.3952 10.0146 11.6298 10.1429 11.3665 10.2819C10.8855 10.5373 10.5883 11.0361 10.5883 11.5706V11.6169C10.6 11.9649 10.8972 12.6954 10.9089 12.6954C11.4122 13.9259 12.9781 16.3525 14.0197 17.3265C14.0197 17.3265 14.2877 17.6021 14.4538 17.7208C14.6938 17.9073 14.991 18 15.2895 18C15.6207 18 15.9285 17.8954 16.1812 17.6983C16.2269 17.652 16.4212 17.4774 16.5815 17.3158C17.5868 16.3632 19.2346 13.8796 19.7367 12.5802C19.8175 12.383 19.9895 11.883 20 11.6169C20 11.3616 19.9438 11.1169 19.8292 10.8853Z"
    fill="currentColor"
  />
</svg>
