
<svg width="57" height="37" viewBox="0 0 57 37" fill="none" xmlns="http://www.w3.org/2000/svg">
<rect width="57" height="37" rx="18.5" fill="#ECF1F4"/>
<path d="M35.875 13.375L22.125 13.375" stroke="#213353" stroke-width="1.38" stroke-linecap="round" stroke-linejoin="round"/>
<path d="M27.125 17.125V22.125" stroke="#213353" stroke-width="1.38" stroke-linecap="round" stroke-linejoin="round"/>
<path d="M30.875 17.125V22.125" stroke="#213353" stroke-width="1.38" stroke-linecap="round" stroke-linejoin="round"/>
<path d="M34.625 13.375V25.25C34.625 25.4158 34.5592 25.5747 34.4419 25.6919C34.3247 25.8092 34.1658 25.875 34 25.875H24C23.8342 25.875 23.6753 25.8092 23.5581 25.6919C23.4408 25.5747 23.375 25.4158 23.375 25.25V13.375" stroke="#213353" stroke-width="1.38" stroke-linecap="round" stroke-linejoin="round"/>
<path d="M32.125 13.375V12.125C32.125 11.7935 31.9933 11.4755 31.7589 11.2411C31.5245 11.0067 31.2065 10.875 30.875 10.875H27.125C26.7935 10.875 26.4755 11.0067 26.2411 11.2411C26.0067 11.4755 25.875 11.7935 25.875 12.125V13.375" stroke="#213353" stroke-width="1.38" stroke-linecap="round" stroke-linejoin="round"/>
</svg>
