<svg width="29" height="22" viewBox="0 0 29 22" fill="none" xmlns="http://www.w3.org/2000/svg">
<g filter="url(#filter0_d_2298_57593)">
<path d="M11.1314 0.13989C10.9953 0.291256 11.0002 0.279613 10.2759 3.1905C10.0328 4.16273 9.8335 4.99524 9.8335 5.04182C9.8335 5.22229 9.99391 5.48427 10.1495 5.56578C10.3974 5.68803 18.6029 5.68803 18.8509 5.56578C19.0064 5.48427 19.1668 5.22229 19.1668 5.04182C19.1668 4.99524 18.9675 4.16273 18.7245 3.1905C18.0002 0.279613 18.005 0.291256 17.8689 0.13989L17.7425 0.00016737H14.5002H11.2578L11.1314 0.13989Z" fill="currentColor"/>
<path d="M5.26875 7.78375C5.14236 7.9293 5.05486 8.21457 4.56389 10.1998C4.25278 11.4398 4 12.5576 4 12.674C4 12.9069 4.10208 13.099 4.27708 13.2096C4.35 13.2562 5.60903 13.2737 8.66667 13.2737H12.9542L13.1194 13.0757C13.2361 12.936 13.2847 12.8254 13.2847 12.6915C13.2847 12.5401 12.8958 10.9333 12.259 8.42415C12.0354 7.54506 12.4049 7.62657 8.60833 7.62657H5.40972L5.26875 7.78375Z" fill="currentColor"/>
<path d="M17.0424 7.74325C16.8674 7.8655 16.9355 7.63845 16.1577 10.7531C15.9146 11.7195 15.7153 12.5928 15.7153 12.6917C15.7153 12.8256 15.7639 12.9363 15.8806 13.076L16.0459 13.2739H20.3334C23.391 13.2739 24.6501 13.2565 24.723 13.2099C24.898 13.0993 25.0001 12.9072 25.0001 12.6743C25.0001 12.4822 24.1202 8.82027 23.9014 8.11002C23.8577 7.9703 23.7702 7.80729 23.7021 7.74325C23.5806 7.62681 23.5077 7.62681 20.3869 7.62681C17.3146 7.62681 17.1931 7.63263 17.0424 7.74325Z" fill="currentColor"/>
</g>
<defs>
<filter id="filter0_d_2298_57593" x="0" y="0.000244141" width="29" height="21.2737" filterUnits="userSpaceOnUse" color-interpolation-filters="sRGB">
<feFlood flood-opacity="0" result="BackgroundImageFix"/>
<feColorMatrix in="SourceAlpha" type="matrix" values="0 0 0 0 0 0 0 0 0 0 0 0 0 0 0 0 0 0 127 0" result="hardAlpha"/>
<feOffset dy="4"/>
<feGaussianBlur stdDeviation="2"/>
<feComposite in2="hardAlpha" operator="out"/>
<feColorMatrix type="matrix" values="0 0 0 0 0 0 0 0 0 0 0 0 0 0 0 0 0 0 0.25 0"/>
<feBlend mode="normal" in2="BackgroundImageFix" result="effect1_dropShadow_2298_57593"/>
<feBlend mode="normal" in="SourceGraphic" in2="effect1_dropShadow_2298_57593" result="shape"/>
</filter>
</defs>
</svg>
