<svg xmlns="http://www.w3.org/2000/svg" width="32" height="32" viewBox="0 0 32 32" fill="none">
<path opacity="0.2" d="M16 4C19.2594 4.0001 22.3999 5.22445 24.7992 7.43051C27.1986 9.63658 28.6818 12.6634 28.9551 15.9113C28.967 16.0496 28.9501 16.1888 28.9054 16.3201C28.8607 16.4515 28.7893 16.5721 28.6956 16.6745C28.6019 16.7768 28.488 16.8586 28.361 16.9146C28.2341 16.9706 28.0969 16.9997 27.9582 17H21C21 8 16 4 16 4Z" fill="#5E74DF"/>
<path opacity="0.2" d="M16 4C12.7406 4.0001 9.60016 5.22445 7.20079 7.43051C4.80142 9.63658 3.31819 12.6634 3.04496 15.9113C3.03305 16.0496 3.04996 16.1888 3.09463 16.3201C3.13929 16.4515 3.21073 16.5721 3.30443 16.6745C3.39813 16.7768 3.51205 16.8586 3.63898 16.9146C3.76591 16.9706 3.90309 16.9997 4.04184 17H11C11 8 16 4 16 4Z" fill="#5E74DF"/>
<path d="M22 25C22 25.7956 21.6839 26.5587 21.1213 27.1213C20.5587 27.6839 19.7956 28 19 28C18.2044 28 17.4413 27.6839 16.8787 27.1213C16.3161 26.5587 16 25.7956 16 25V17" stroke="#5E74DF" stroke-width="2" stroke-linecap="round" stroke-linejoin="round"/>
<path d="M4.04184 17C3.90309 16.9997 3.76591 16.9706 3.63898 16.9146C3.51205 16.8586 3.39813 16.7768 3.30443 16.6745C3.21073 16.5722 3.13929 16.4515 3.09463 16.3201C3.04996 16.1888 3.03305 16.0496 3.04496 15.9113C3.3181 12.6634 4.80129 9.63649 7.20068 7.43041C9.60007 5.22433 12.7406 4 16 4C19.2595 4 22.4 5.22433 24.7994 7.43041C27.1988 9.63649 28.6819 12.6634 28.9551 15.9113C28.967 16.0496 28.9501 16.1888 28.9054 16.3201C28.8608 16.4515 28.7893 16.5722 28.6956 16.6745C28.6019 16.7768 28.488 16.8586 28.3611 16.9146C28.2341 16.9706 28.0969 16.9997 27.9582 17H4.04184Z" stroke="#5E74DF" stroke-width="2" stroke-linecap="round" stroke-linejoin="round"/>
<path d="M11 17C11 8 16 4 16 4C16 4 21 8 21 17" stroke="#5E74DF" stroke-width="2" stroke-linecap="round" stroke-linejoin="round"/>
</svg>