
<svg width="40" height="40" viewBox="0 0 40 40" fill="none" xmlns="http://www.w3.org/2000/svg">
<path d="M20 15V25M15 20H25" stroke="#5C6278" stroke-width="1.5" stroke-linecap="round"/>
<path d="M20 38.5C9.78273 38.5 1.5 30.2173 1.5 20H-1.5C-1.5 31.8741 8.12588 41.5 20 41.5V38.5ZM38.5 20C38.5 30.2173 30.2173 38.5 20 38.5V41.5C31.8741 41.5 41.5 31.8741 41.5 20H38.5ZM20 1.5C30.2173 1.5 38.5 9.78273 38.5 20H41.5C41.5 8.12588 31.8741 -1.5 20 -1.5V1.5ZM20 -1.5C8.12588 -1.5 -1.5 8.12588 -1.5 20H1.5C1.5 9.78273 9.78273 1.5 20 1.5V-1.5Z" fill="#5C6278"/>
</svg>
