
<svg width="28" height="28" viewBox="0 0 28 28" fill="none" xmlns="http://www.w3.org/2000/svg">
<path d="M16.8692 10.9399C16.8078 11.2154 16.6536 11.4095 16.4694 11.4095C16.2869 11.4095 16.1227 11.2104 16.0596 10.9383L12.7715 11.9189L13.0967 14.5321L13.7304 14.9967L16.7299 14.7644L17.7352 11.7795L17.5643 10.8984L16.8692 10.9399Z" fill="url(#paint0_linear_3017_11745)"/>
<path d="M16.6382 11.9478C16.6698 11.82 16.7013 11.6823 16.7361 11.5363C17.2886 9.12878 18.1993 4.23908 18.4333 3.61689C18.6805 2.95652 19.1549 2.52346 20.1453 2.7093C21.1358 2.89513 21.4443 3.90559 21.0943 5.12178C20.7442 6.33798 19.8982 10.9987 19.8982 12.5866C19.8982 14.1744 20.4954 17.3087 20.4954 17.3087L16.041 15.6594L16.6382 11.9478Z" fill="url(#paint1_linear_3017_11745)"/>
<path d="M7.13172 17.6606C7.13172 18.4189 7.50332 18.759 7.68916 18.8818C7.75052 18.9233 7.79199 18.9398 7.79199 18.9398L11.256 21.4453L17.5967 20.1461L17.4026 16.1341C13.9817 15.6961 10.891 14.0485 7.34076 13.7598C6.95089 15.0307 7.13172 16.7762 7.13172 17.6606Z" fill="url(#paint2_linear_3017_11745)"/>
<path d="M15.2552 13.2147C15.2552 13.2147 8.19616 11.977 7.54586 13.2463C7.46456 13.4039 7.3982 13.5764 7.3418 13.7573C10.892 14.0477 13.9827 15.6936 17.4035 16.1316L17.3189 14.3895L15.2552 13.2147Z" fill="url(#paint3_linear_3017_11745)"/>
<path d="M12.4301 2.81191C11.214 3.30636 11.3368 4.50266 11.8113 5.78192C12.2857 7.06116 13.2131 12.6693 13.2131 12.6693H16.4714C16.4714 12.6693 16.3668 12.2263 16.2009 11.5361C15.7132 9.49355 14.6996 5.28579 14.3263 3.9883C13.8949 2.48173 12.4301 2.81191 12.4301 2.81191Z" fill="url(#paint4_linear_3017_11745)"/>
<path d="M13.885 17.7782C15.4461 17.6139 16.4382 18.8915 16.5609 19.5568L17.0719 19.371L16.8397 16.8191L15.1856 15.7523L12.9742 15.1948L10.7313 14.0201L10.3032 12.6794C10.2916 12.6794 10.1838 12.6777 10.1722 12.6777L8.02046 12.8968C7.78819 12.983 7.62063 13.0959 7.54433 13.2452C7.25899 13.8027 7.14949 14.5278 7.11133 15.2512C7.44643 15.9265 8.2013 16.2766 8.85989 16.2766C9.63299 16.2766 10.0975 15.6892 10.3762 15.1931C10.3762 15.1931 10.4277 16.0908 11.6702 16.4309C11.6702 16.4325 12.5926 17.9142 13.885 17.7782Z" fill="url(#paint5_linear_3017_11745)"/>
<path d="M14.1941 14.5154C13.9154 13.6493 14.0896 14.2831 13.8988 12.5659C13.6881 10.6661 13.0859 9.84307 12.6164 7.12197C12.3195 5.3964 11.6078 4.23327 12.0922 2.99219C11.2478 3.5613 11.3871 4.63647 11.8118 5.78133C12.1718 6.75197 12.7923 10.2114 13.071 11.8275L12.7707 11.9171L13.0959 14.5304L13.7296 14.9949L14.1161 14.9651C14.2157 14.8572 14.2571 14.7129 14.1941 14.5154Z" fill="url(#paint6_linear_3017_11745)"/>
<path d="M20.2953 16.1788C20.1211 15.1219 19.8955 13.5655 19.8955 12.5866C19.8955 10.9987 20.7415 6.33798 21.0916 5.12178C21.2824 4.46141 21.2708 3.86742 21.0684 3.42773C20.8295 5.19811 19.7992 7.71181 19.7296 10.0613C19.6001 14.4797 18.6296 14.3918 17.9727 14.7635C18.8636 15.1285 19.7047 15.5781 20.2953 16.1788Z" fill="url(#paint7_linear_3017_11745)"/>
<path d="M19.5742 2.67578C18.9637 2.72556 18.6253 3.09888 18.4312 3.61656C18.3781 3.76091 18.2869 4.13092 18.1741 4.64692C17.834 6.19332 17.2832 9.03886 16.8668 10.942C16.822 11.1411 16.6776 11.4099 16.4686 11.4082C16.4686 11.4082 16.4703 11.4082 16.4686 11.4082C16.2861 11.4082 16.1219 11.2091 16.0588 10.937C15.5379 8.76179 14.6669 5.16959 14.3269 3.98822C14.088 3.15529 13.5339 2.88484 13.0859 2.81018C14.5176 3.09224 15.0734 10.3513 16.4537 12.0338C16.4537 12.0338 17.4872 12.0006 18.2504 5.58769C18.4843 3.62153 19.2375 2.73551 19.5742 2.67578Z" fill="url(#paint8_linear_3017_11745)"/>
<path d="M8.84033 15.9698C7.92953 15.9698 7.17469 15.2281 7.05026 13.836C7.03866 13.7033 6.77982 10.959 8.33763 10.959C9.78263 10.959 10.1907 11.5165 10.2853 13.3715C10.3799 15.2265 9.78429 15.9698 8.84033 15.9698Z" fill="url(#paint9_linear_3017_11745)"/>
<path d="M12.2926 16.1861C11.1678 16.1861 10.6054 15.6916 10.4494 14.2847C10.2935 12.8776 9.61661 10.3407 11.6821 10.2047C13.6612 10.0752 13.6994 11.2997 13.6994 13.3406C13.6994 15.3814 13.2614 16.1861 12.2926 16.1861Z" fill="url(#paint10_linear_3017_11745)"/>
<path d="M12.2308 14.2374C11.3714 14.6705 10.7941 14.6788 10.4258 14.0881C10.4341 14.1545 10.444 14.2225 10.4507 14.2839C10.6066 15.6925 11.169 16.1853 12.2938 16.1853C13.0851 16.1853 13.5215 15.6477 13.6542 14.3386C13.4335 13.9587 12.7368 13.9819 12.2308 14.2374Z" fill="url(#paint11_linear_3017_11745)"/>
<path d="M8.81008 14.1743C8.04365 14.1743 7.40825 13.6981 7.30375 12.8038C7.34688 13.1688 7.02338 10.957 8.38705 10.957C9.60308 10.957 9.94648 11.3138 10.0261 12.5068C10.1057 13.6981 9.60308 14.1743 8.81008 14.1743Z" fill="url(#paint12_linear_3017_11745)"/>
<path d="M12.1365 14.0813C11.2142 14.0813 10.7978 13.5952 10.6418 12.598C10.5605 12.0853 10.0363 10.2967 11.7318 10.2004C13.3559 10.1075 13.3559 11.2955 13.3907 12.3026C13.4388 13.7545 12.9312 14.0813 12.1365 14.0813Z" fill="url(#paint13_linear_3017_11745)"/>
<path d="M11.623 16.1016C11.8205 16.1564 12.0411 16.1863 12.2949 16.1863C13.2638 16.1863 13.7018 15.3815 13.7018 13.3407C13.7018 11.3729 13.6619 10.1683 11.8852 10.1998C12.5836 10.6163 13.1526 11.5654 13.1526 13.2793C13.1526 15.7167 12.6052 16.0967 11.623 16.1016Z" fill="url(#paint14_linear_3017_11745)"/>
<path d="M11.6685 15.4332C11.6685 14.6086 12.2524 14.582 13.8135 14.4426C14.93 14.3431 16.1428 14.0511 17.6906 14.6484C19.4558 15.3303 21.1131 16.3192 21.1347 18.0929C21.1529 19.6808 19.9186 25.3321 14.5153 25.3321C9.11198 25.3321 7.29871 22.445 7.13281 17.6598L16.5608 19.5563C16.5608 19.5563 16.7616 17.8706 15.6069 17.3711C15.1142 17.1571 14.0607 17.3297 13.359 17.3297C12.6572 17.3297 11.6685 16.5465 11.6685 15.4332Z" fill="url(#paint15_linear_3017_11745)"/>
<path d="M8.85143 15.1044C7.92573 15.1044 7.15927 14.3677 7 12.9922C7.00663 13.2693 7.02653 13.5547 7.0531 13.8367C7.17917 15.2288 7.93237 15.9705 8.84313 15.9705C9.7274 15.9705 10.2997 15.3051 10.2898 13.6907C10.1007 14.6813 9.57477 15.1044 8.85143 15.1044Z" fill="url(#paint16_linear_3017_11745)"/>
<path d="M10.2871 13.3723C10.1975 11.6036 9.82089 11.0163 8.53516 10.9648C9.20872 11.076 10.5127 13.671 8.71766 15.9574C8.75912 15.9607 8.79896 15.9707 8.84209 15.9707C9.78439 15.9707 10.38 15.2273 10.2871 13.3723Z" fill="url(#paint17_linear_3017_11745)"/>
<path d="M17.1121 17.9081C17.0706 16.9175 15.8546 15.9286 14.8443 16.0315C13.9716 16.1211 12.3923 16.2389 11.6855 15.5918C11.7751 16.6188 12.6925 17.3306 13.3595 17.3306C14.0612 17.3306 15.1147 17.1581 15.6074 17.3721C16.7621 17.8716 16.5613 19.5573 16.5613 19.5573C16.5613 19.5573 17.1536 18.8986 17.1121 17.9081Z" fill="url(#paint18_linear_3017_11745)"/>
<path d="M21.1318 18.0929C21.1119 16.3192 19.4529 15.332 17.6878 14.6484C16.1416 14.0511 14.9272 14.3431 13.8107 14.4426C12.6195 14.5488 12.0007 14.592 11.7734 14.9703C13.2417 14.6069 14.6153 14.4592 16.3108 14.6534C18.5189 14.9056 20.1895 16.2678 20.4931 17.3081C20.7934 18.3368 20.7486 20.2532 20.7486 20.2997C21.034 19.3771 21.1385 18.5591 21.1318 18.0929Z" fill="url(#paint19_linear_3017_11745)"/>
<path d="M16.5597 19.556C16.5879 19.1545 16.5547 18.7446 16.4269 18.3647C16.3042 17.988 16.062 17.6313 15.7053 17.4554C15.3585 17.2613 14.9322 17.2978 14.5373 17.3061C14.1359 17.3227 13.736 17.3691 13.3263 17.3675C12.4868 17.2945 11.805 16.5793 11.6507 15.7713C11.6125 15.5689 11.6026 15.3598 11.6441 15.1491C11.6872 14.9384 11.8498 14.7459 12.0472 14.6679C12.4371 14.502 12.8485 14.4821 13.2483 14.434C14.0546 14.3842 14.8476 14.2399 15.6621 14.2349C16.4767 14.2233 17.2879 14.4124 18.0262 14.7426C18.7678 15.0578 19.501 15.4295 20.1116 15.9688C20.7221 16.4997 21.1451 17.2779 21.1302 18.0942C21.1235 17.2762 20.6872 16.5213 20.0734 16.0119C19.4662 15.4859 18.7363 15.1226 17.9963 14.8156C17.2597 14.4937 16.4651 14.3178 15.6621 14.3344C14.8625 14.3444 14.0612 14.497 13.2583 14.5518C12.8618 14.5949 12.4487 14.6165 12.092 14.7658C11.9128 14.8388 11.7884 14.9882 11.7436 15.1723C11.7038 15.3582 11.7104 15.5606 11.7453 15.7531C11.878 16.518 12.5416 17.2165 13.3263 17.2878C13.7244 17.2945 14.1276 17.2497 14.5324 17.2364C14.9289 17.2331 15.3619 17.1933 15.7302 17.404C16.0985 17.5981 16.3373 17.9714 16.4518 18.3547C16.5746 18.7446 16.5978 19.1561 16.5597 19.556Z" fill="#975500"/>
<path d="M10.228 12.6777C10.3027 13.2668 10.3773 13.8674 10.2861 14.4664C10.2446 14.7634 10.1716 15.062 10.0273 15.3325C9.88793 15.6063 9.64407 15.8319 9.35207 15.9447C8.75983 16.1389 8.07133 15.9564 7.66653 15.4951C7.2435 15.0454 7.0859 14.4249 7.05273 13.8359C7.13237 14.4199 7.31817 15.0156 7.7246 15.442C8.11947 15.8751 8.7731 16.0244 9.31227 15.8352C9.873 15.6461 10.1285 15.0239 10.2098 14.4564C10.3027 13.8707 10.2579 13.2717 10.228 12.6777Z" fill="#975500"/>
<path d="M11.85 16.1493C11.6592 16.2124 11.4867 16.1278 11.3274 16.0448C11.1665 15.9602 11.0222 15.844 10.9044 15.7063C10.6655 15.4309 10.5411 15.0841 10.4648 14.7423C10.3967 14.3939 10.3868 14.0488 10.3387 13.7053C10.2972 13.3618 10.2591 13.0151 10.2441 12.6699C10.2889 13.0134 10.3486 13.3552 10.405 13.697C10.4714 14.0371 10.4996 14.3872 10.5809 14.7174C10.6572 15.0476 10.7816 15.3728 11.0039 15.6217C11.1134 15.7461 11.2445 15.849 11.3921 15.9237C11.5381 16.0033 11.6991 16.0216 11.85 16.1493Z" fill="#975500"/>
<path d="M12.6152 10.2695C12.806 10.3176 12.9918 10.3973 13.1494 10.5234C13.307 10.6511 13.4165 10.827 13.4978 11.0095C13.6604 11.3795 13.7035 11.7811 13.7383 12.1743C13.7566 12.5692 13.7582 12.9641 13.7499 13.3573C13.7466 13.5531 13.7516 13.7506 13.7416 13.948C13.735 14.0476 13.7333 14.1471 13.7118 14.2467C13.6935 14.3329 13.6487 14.479 13.5293 14.469C13.6272 14.4342 13.6239 14.3213 13.6471 14.2351C13.6587 14.1405 13.6703 14.0442 13.6687 13.9463C13.672 13.7506 13.6604 13.5564 13.6554 13.3573C13.6438 12.9641 13.6487 12.5709 13.6222 12.1809C13.6006 11.7927 13.5757 11.3978 13.4331 11.0377C13.3004 10.6694 12.9918 10.3873 12.6152 10.2695Z" fill="#975500"/>
<path d="M13.8839 17.778C12.5916 17.9141 11.6675 16.4324 11.6675 16.4324C10.4249 16.0922 10.3735 15.1946 10.3735 15.1946C10.0948 15.6891 9.63194 16.2781 8.85721 16.2781C8.19857 16.2781 7.44541 15.928 7.10864 15.2527C7.11694 15.1034 7.13021 14.9524 7.14514 14.8047H7.14014C7.09867 15.2129 7.08707 15.6277 7.09037 16.0259C7.75564 16.7891 8.79747 16.897 9.46274 16.6995C9.64357 16.6464 10.4847 16.0109 11.135 16.6497C11.8401 17.3416 12.6596 18.2277 14.0664 18.1961C15.4733 18.1646 16.5582 19.5567 16.5582 19.5567C16.4371 18.893 15.4467 17.6137 13.8839 17.778Z" fill="url(#paint20_linear_3017_11745)"/>
<path opacity="0.5" d="M8.12759 17.8228C7.63152 18.4201 9.13956 21.8596 10.6277 22.7258C12.1158 23.5919 13.9822 23.3264 14.3455 22.6378C14.7088 21.9492 13.161 20.879 11.8968 19.6944C9.71193 17.6502 8.62362 17.2255 8.12759 17.8228Z" fill="url(#paint21_radial_3017_11745)"/>
<path opacity="0.5" d="M20.2596 18.2649C20.5233 17.9099 19.2044 15.7081 18.1526 15.1141C17.1008 14.5201 15.0271 14.8735 14.8595 15.29C14.692 15.7064 16.6877 16.176 17.6267 16.9625C19.2459 18.3164 19.9958 18.62 20.2596 18.2649Z" fill="url(#paint22_radial_3017_11745)"/>
<path opacity="0.5" d="M11.8681 3.96489C11.7951 3.69775 12.3293 3.23981 12.681 3.14689C13.0327 3.05564 13.3761 3.19667 13.4508 3.4638C13.5238 3.73094 13.1754 3.97982 12.8701 4.20216C12.3442 4.58543 11.9411 4.23203 11.8681 3.96489Z" fill="url(#paint23_radial_3017_11745)"/>
<path opacity="0.5" d="M19.2002 3.05619C19.2898 2.77744 19.9617 2.88529 20.2869 3.12422C20.6121 3.36315 20.8028 3.78293 20.7133 4.06168C20.6237 4.34041 20.2139 4.23091 19.8522 4.13634C19.2301 3.9754 19.1106 3.33494 19.2002 3.05619Z" fill="url(#paint24_radial_3017_11745)"/>
<path d="M20.4823 16.3848C20.5851 18.628 20.2451 20.3868 18.3704 21.754C16.0462 23.4497 16.2353 24.3921 14.0686 24.3921C11.902 24.3921 10.5051 23.2456 9.51474 22.2567C8.52598 21.2678 7.69318 19.6186 7.28504 18.3625C7.24358 18.2364 7.19878 18.1236 7.15234 18.0141C7.39454 22.5836 9.24764 25.3329 14.5133 25.3329C19.9149 25.3329 21.1509 19.6816 21.1326 18.0954C21.126 17.4184 20.8804 16.8593 20.4823 16.3848Z" fill="url(#paint25_linear_3017_11745)"/>
<defs>
<linearGradient id="paint0_linear_3017_11745" x1="15.2545" y1="17.919" x2="15.2545" y2="11.2373" gradientUnits="userSpaceOnUse">
<stop offset="0.00132565" stop-color="#D2A374"/>
<stop offset="1" stop-color="#DEBA94"/>
</linearGradient>
<linearGradient id="paint1_linear_3017_11745" x1="18.6357" y1="17.9181" x2="18.6357" y2="11.2364" gradientUnits="userSpaceOnUse">
<stop offset="0.00132565" stop-color="#D2A374"/>
<stop offset="1" stop-color="#DEBA94"/>
</linearGradient>
<linearGradient id="paint2_linear_3017_11745" x1="7.48682" y1="17.6015" x2="20.5674" y2="17.6015" gradientUnits="userSpaceOnUse">
<stop offset="0.00132565" stop-color="#D2A374"/>
<stop offset="1" stop-color="#DEBA94"/>
</linearGradient>
<linearGradient id="paint3_linear_3017_11745" x1="12.3726" y1="17.9174" x2="12.3726" y2="11.2357" gradientUnits="userSpaceOnUse">
<stop offset="0.00132565" stop-color="#D2A374"/>
<stop offset="1" stop-color="#DEBA94"/>
</linearGradient>
<linearGradient id="paint4_linear_3017_11745" x1="13.9729" y1="17.9178" x2="13.9729" y2="11.2362" gradientUnits="userSpaceOnUse">
<stop offset="0.00132565" stop-color="#D2A374"/>
<stop offset="1" stop-color="#DEBA94"/>
</linearGradient>
<linearGradient id="paint5_linear_3017_11745" x1="8.41313" y1="24.9792" x2="12.4567" y2="15.9783" gradientUnits="userSpaceOnUse">
<stop stop-color="#D2A374" stop-opacity="0"/>
<stop offset="1" stop-color="#B88653"/>
</linearGradient>
<linearGradient id="paint6_linear_3017_11745" x1="11.369" y1="4.7123" x2="15.5603" y2="18.5533" gradientUnits="userSpaceOnUse">
<stop stop-color="#D2A374" stop-opacity="0"/>
<stop offset="1" stop-color="#B88653"/>
</linearGradient>
<linearGradient id="paint7_linear_3017_11745" x1="10.0307" y1="-11.9117" x2="45.4488" y2="66.4704" gradientUnits="userSpaceOnUse">
<stop stop-color="#D2A374" stop-opacity="0"/>
<stop offset="1" stop-color="#B88653"/>
</linearGradient>
<linearGradient id="paint8_linear_3017_11745" x1="16.3303" y1="-0.560592" x2="16.3303" y2="27.1285" gradientUnits="userSpaceOnUse">
<stop stop-color="#D2A374" stop-opacity="0"/>
<stop offset="1" stop-color="#B88653"/>
</linearGradient>
<linearGradient id="paint9_linear_3017_11745" x1="8.66163" y1="13.0307" x2="8.66163" y2="18.7617" gradientUnits="userSpaceOnUse">
<stop offset="0.00132565" stop-color="#D2A374"/>
<stop offset="1" stop-color="#DEBA94"/>
</linearGradient>
<linearGradient id="paint10_linear_3017_11745" x1="11.9589" y1="13.0313" x2="11.9589" y2="18.7623" gradientUnits="userSpaceOnUse">
<stop offset="0.00132565" stop-color="#D2A374"/>
<stop offset="1" stop-color="#DEBA94"/>
</linearGradient>
<linearGradient id="paint11_linear_3017_11745" x1="12.0408" y1="12.8876" x2="12.0408" y2="20.4817" gradientUnits="userSpaceOnUse">
<stop stop-color="#D2A374" stop-opacity="0"/>
<stop offset="1" stop-color="#B88653"/>
</linearGradient>
<linearGradient id="paint12_linear_3017_11745" x1="8.66598" y1="13.8656" x2="8.66598" y2="9.46616" gradientUnits="userSpaceOnUse">
<stop offset="0.00132565" stop-color="#D2A374"/>
<stop offset="1" stop-color="#DEBA94"/>
</linearGradient>
<linearGradient id="paint13_linear_3017_11745" x1="11.9478" y1="13.8656" x2="11.9478" y2="9.46618" gradientUnits="userSpaceOnUse">
<stop offset="0.00132565" stop-color="#D2A374"/>
<stop offset="1" stop-color="#DEBA94"/>
</linearGradient>
<linearGradient id="paint14_linear_3017_11745" x1="9.74225" y1="11.8137" x2="23.8717" y2="19.8393" gradientUnits="userSpaceOnUse">
<stop stop-color="#D2A374" stop-opacity="0"/>
<stop offset="1" stop-color="#B88653"/>
</linearGradient>
<linearGradient id="paint15_linear_3017_11745" x1="7.48625" y1="19.8072" x2="20.5667" y2="19.8072" gradientUnits="userSpaceOnUse">
<stop offset="0.00132565" stop-color="#D2A374"/>
<stop offset="1" stop-color="#DEBA94"/>
</linearGradient>
<linearGradient id="paint16_linear_3017_11745" x1="8.61353" y1="12.8863" x2="9.00563" y2="19.3861" gradientUnits="userSpaceOnUse">
<stop stop-color="#D2A374" stop-opacity="0"/>
<stop offset="1" stop-color="#B88653"/>
</linearGradient>
<linearGradient id="paint17_linear_3017_11745" x1="5.17656" y1="11.0781" x2="26.9824" y2="24.9225" gradientUnits="userSpaceOnUse">
<stop stop-color="#D2A374" stop-opacity="0"/>
<stop offset="1" stop-color="#B88653"/>
</linearGradient>
<linearGradient id="paint18_linear_3017_11745" x1="13.4945" y1="19.6668" x2="15.777" y2="12.9381" gradientUnits="userSpaceOnUse">
<stop stop-color="#D2A374" stop-opacity="0"/>
<stop offset="1" stop-color="#B88653"/>
</linearGradient>
<linearGradient id="paint19_linear_3017_11745" x1="14.3503" y1="13.9503" x2="23.991" y2="23.2356" gradientUnits="userSpaceOnUse">
<stop offset="0.3118" stop-color="#F0C492" stop-opacity="0"/>
<stop offset="1" stop-color="#E6AF74"/>
</linearGradient>
<linearGradient id="paint20_linear_3017_11745" x1="10.9069" y1="20.0624" x2="13.9078" y2="10.9064" gradientUnits="userSpaceOnUse">
<stop stop-color="#D2A374" stop-opacity="0"/>
<stop offset="1" stop-color="#B88653"/>
</linearGradient>
<radialGradient id="paint21_radial_3017_11745" cx="0" cy="0" r="1" gradientUnits="userSpaceOnUse" gradientTransform="translate(11.0743 20.7932) rotate(-138.963) scale(4.33457 1.9778)">
<stop stop-color="#E9CDB1"/>
<stop offset="1" stop-color="#E9CDB1" stop-opacity="0"/>
</radialGradient>
<radialGradient id="paint22_radial_3017_11745" cx="0" cy="0" r="1" gradientUnits="userSpaceOnUse" gradientTransform="translate(17.7272 16.1236) rotate(38.2192) scale(3.3423 1.23066)">
<stop stop-color="#E9CDB1"/>
<stop offset="1" stop-color="#E9CDB1" stop-opacity="0"/>
</radialGradient>
<radialGradient id="paint23_radial_3017_11745" cx="0" cy="0" r="1" gradientUnits="userSpaceOnUse" gradientTransform="translate(12.6577 3.74368) rotate(165.356) scale(0.824395 0.48402)">
<stop stop-color="#E9CDB1"/>
<stop offset="1" stop-color="#E9CDB1" stop-opacity="0"/>
</radialGradient>
<radialGradient id="paint24_radial_3017_11745" cx="0" cy="0" r="1" gradientUnits="userSpaceOnUse" gradientTransform="translate(19.9438 3.57456) rotate(-143.693) scale(0.915985 0.486877)">
<stop stop-color="#E9CDB1"/>
<stop offset="1" stop-color="#E9CDB1" stop-opacity="0"/>
</radialGradient>
<linearGradient id="paint25_linear_3017_11745" x1="14.1434" y1="14.5911" x2="14.1434" y2="46.8242" gradientUnits="userSpaceOnUse">
<stop stop-color="#D2A374" stop-opacity="0"/>
<stop offset="1" stop-color="#B88653"/>
</linearGradient>
</defs>
</svg>
