
<svg width="27" height="8" viewBox="0 0 27 8" fill="none" xmlns="http://www.w3.org/2000/svg">
<path d="M24.6793 0.147461H23.0553C22.5643 0.147461 22.1866 0.298533 21.96 0.789517L18.863 7.85214H21.0536C21.0536 7.85214 21.4313 6.90794 21.5068 6.68133C21.7334 6.68133 23.8862 6.68133 24.1883 6.68133C24.2639 6.94571 24.4527 7.81437 24.4527 7.81437H26.4166L24.6793 0.147461ZM22.1111 5.09507C22.2999 4.64186 22.942 2.9423 22.942 2.9423C22.942 2.98006 23.1308 2.48908 23.2064 2.2247L23.3574 2.90453C23.3574 2.90453 23.7729 4.75516 23.8484 5.13284H22.1111V5.09507Z" fill="#3362AB"/>
<path d="M19.014 5.3217C19.014 6.90796 17.5788 7.96547 15.3505 7.96547C14.4063 7.96547 13.4999 7.77663 13.0089 7.55002L13.3111 5.81269L13.5754 5.92599C14.2553 6.22814 14.7085 6.34144 15.5394 6.34144C16.1437 6.34144 16.7857 6.11483 16.7857 5.58608C16.7857 5.24617 16.5213 5.01956 15.6904 4.64188C14.8973 4.2642 13.8398 3.65991 13.8398 2.56464C13.8398 1.05392 15.3128 0.0341797 17.39 0.0341797C18.1831 0.0341797 18.863 0.185252 19.2784 0.374092L18.9763 2.03589L18.8252 1.88481C18.4475 1.73374 17.9565 1.58267 17.2389 1.58267C16.4458 1.62044 16.0681 1.96035 16.0681 2.26249C16.0681 2.60241 16.5213 2.86678 17.2389 3.20669C18.4475 3.77321 19.014 4.41527 19.014 5.3217Z" fill="#3362AB"/>
<path d="M0.583252 0.223338L0.62102 0.0722656H3.86907C4.32229 0.0722656 4.6622 0.223338 4.7755 0.714322L5.4931 4.11344C4.7755 2.30058 3.11371 0.827626 0.583252 0.223338Z" fill="#F9B50B"/>
<path d="M10.0629 0.14812L6.77712 7.81503H4.5488L2.6604 1.39446C4.02005 2.26313 5.15309 3.62278 5.56854 4.56698L5.79515 5.36011L7.83462 0.110352H10.0629V0.14812Z" fill="#3362AB"/>
<path d="M10.9316 0.110352H13.0089L11.687 7.81503H9.60974L10.9316 0.110352Z" fill="#3362AB"/>
</svg>
