
<svg width="20" height="20" viewBox="0 0 20 20" fill="none" xmlns="http://www.w3.org/2000/svg">
<path fill-rule="evenodd" clip-rule="evenodd" d="M10 3.5415C10.3452 3.5415 10.625 3.82133 10.625 4.1665L10.625 15.8332C10.625 16.1783 10.3452 16.4582 10 16.4582C9.65482 16.4582 9.375 16.1783 9.375 15.8332L9.375 4.1665C9.375 3.82133 9.65482 3.5415 10 3.5415Z" fill="#1A1A25"/>
<path fill-rule="evenodd" clip-rule="evenodd" d="M16.2753 9.55806C16.5194 9.80214 16.5194 10.1979 16.2753 10.4419L10.442 16.2753C10.1979 16.5194 9.80215 16.5194 9.55807 16.2753L3.72473 10.4419C3.48066 10.1979 3.48066 9.80214 3.72473 9.55806C3.96881 9.31398 4.36454 9.31398 4.60862 9.55806L10 14.9495L15.3914 9.55806C15.6355 9.31398 16.0312 9.31398 16.2753 9.55806Z" fill="#1A1A25"/>
</svg>
