
<svg width="36" height="36" viewBox="0 0 36 36" fill="none" xmlns="http://www.w3.org/2000/svg">
<path d="M0 10C0 4.47715 4.47715 0 10 0H26C31.5228 0 36 4.47715 36 10V26C36 31.5228 31.5228 36 26 36H10C4.47715 36 0 31.5228 0 26V10Z" fill="#BCD7DE" fill-opacity="0.3"/>
<path d="M28.2218 30L26.8329 28.6111L25.444 30L24.0551 28.6111L22.6662 30L21.2773 28.6111L19.8885 30L18.4996 28.6111L17.1107 30L15.7218 28.6111L14.3329 30L12.944 28.6111L11.5551 30L10.1662 28.6111L8.77734 30V5L10.1662 6.38889L11.526 5L12.944 6.38889L14.3621 5L15.7218 6.38889L17.1398 5L18.4996 6.38889L19.9461 5L21.2773 6.38889L22.753 5L24.0551 6.38889L25.4148 5L26.8329 6.38889L28.2218 5V30Z" fill="#CCD6DD"/>
<path d="M19.1936 16.8049H12.2491C11.8672 16.8049 11.5547 16.4924 11.5547 16.1105C11.5547 15.7285 11.8672 15.416 12.2491 15.416H19.1936C19.5755 15.416 19.888 15.7285 19.888 16.1105C19.888 16.4924 19.5755 16.8049 19.1936 16.8049ZM24.7491 16.8049H21.9714C21.5894 16.8049 21.2769 16.4924 21.2769 16.1105C21.2769 15.7285 21.5894 15.416 21.9714 15.416H24.7491C25.1311 15.416 25.4436 15.7285 25.4436 16.1105C25.4436 16.4924 25.1311 16.8049 24.7491 16.8049ZM19.1936 19.5827H12.2491C11.8672 19.5827 11.5547 19.2702 11.5547 18.8882C11.5547 18.5063 11.8672 18.1938 12.2491 18.1938H19.1936C19.5755 18.1938 19.888 18.5063 19.888 18.8882C19.888 19.2702 19.5755 19.5827 19.1936 19.5827ZM24.7491 19.5827H21.9714C21.5894 19.5827 21.2769 19.2702 21.2769 18.8882C21.2769 18.5063 21.5894 18.1938 21.9714 18.1938H24.7491C25.1311 18.1938 25.4436 18.5063 25.4436 18.8882C25.4436 19.2702 25.1311 19.5827 24.7491 19.5827ZM24.7491 23.7493H12.2491C11.8672 23.7493 11.5547 23.4368 11.5547 23.0549C11.5547 22.673 11.8672 22.3605 12.2491 22.3605H24.7491C25.1311 22.3605 25.4436 22.673 25.4436 23.0549C25.4436 23.4368 25.1311 23.7493 24.7491 23.7493ZM24.7491 26.5271H21.9714C21.5894 26.5271 21.2769 26.2146 21.2769 25.8327C21.2769 25.4507 21.5894 25.1382 21.9714 25.1382H24.7491C25.1311 25.1382 25.4436 25.4507 25.4436 25.8327C25.4436 26.2146 25.1311 26.5271 24.7491 26.5271Z" fill="#99AAB5"/>
<path d="M18.5004 13.3329C20.0346 13.3329 21.2782 12.0892 21.2782 10.5551C21.2782 9.021 20.0346 7.77734 18.5004 7.77734C16.9663 7.77734 15.7227 9.021 15.7227 10.5551C15.7227 12.0892 16.9663 13.3329 18.5004 13.3329Z" fill="#99AAB5"/>
</svg>
